{
.appVersion = "3232";
.formatVersion = 3;
DisplayStrings = (
"◌",
Ut,
"osƒsn
n฿n
ˮ
n−˗n


꞊@&¶§©®™°′″|¦†ℓ‡℮№₿₵¢₡¤$₫€₲₴₭₾₺₼₦₱₽₨₹₪£₸₮₩¥⅄+−×÷=≠><≥≤±≈~¬^∞∅∫Ω∆∏∑√",
"n+−×÷=≠><≥≤±≈~¬^∞",
"ꞌꞋ",
tc,
"ḛ",
"Ƭ",
"ƒ฿꞉ˮ˗꞊@&¶§©®™°′″|¦†ℓ‡℮№₿¤S$S₫€₲₴₭₾₺₼₦₱₽₨₹₪£₸₮₩¥⅄


+−×÷=≠><≥≤±≈~¬^∞∅∫Ω∆∏∑√µ∂%‰↑↗→↘↓↙←↖↔↕",
K,
y,
"Ƴ",
"Ʈ",
C,
"₴₸₮₾₺₼₦₱₽₹₪₩",
"S$S
d₫d
C€C
₲
₴
K₭K
₾
₺
₼
₦
₱
₽
₨
₹
₪
£
₸
₮
₩
¥",
"
| ¦
†
ℓ
‡
℮",
"‖",
"†‡",
F,
"«»‹›",
"₾
L₺L
₼
N₦N
₱
₽
₨
R₹R
₪
L£L
T₸T
₮
₩
¥",
"T₮T
W₩W
Y¥Y"
);
axes = (
{
name = "Optical size";
tag = opsz;
}
);
customParameters = (
{
name = fsType;
value = (
);
},
{
name = "Use Typo Metrics";
value = 1;
},
{
name = blueScale;
value = 0.04;
},
{
name = blueShift;
value = 7;
},
{
name = blueFuzz;
value = 1;
},
{
name = "Variable Font Origin";
value = m002;
},
{
name = glyphOrder;
value = (
"#Color Layer Filter:",
"**No Color**",
A,
Aacute,
Abreve,
Abreveacute,
Abrevedotbelow,
Abrevegrave,
Abrevehookabove,
Abrevetilde,
Acaron,
Acircumflex,
Acircumflexacute,
Acircumflexdotbelow,
Acircumflexgrave,
Acircumflexhookabove,
Acircumflextilde,
Adblgrave,
Adieresis,
Adieresismacron,
Adotaccent,
Adotbelow,
Adotmacron,
Agrave,
Ahookabove,
Ainvertedbreve,
"Alpha-latin",
Amacron,
Aogonek,
Aring,
Aringacute,
Aringbelow,
Astroke,
Atilde,
AE,
AEacute,
AEmacron,
B,
Bdotaccent,
Bdotbelow,
"Beta-latin",
Bhook,
Bmacronbelow,
Bstroke,
C,
Cacute,
Cbar,
Ccaron,
Ccedilla,
Ccedillaacute,
Ccircumflex,
Cdotaccent,
"Chi-latin",
Chook,
Cstroke,
D,
DZcaron,
Dcaron,
Dcedilla,
Dcircumflexbelow,
Dcroat,
Ddotaccent,
Ddotbelow,
Dhook,
Dmacronbelow,
Dtail,
Dtopbar,
Eth,
E,
Eacute,
Ebreve,
Ecaron,
Ecedilla,
Ecedillabreve,
Ecircumflex,
Ecircumflexacute,
Ecircumflexbelow,
Ecircumflexdotbelow,
Ecircumflexgrave,
Ecircumflexhookabove,
Ecircumflextilde,
Edblgrave,
Edieresis,
Edotaccent,
Edotbelow,
Egrave,
Ehookabove,
Einvertedbreve,
Emacron,
Emacronacute,
Emacrongrave,
Eogonek,
Eopen,
Ereversed,
Esh,
Estroke,
Etilde,
Etildebelow,
Schwa,
Ezh,
Ezhcaron,
Ezhreversed,
F,
Fdotaccent,
Fhook,
G,
Gacute,

glyphs = (
{
color = 8;
glyphname = A;
kernLeft = KO_A;
kernRight = KO_A;
lastChange = "2023-12-18 03:30:03 +0000";
layers = (
{
anchors = (
{
name = bottom;
pos = (299,-30);
},
{
name = ogonek;
pos = (525,10);
},
{
name = top;
pos = (299,794);
}
);
associatedMasterId = "462F72A0-0500-4E69-A49B-6C2F2580580D";
layerId = "C8E13D57-C79D-4678-A318-908658594FF3";
name = Original;
shapes = (
{
closed = 1;
nodes = (
(259,0,ls),
(268,0,o),
(274,6,o),
(274,15,cs),
(274,228,l),
(324,228,l),
(324,15,ls),
(324,6,o),
(330,0,o),
(339,0,cs),
(553,0,ls),
(562,0,o),
(568,6,o),
(568,15,cs),
(568,571,ls),
(568,578,o),
(566,583,o),
(562,589,cs),
(420,791,ls),
(416,797,o),
(409,800,o),
(401,800,cs),
(196,800,ls),
(188,800,o),
(181,797,o),
(177,791,cs),
(36,589,ls),
(32,583,o),
(30,578,o),
(30,571,cs),
(30,15,ls),
(30,6,o),
(36,0,o),
(45,0,cs)
);
},
{
closed = 1;
nodes = (
(266,437,o),
(241,463,o),
(241,495,cs),
(241,527,o),
(266,553,o),
(298,553,cs),
(330,553,o),
(356,527,o),
(356,495,cs),
(356,463,o),
(330,437,o),
(298,437,cs)
);
}
);
width = 598;
},
{
anchors = (
{
name = bottom;
pos = (308,-30);
},
{
name = ogonek;
pos = (534,10);
},
{
name = top;
pos = (303,794);
}
);
associatedMasterId = "462F72A0-0500-4E69-A49B-6C2F2580580D";
layerId = "795BAFE1-3A72-4A2A-BBB9-32C5EC2E3B2A";
name = "Jun 2 22, 02:32";
shapes = (
{
closed = 1;
nodes = (
(259,0,ls),
(268,0,o),
(274,6,o),
(274,15,cs),
(274,228,l),
(332,228,l),
(332,15,ls),
(332,6,o),
(338,0,o),
(347,0,cs),
(561,0,ls),
(570,0,o),
(576,6,o),
(576,15,cs),
(576,571,ls),
(576,578,o),
(574,583,o),
(570,589,cs),
(428,791,ls),
(424,797,o),
(417,800,o),
(409,800,cs),
(196,800,ls),
(188,800,o),
(181,797,o),
(177,791,cs),
(36,589,ls),
(32,583,o),
(30,578,o),
(30,571,cs),
(30,15,ls),
(30,6,o),
(36,0,o),
(45,0,cs)
);
},
{
closed = 1;
nodes = (
(269,437,o),
(245,461,o),
(245,495,cs),
(245,529,o),
(269,553,o),
(303,553,cs),
(337,553,o),
(361,529,o),
(361,495,cs),
(361,461,o),
(337,437,o),
(303,437,cs)
);
}
);
width = 606;
},
{
anchors = (
{
name = bottom;
pos = (335,3);
},
{
name = ogonek;
pos = (587,0);
},
{
name = top;
pos = (335,800);
}
);
guides = (
{
angle = 90;
pos = (335,412);
showMeasurement = 1;
},
{
pos = (252,506);
showMeasurement = 1;
}
);
layerId = "462F72A0-0500-4E69-A49B-6C2F2580580D";
shapes = (
{
closed = 1;
nodes = (
(253,0,ls),
(262,0,o),
(268,6,o),
(268,15,cs),
(268,270,l),
(402,270,l),
(402,15,ls),
(402,6,o),
(408,0,o),
(417,0,cs),
(587,0,ls),
(596,0,o),
(602,6,o),
(602,15,cs),
(602,571,ls),
(602,578,o),
(600,583,o),
(596,589,cs),
(453,791,ls),
(449,797,o),
(442,800,o),
(434,800,cs),
(235,800,ls),
(227,800,o),
(220,797,o),
(216,791,cs),
(74,589,ls),
(70,583,o),
(68,578,o),
(68,571,cs),
(68,15,ls),
(68,6,o),
(74,0,o),
(83,0,cs)
);
},
{
closed = 1;
nodes = (
(262,399,o),
(241,425,o),
(241,516,cs),
(241,607,o),
(262,633,o),
(335,633,cs),
(408,633,o),
(429,607,o),
(429,516,cs),
(429,425,o),
(408,399,o),
(335,399,cs)
);
}
);
width = 670;
},
{
anchors = (
{
name = bottom;
pos = (299,-30);
},
{
name = ogonek;
pos = (525,10);
},
{
name = top;
pos = (299,794);
}
);
associatedMasterId = m002;
layerId = "A8113C6D-81AB-4E55-9014-C6527FA75F3F";
name = Original;
shapes = (
{
closed = 1;
nodes = (
(259,0,ls),
(268,0,o),
(274,6,o),
(274,15,cs),
(274,228,l),
(324,228,l),
(324,15,ls),
(324,6,o),
(330,0,o),
(339,0,cs),
(553,0,ls),
(562,0,o),
(568,6,o),
(568,15,cs),
(568,571,ls),
(568,578,o),
(566,583,o),
(562,589,cs),
(420,791,ls),
(416,797,o),
(409,800,o),
(401,800,cs),
(196,800,ls),
(188,800,o),
(181,797,o),
(177,791,cs),
(36,589,ls),
(32,583,o),
(30,578,o),
(30,571,cs),
(30,15,ls),
(30,6,o),
(36,0,o),
(45,0,cs)
);
},
{
closed = 1;
nodes = (
(266,437,o),
(241,463,o),
(241,495,cs),
(241,527,o),
(266,553,o),
(298,553,cs),
(330,553,o),
(356,527,o),
(356,495,cs),
(356,463,o),
(330,437,o),
(298,437,cs)
);
}
);
width = 598;
},
{
anchors = (
{
name = bottom;
pos = (308,-30);
},
{
name = ogonek;
pos = (534,10);
},
{
name = top;
pos = (303,794);
}
);
associatedMasterId = m002;
layerId = "CE724D9E-50D4-4E90-B553-3E1D9AD2CCD1";
name = "Jun 2 22, 02:32";
shapes = (
{
closed = 1;
nodes = (
(259,0,ls),
(268,0,o),
(274,6,o),
(274,15,cs),
(274,228,l),
(332,228,l),
(332,15,ls),
(332,6,o),
(338,0,o),
(347,0,cs),
(561,0,ls),
(570,0,o),
(576,6,o),
(576,15,cs),
(576,571,ls),
(576,578,o),
(574,583,o),
(570,589,cs),
(428,791,ls),
(424,797,o),
(417,800,o),
(409,800,cs),
(196,800,ls),
(188,800,o),
(181,797,o),
(177,791,cs),
(36,589,ls),
(32,583,o),
(30,578,o),
(30,571,cs),
(30,15,ls),
(30,6,o),
(36,0,o),
(45,0,cs)
);
},
{
closed = 1;
nodes = (
(269,437,o),
(245,461,o),
(245,495,cs),
(245,529,o),
(269,553,o),
(303,553,cs),
(337,553,o),
(361,529,o),
(361,495,cs),
(361,461,o),
(337,437,o),
(303,437,cs)
);
}
);
width = 606;
},
{
anchors = (
{
name = bottom;
pos = (300,0);
},
{
name = ogonek;
pos = (560,0);
},
{
name = top;
pos = (300,800);
}
);
guides = (
{
angle = 90;
pos = (300,0);
showMeasurement = 1;
}
);
layerId = m002;
shapes = (
{
closed = 1;
nodes = (
(260,0,ls),
(269,0,o),
(275,6,o),
(275,15,cs),
(275,240,l),
(325,240,l),
(325,15,ls),
(325,6,o),
(331,0,o),
(340,0,cs),
(560,0,ls),
(569,0,o),
(575,6,o),
(575,15,cs),
(575,571,ls),
(575,578,o),
(573,583,o),
(569,589,cs),
(426,791,ls),
(422,797,o),
(415,800,o),
(407,800,cs),
(192,800,ls),
(184,800,o),
(177,797,o),
(173,791,cs),
(31,589,ls),
(27,583,o),
(25,578,o),
(25,571,cs),
(25,15,ls),
(25,6,o),
(31,0,o),
(40,0,cs)
);
},
{
closed = 1;
nodes = (
(266,448,o),
(242,472,o),
(242,506,cs),
(242,540,o),
(266,564,o),
(300,564,cs),
(334,564,o),
(358,540,o),
(358,506,cs),
(358,472,o),
(334,448,o),
(300,448,cs)
);
}
);
width = 600;
}
);
unicode = 65;
userData = {
KernOnName = A;
};
},
{
color = 8;
glyphname = "Alpha-latin";
lastChange = "2023-11-26 21:03:08 +0000";
layers = (
{
anchors = (
{
name = bottom;
pos = (313,0);
},
{
name = top;
pos = (313,800);
}
);
layerId = "462F72A0-0500-4E69-A49B-6C2F2580580D";
shapes = (
{
closed = 1;
nodes = (
(314,0,ls),
(324,0,o),
(331,3,o),
(338,10,cs),
(368,40,l),
(398,10,ls),
(404,4,o),
(408,0,o),
(418,0,cs),
(543,0,ls),
(552,0,o),
(558,6,o),
(558,15,cs),
(558,785,ls),
(558,794,o),
(552,800,o),
(543,800,cs),
(222,800,ls),
(212,800,o),
(205,797,o),
(198,790,cs),
(78,670,ls),
(71,663,o),
(68,656,o),
(68,646,cs),
(68,154,ls),
(68,144,o),
(71,137,o),
(78,130,cs),
(198,10,ls),
(205,3,o),
(212,0,o),
(222,0,cs)
);
},
{
closed = 1;
nodes = (
(266,140,o),
(258,149,o),
(258,175,cs),
(258,625,ls),
(258,651,o),
(266,660,o),
(292,660,cs),
(368,660,l),
(368,175,ls),
(368,149,o),
(360,140,o),
(334,140,cs),
(292,140,ls)
);
}
);
width = 626;
},
{
anchors = (
{
name = bottom;
pos = (270,0);
},
{
name = top;
pos = (270,800);
}
);
layerId = m002;
shapes = (
{
closed = 1;
nodes = (
(241,0,ls),
(251,0,o),
(258,3,o),
(265,10,cs),
(295,40,l),
(325,10,ls),
(332,3,o),
(338,0,o),
(349,0,cs),
(500,0,ls),
(509,0,o),
(515,6,o),
(515,15,cs),
(515,785,ls),
(515,794,o),
(509,800,o),
(500,800,cs),
(179,800,ls),
(169,800,o),
(162,797,o),
(155,790,cs),
(35,670,ls),
(28,663,o),
(25,656,o),
(25,646,cs),
(25,154,ls),
(25,144,o),
(28,137,o),
(35,130,cs),
(155,10,ls),
(162,3,o),
(169,0,o),
(179,0,cs)
);
},
{
closed = 1;
nodes = (
(253,200,o),
(245,209,o),
(245,225,cs),
(245,575,ls),
(245,591,o),
(254,600,o),
(270,600,cs),
(295,600,l),
(295,225,ls),
(295,209,o),
(287,200,o),
(271,200,cs),
(269,200,ls)
);
}
);
width = 540;
}
);
metricLeft = o;
metricRight = o;
unicode = 11373;
},
{
color = 8;
glyphname = Astroke;
lastChange = "2023-11-26 21:03:08 +0000";
layers = (
{
layerId = "462F72A0-0500-4E69-A49B-6C2F2580580D";
shapes = (
{
closed = 1;
nodes = (
(471,621,ls),
(479,621,o),
(485,623,o),
(489,631,cs),
(573,782,ls),
(579,793,o),
(573,800,o),
(562,800,cs),
(495,800,ls),
(487,800,o),
(481,798,o),
(477,790,cs),
(393,639,ls),
(387,628,o),
(392,621,o),
(403,621,cs)
);
},
{
closed = 1;
nodes = (
(123,-59,ls),
(131,-59,o),
(137,-57,o),
(141,-49,cs),
(225,102,ls),
(231,113,o),
(225,120,o),
(214,120,cs),
(147,120,ls),
(139,120,o),
(133,118,o),
(129,110,cs),
(45,-41,ls),
(39,-52,o),
(44,-59,o),
(55,-59,cs)
);
},
{
ref = A;
}
);
width = 564;
},
{
layerId = m002;
shapes = (
{
closed = 1;
nodes = (
(471,621,ls),
(479,621,o),
(485,623,o),
(489,631,cs),
(573,782,ls),
(579,793,o),
(573,800,o),
(562,800,cs),
(495,800,ls),
(487,800,o),
(481,798,o),
(477,790,cs),
(393,639,ls),
(387,628,o),
(392,621,o),
(403,621,cs)
);
},
{
closed = 1;
nodes = (
(123,-59,ls),
(131,-59,o),
(137,-57,o),
(141,-49,cs),
(225,102,ls),
(231,113,o),
(225,120,o),
(214,120,cs),
(147,120,ls),
(139,120,o),
(133,118,o),
(129,110,cs),
(45,-41,ls),
(39,-52,o),
(44,-59,o),
(55,-59,cs)
);
},
{
ref = A;
}
);
width = 564;
}
);
unicode = 570;
},
{
color = 8;
glyphname = AE;
kernLeft = KO_A;
kernRight = KO_E;
lastChange = "2023-11-26 21:03:08 +0000";
layers = (
{
anchors = (
{
name = bottom;
pos = (510,0);
},
{
name = top;
pos = (510,800);
}
);
annotations = (
{
pos = (854,522);
type = Arrow;
}
);
background = {
shapes = (
{
closed = 1;
nodes = (
(297,0,ls),
(306,0,o),
(312,6,o),
(312,15,cs),
(312,228,l),
(362,228,l),
(362,15,ls),
(362,6,o),
(368,0,o),
(377,0,cs),
(809,1,l),
(817,1,o),
(824,8,o),
(824,16,cs),
(824,218,ls),
(824,226,o),
(817,233,o),
(809,233,cs),
(609,233,l),
(609,279,l),
(795,279,ls),
(803,279,o),
(810,286,o),
(810,294,cs),
(810,487,ls),
(810,495,o),
(803,502,o),
(795,502,cs),
(609,502,l),
(609,556,l),
(795,556,ls),
(803,556,o),
(810,563,o),
(810,571,cs),
(810,785,ls),
(810,793,o),
(803,800,o),
(795,800,cs),
(234,800,ls),
(226,800,o),
(219,797,o),
(215,791,cs),
(74,589,ls),
(70,583,o),
(68,578,o),
(68,571,cs),
(68,15,ls),
(68,6,o),
(74,0,o),
(83,0,cs)
);
},
{
closed = 1;
nodes = (
(314,437,o),
(289,463,o),
(289,495,cs),
(289,527,o),
(314,553,o),
(346,553,cs),
(378,553,o),
(404,527,o),
(404,495,cs),
(404,463,o),
(378,437,o),
(346,437,cs)
);
}
);
};
layerId = "462F72A0-0500-4E69-A49B-6C2F2580580D";
shapes = (
{
closed = 1;
nodes = (
(253,0,ls),
(262,0,o),
(268,6,o),
(268,15,cs),
(268,270,l),
(402,270,l),
(402,15,ls),
(402,6,o),
(408,0,o),
(417,0,cs),
(836,0,ls),
(844,0,o),
(851,7,o),
(851,15,cs),
(851,145,ls),
(851,153,o),
(844,160,o),
(836,160,cs),
(603,160,l),
(603,330,l),
(816,330,ls),
(824,330,o),
(831,337,o),
(831,345,cs),
(831,455,ls),
(831,463,o),
(824,470,o),
(816,470,cs),
(603,470,l),
(603,640,l),
(836,640,ls),
(844,640,o),
(851,647,o),
(851,655,cs),
(851,785,ls),
(851,793,o),
(844,800,o),
(836,800,cs),
(235,800,ls),
(227,800,o),
(220,797,o),
(216,791,cs),
(74,589,ls),
(70,583,o),
(68,578,o),
(68,571,cs),
(68,15,ls),
(68,6,o),
(74,0,o),
(83,0,cs)
);
},
{
closed = 1;
nodes = (
(262,399,o),
(241,425,o),
(241,516,cs),
(241,607,o),
(262,633,o),
(335,633,cs),
(408,633,o),
(429,607,o),
(429,516,cs),
(429,425,o),
(408,399,o),
(335,399,cs)
);
}
);
width = 923;
},
{
anchors = (
{
name = bottom;
pos = (403,0);
},
{
name = top;
pos = (403,800);
}
);
annotations = (
{
pos = (854,522);
type = Arrow;
}
);
layerId = m002;
shapes = (
{
closed = 1;
nodes = (
(254,0,ls),
(263,0,o),
(269,6,o),
(269,15,cs),
(269,228,l),
(319,228,l),
(319,15,ls),
(319,6,o),
(325,0,o),
(334,0,cs),
(766,1,l),
(774,1,o),
(781,8,o),
(781,16,cs),
(781,218,ls),
(781,226,o),
(774,233,o),
(766,233,cs),
(566,233,l),
(566,279,l),
(752,279,ls),
(760,279,o),
(767,286,o),
(767,294,cs),
(767,487,ls),
(767,495,o),
(760,502,o),
(752,502,cs),
(566,502,l),
(566,556,l),
(752,556,ls),
(760,556,o),
(767,563,o),
(767,571,cs),
(767,785,ls),
(767,793,o),
(760,800,o),
(752,800,cs),
(191,800,ls),
(183,800,o),
(176,797,o),
(172,791,cs),
(31,589,ls),
(27,583,o),
(25,578,o),
(25,571,cs),
(25,15,ls),
(25,6,o),
(31,0,o),
(40,0,cs)
);
},
{
closed = 1;
nodes = (
(271,437,o),
(246,463,o),
(246,495,cs),
(246,527,o),
(271,553,o),
(303,553,cs),
(335,553,o),
(361,527,o),
(361,495,cs),
(361,463,o),
(335,437,o),
(303,437,cs)
);
}
);
width = 806;
}
);
metricLeft = A;
metricRight = E;
unicode = 198;
},
{
color = 8;
glyphname = B;
kernLeft = KO_B;
kernRight = KO_B;
lastChange = "2023-11-26 21:03:08 +0000";
layers = (
{
anchors = (
{
name = bottom;
pos = (332,0);
},
{
name = center;
pos = (325,400);
},
{
name = hook;
pos = (90,800);
},
{
name = top;
pos = (325,800);
}
);
guides = (
{
angle = 90;
pos = (329,685);
showMeasurement = 1;
},
{
angle = 180;
pos = (415,570);
showMeasurement = 1;
}
);
layerId = "462F72A0-0500-4E69-A49B-6C2F2580580D";
shapes = (
{
closed = 1;
nodes = (
(451,0,ls),
(461,0,o),
(468,3,o),
(475,10,cs),
(595,130,ls),
(602,137,o),
(605,144,o),
(605,154,cs),
(605,278,ls),
(605,286,o),
(602,289,o),
(595,296,cs),
(501,380,l),
(492,396,l),
(501,418,l),
(595,502,ls),
(602,509,o),
(605,512,o),
(605,520,cs),
(605,646,ls),
(605,656,o),
(602,663,o),
(595,670,cs),
(475,790,ls),
(468,797,o),
(461,800,o),
(451,800,cs),
(90,800,ls),
(81,800,o),
(75,794,o),
(75,785,cs),
(75,15,ls),
(75,6,o),
(81,0,o),
(90,0,cs)
);
},
{
closed = 1;
nodes = (
(263,135,o),
(243,156,o),
(243,230,cs),
(243,304,o),
(263,325,o),
(329,325,cs),
(395,325,o),
(415,304,o),
(415,230,cs),
(415,156,o),
(395,135,o),
(329,135,cs)
);
},
{
closed = 1;
nodes = (
(263,475,o),
(243,496,o),
(243,570,cs),
(243,644,o),
(263,665,o),
(329,665,cs),
(395,665,o),
(415,644,o),
(415,570,cs),
(415,496,o),
(395,475,o),
(329,475,cs)
);
}
);
width = 680;
},
{
anchors = (
{
name = bottom;
pos = (294,-30);
},
{
name = top;
pos = (294,800);
}
);
associatedMasterId = "462F72A0-0500-4E69-A49B-6C2F2580580D";
layerId = "026E329D-2B5C-4FE7-9435-E8D1099B0E0A";
name = Original;
shapes = (
{
closed = 1;
nodes = (
(273,474,o),
(250,497,o),
(250,526,cs),
(250,554,o),
(273,578,o),
(301,578,cs),
(330,578,o),
(353,554,o),
(353,526,cs),
(353,497,o),
(330,474,o),
(301,474,cs)
);
},
{
closed = 1;
nodes = (
(425,0,o),
(432,2,o),
(437,7,cs),
(571,133,ls),
(577,138,o),
(579,144,o),
(579,151,cs),
(579,319,ls),
(579,327,o),
(577,331,o),
(569,337,cs),
(475,416,l),
(475,454,l),
(569,533,ls),
(577,539,o),
(579,543,o),
(579,551,cs),
(579,649,ls),
(579,656,o),
(577,662,o),
(571,667,cs),
(437,793,ls),
(432,798,o),
(425,800,o),
(418,800,cs),
(45,800,ls),
(36,800,o),
(30,794,o),
(30,785,cs),
(30,15,ls),
(30,6,o),
(36,0,o),
(45,0,cs),
(418,0,ls)
);
},
{
closed = 1;
nodes = (
(274,201,o),
(250,226,o),
(250,256,cs),
(250,286,o),
(274,311,o),
(304,311,cs),
(334,311,o),
(359,286,o),
(359,256,cs),
(359,226,o),
(334,201,o),
(304,201,cs)
);
}
);
width = 603;
},
{
anchors = (
{
name = bottom;
pos = (294,-30);
},
{
name = top;
pos = (294,800);
}
);
associatedMasterId = "462F72A0-0500-4E69-A49B-6C2F2580580D";
layerId = "A7D4A0FD-8058-4D74-8696-0FC5069394CB";
name = "Jun 2 22, 03:23";
shapes = (
{
closed = 1;
nodes = (
(418,0,ls),
(425,0,o),
(432,2,o),
(437,7,cs),
(571,133,ls),
(577,138,o),
(579,144,o),
(579,151,cs),
(579,319,ls),
(579,327,o),
(577,331,o),
(569,337,cs),
(475,416,l),
(475,454,l),
(569,533,ls),
(577,539,o),
(579,543,o),
(579,551,cs),
(579,649,ls),
(579,656,o),
(577,662,o),
(571,667,cs),
(437,793,ls),
(432,798,o),
(425,800,o),
(418,800,cs),
(45,800,ls),
(36,800,o),
(30,794,o),
(30,785,cs),
(30,15,ls),
(30,6,o),
(36,0,o),
(45,0,cs)
);
},
{
closed = 1;
nodes = (
(273,201,o),
(250,224,o),
(250,256,cs),
(250,288,o),
(273,311,o),
(305,311,cs),
(337,311,o),
(360,288,o),
(360,256,cs),
(360,224,o),
(337,201,o),
(305,201,cs)
);
},
{
closed = 1;
nodes = (
(272,474,o),
(250,496,o),
(250,526,cs),
(250,556,o),
(272,578,o),
(302,578,cs),
(332,578,o),
(354,556,o),
(354,526,cs),
(354,496,o),
(332,474,o),
(302,474,cs)
);
}
);
width = 603;
},
{
anchors = (
{
name = bottom;
pos = (294,-30);
},
{
name = top;
pos = (294,800);
}
);
associatedMasterId = "462F72A0-0500-4E69-A49B-6C2F2580580D";
layerId = "FB87AFEF-1758-49B1-960F-0C92596B4041";
name = "Jun 4 22, 21:31";
shapes = (
{
closed = 1;
nodes = (
(45,800,ls),
(36,800,o),
(30,794,o),
(30,785,cs),
(30,15,ls),
(30,6,o),
(36,0,o),
(45,0,cs),
(418,0,ls),
(425,0,o),
(432,2,o),
(437,7,cs),
(571,133,ls),
(577,138,o),
(579,144,o),
(579,151,cs),
(579,319,ls),
(579,327,o),
(577,331,o),
(569,337,cs),
(475,416,l),
(475,454,l),
(569,533,ls),
(577,539,o),
(579,543,o),
(579,551,cs),
(579,644,ls),
(579,657,o),
(578,660,o),
(569,668,cs),
(431,792,ls),
(424,798,o),
(418,800,o),
(407,800,cs)
);
},
{
closed = 1;
nodes = (
(273,201,o),
(250,224,o),
(250,256,cs),
(250,288,o),
(273,311,o),
(305,311,cs),
(337,311,o),
(360,288,o),
(360,256,cs),
(360,224,o),
(337,201,o),
(305,201,cs)
);
},
{
closed = 1;
nodes = (
(272,474,o),
(250,496,o),
(250,526,cs),
(250,556,o),
(272,578,o),
(302,578,cs),
(332,578,o),
(354,556,o),
(354,526,cs),
(354,496,o),
(332,474,o),
(302,474,cs)
);
}
);
width = 599;
},
{
anchors = (
{
name = bottom;
pos = (289,0);
},
{
name = center;
pos = (300,400);
},
{
name = hook;
pos = (40,800);
},
{
name = top;
pos = (289,800);
}
);
layerId = m002;
shapes = (
{
closed = 1;
nodes = (
(421,0,ls),
(431,0,o),
(438,3,o),
(445,10,cs),
(565,130,ls),
(572,137,o),
(575,144,o),
(575,154,cs),
(575,278,ls),
(575,286,o),
(572,289,o),
(565,296,cs),
(471,380,l),
(461,402,l),
(471,418,l),
(565,502,ls),
(572,509,o),
(575,512,o),
(575,520,cs),
(575,646,ls),
(575,656,o),
(572,663,o),
(565,670,cs),
(445,790,ls),
(438,797,o),
(431,800,o),
(421,800,cs),
(40,800,ls),
(31,800,o),
(25,794,o),
(25,785,cs),
(25,15,ls),
(25,6,o),
(31,0,o),
(40,0,cs)
);
},
{
closed = 1;
nodes = (
(268,199,o),
(245,222,o),
(245,254,cs),
(245,286,o),
(268,309,o),
(300,309,cs),
(332,309,o),
(355,286,o),
(355,254,cs),
(355,222,o),
(332,199,o),
(300,199,cs)
);
},
{
closed = 1;
nodes = (
(267,494,o),
(245,516,o),
(245,546,cs),
(245,576,o),
(267,598,o),
(297,598,cs),
(327,598,o),
(349,576,o),
(349,546,cs),
(349,516,o),
(327,494,o),
(297,494,cs)
);
}
);
width = 600;
},
{
anchors = (
{
name = bottom;
pos = (294,-30);
},
{
name = top;
pos = (294,800);
}
);
associatedMasterId = m002;
layerId = "6044E806-160C-4F49-AC74-7B286697F244";
name = Original;
shapes = (
{
closed = 1;
nodes = (
(273,474,o),
(250,497,o),
(250,526,cs),
(250,554,o),
(273,578,o),
(301,578,cs),
(330,578,o),
(353,554,o),
(353,526,cs),
(353,497,o),
(330,474,o),
(301,474,cs)
);
},
{
closed = 1;
nodes = (
(425,0,o),
(432,2,o),
(437,7,cs),
(571,133,ls),
(577,138,o),
(579,144,o),
(579,151,cs),
(579,319,ls),
(579,327,o),
(577,331,o),
(569,337,cs),
(475,416,l),
(475,454,l),
(569,533,ls),
(577,539,o),
(579,543,o),
(579,551,cs),
(579,649,ls),
(579,656,o),
(577,662,o),
(571,667,cs),
(437,793,ls),
(432,798,o),
(425,800,o),
(418,800,cs),
(45,800,ls),
(36,800,o),
(30,794,o),
(30,785,cs),
(30,15,ls),
(30,6,o),
(36,0,o),
(45,0,cs),
(418,0,ls)
);
},
{
closed = 1;
nodes = (
(274,201,o),
(250,226,o),
(250,256,cs),
(250,286,o),
(274,311,o),
(304,311,cs),
(334,311,o),
(359,286,o),
(359,256,cs),
(359,226,o),
(334,201,o),
(304,201,cs)
);
}
);
width = 603;
},
{
anchors = (
{
name = bottom;
pos = (294,-30);
},
{
name = top;
pos = (294,800);
}
);
associatedMasterId = m002;
layerId = "E192DA36-82AF-41AE-A59D-356D41F5208E";
name = "Jun 2 22, 03:23";
shapes = (
{
closed = 1;
nodes = (
(418,0,ls),
(425,0,o),
(432,2,o),
(437,7,cs),
(571,133,ls),
(577,138,o),
(579,144,o),
(579,151,cs),
(579,319,ls),
(579,327,o),
(577,331,o),
(569,337,cs),
(475,416,l),
(475,454,l),
(569,533,ls),
(577,539,o),
(579,543,o),
(579,551,cs),
(579,649,ls),
(579,656,o),
(577,662,o),
(571,667,cs),
(437,793,ls),
(432,798,o),
(425,800,o),
(418,800,cs),
(45,800,ls),
(36,800,o),
(30,794,o),
(30,785,cs),
(30,15,ls),
(30,6,o),
(36,0,o),
(45,0,cs)
);
},
{
closed = 1;
nodes = (
(273,201,o),
(250,224,o),
(250,256,cs),
(250,288,o),
(273,311,o),
(305,311,cs),
(337,311,o),
(360,288,o),
(360,256,cs),
(360,224,o),
(337,201,o),
(305,201,cs)
);
},
{
closed = 1;
nodes = (
(272,474,o),
(250,496,o),
(250,526,cs),
(250,556,o),
(272,578,o),
(302,578,cs),
(332,578,o),
(354,556,o),
(354,526,cs),
(354,496,o),
(332,474,o),
(302,474,cs)
);
}
);
width = 603;
},
{
anchors = (
{
name = bottom;
pos = (294,-30);
},
{
name = top;
pos = (294,800);
}
);
associatedMasterId = m002;
layerId = "3C043604-51E2-49FC-AB65-872520E32A23";
name = "Jun 4 22, 21:31";
shapes = (
{
closed = 1;
nodes = (
(45,800,ls),
(36,800,o),
(30,794,o),
(30,785,cs),
(30,15,ls),
(30,6,o),
(36,0,o),
(45,0,cs),
(418,0,ls),
(425,0,o),
(432,2,o),
(437,7,cs),
(571,133,ls),
(577,138,o),
(579,144,o),
(579,151,cs),
(579,319,ls),
(579,327,o),
(577,331,o),
(569,337,cs),
(475,416,l),
(475,454,l),
(569,533,ls),
(577,539,o),
(579,543,o),
(579,551,cs),
(579,644,ls),
(579,657,o),
(578,660,o),
(569,668,cs),
(431,792,ls),
(424,798,o),
(418,800,o),
(407,800,cs)
);
},
{
closed = 1;
nodes = (
(273,201,o),
(250,224,o),
(250,256,cs),
(250,288,o),
(273,311,o),
(305,311,cs),
(337,311,o),
(360,288,o),
(360,256,cs),
(360,224,o),
(337,201,o),
(305,201,cs)
);
},
{
closed = 1;
nodes = (
(272,474,o),
(250,496,o),
(250,526,cs),
(250,556,o),
(272,578,o),
(302,578,cs),
(332,578,o),
(354,556,o),
(354,526,cs),
(354,496,o),
(332,474,o),
(302,474,cs)
);
}
);
width = 599;
}
);
unicode = 66;
userData = {
KernOnName = B;
};
},
{
color = 8;
glyphname = "Beta-latin";
lastChange = "2023-11-26 21:03:08 +0000";
layers = (
{
layerId = "462F72A0-0500-4E69-A49B-6C2F2580580D";
shapes = (
{
closed = 1;
nodes = (
(230,-200,ls),
(239,-200,o),
(245,-194,o),
(245,-185,cs),
(245,72,l),
(75,72,l),
(75,-185,ls),
(75,-194,o),
(81,-200,o),
(90,-200,cs)
);
},
{
ref = B;
}
);
width = 600;
},
{
layerId = m002;
shapes = (
{
closed = 1;
nodes = (
(260,-200,ls),
(269,-200,o),
(275,-194,o),
(275,-185,cs),
(275,72,l),
(25,72,l),
(25,-185,ls),
(25,-194,o),
(31,-200,o),
(40,-200,cs)
);
},
{
ref = B;
}
);
width = 600;
}
);
unicode = 42932;
},
{
color = 3;
glyphname = Bstroke;
kernRight = KO_B;
lastChange = "2024-01-07 19:01:20 +0000";
layers = (
{
anchors = (
{
name = bottom;
pos = (273,-30);
},
{
name = top;
pos = (273,800);
}
);
layerId = "462F72A0-0500-4E69-A49B-6C2F2580580D";
shapes = (
{
closed = 1;
nodes = (
(307,194,ls),
(316,194,o),
(322,200,o),
(322,209,cs),
(322,244,ls),
(322,253,o),
(316,259,o),
(307,259,cs),
(30,259,ls),
(21,259,o),
(15,253,o),
(15,244,cs),
(15,209,ls),
(15,200,o),
(21,194,o),
(30,194,cs)
);
},
{
ref = B;
}
);
width = 680;
},
{
anchors = (
{
name = bottom;
pos = (273,-30);
},
{
name = top;
pos = (273,800);
}
);
layerId = m002;
shapes = (
{
closed = 1;
nodes = (
(275,231,ls),
(284,231,o),
(290,237,o),
(290,246,cs),
(290,261,ls),
(290,270,o),
(284,276,o),
(275,276,cs),
(-2,276,ls),
(-11,276,o),
(-17,270,o),
(-17,261,cs),
(-17,246,ls),
(-17,237,o),
(-11,231,o),
(-2,231,cs)
);
},
{
ref = B;
}
);
width = 600;
}
);
metricRight = "=B";
unicode = 579;
},
{
color = 8;
glyphname = C;
kernLeft = KO_C;
kernRight = KO_C;
lastChange = "2023-11-26 21:03:08 +0000";
layers = (
{
anchors = (
{
name = bottom;
pos = (373,0);
},
{
name = hook;
pos = (462,785);
},
{
name = top;
pos = (357,800);
}
);
annotations = (
{
pos = (343.3,519.593);
text = "Alt C form as OPSZ changes";
type = Text;
}
);
background = {
shapes = (
{
closed = 1;
nodes = (
(437,0,ls),
(446,0,o),
(452,6,o),
(452,15,cs),
(452,111,ls),
(452,118,o),
(451,124,o),
(445,130,cs),
(372,197,l),
(270,292,l),
(270,508,l),
(364,595,l),
(445,670,ls),
(451,676,o),
(452,682,o),
(452,689,cs),
(452,785,ls),
(452,794,o),
(446,800,o),
(437,800,cs),
(289,800,ls),
(278,800,o),
(272,800,o),
(265,792,cs),
(186,703,l),
(80,584,ls),
(71,574,o),
(70,574,o),
(70,563,cs),
(70,237,ls),
(70,226,o),
(71,226,o),
(80,216,cs),
(200,81,l),
(265,8,ls),
(272,0,o),
(278,0,o),
(289,0,cs)
);
}
);
};
layerId = "462F72A0-0500-4E69-A49B-6C2F2580580D";
shapes = (
{
closed = 1;
nodes = (
(447,0,ls),
(456,0,o),
(462,6,o),
(462,15,cs),
(462,114,ls),
(462,120,o),
(461,126,o),
(455,130,cs),
(343,207,l),
(268,302,l),
(268,498,l),
(342,593,l),
(455,670,ls),
(462,675,o),
(462,682,o),
(462,689,cs),
(462,785,ls),
(462,794,o),
(456,800,o),
(447,800,cs),
(299,800,ls),
(286,800,o),
(283,799,o),
(275,792,cs),
(170,693,l),
(78,574,ls),
(70,564,o),
(68,564,o),
(68,553,cs),
(68,247,ls),
(68,236,o),
(69,237,o),
(78,226,cs),
(177,97,l),
(275,8,ls),
(283,1,o),
(288,0,o),
(299,0,cs)
);
}
);
width = 506;
},
{
anchors = (
{
name = bottom;
pos = (258,-30);
},
{
name = top;
pos = (261,800);
}
);
associatedMasterId = "462F72A0-0500-4E69-A49B-6C2F2580580D";
guides = (
{
angle = 36;
pos = (211,792);
}
);
layerId = "65B39F86-5EE6-440B-B327-ED1CEB56E318";
name = Original;
shapes = (
{
closed = 1;
nodes = (
(417,0,ls),
(426,0,o),
(432,6,o),
(432,15,cs),
(432,181,ls),
(432,188,o),
(432,194,o),
(426,199,cs),
(263,360,l),
(263,463,l),
(425,601,ls),
(431,606,o),
(432,613,o),
(432,620,cs),
(432,785,ls),
(432,794,o),
(426,800,o),
(417,800,cs),
(230,800,ls),
(223,800,o),
(217,797,o),
(211,792,cs),
(33,658,ls),
(27,653,o),
(26,646,o),
(26,639,cs),
(26,183,ls),
(26,176,o),
(28,169,o),
(33,164,cs),
(212,9,ls),
(218,4,o),
(223,0,o),
(230,0,cs)
);
}
);
visible = 1;
width = 456;
},
{
anchors = (
{
name = bottom;
pos = (258,-30);
},
{
name = top;
pos = (261,800);
}
);
associatedMasterId = "462F72A0-0500-4E69-A49B-6C2F2580580D";
layerId = "BCAA6981-C312-4F79-BE53-F0C5A59A84BC";
name = "Jun 2 22, 03:11";
shapes = (
{
closed = 1;
nodes = (
(417,0,ls),
(426,0,o),
(432,6,o),
(432,15,cs),
(432,181,ls),
(432,188,o),
(432,194,o),
(426,199,cs),
(263,360,l),
(263,463,l),
(425,601,ls),
(431,606,o),
(432,613,o),
(432,620,cs),
(432,785,ls),
(432,794,o),
(426,800,o),
(417,800,cs),
(210,800,ls),
(203,800,o),
(197,797,o),
(191,792,cs),
(33,668,ls),
(27,663,o),
(26,656,o),
(26,649,cs),
(26,157,ls),
(26,150,o),
(27,143,o),
(33,138,cs),
(192,9,ls),
(198,4,o),
(203,0,o),
(210,0,cs)
);
}
);
width = 456;
},
{
anchors = (
{
name = bottom;
pos = (258,-30);
},
{
name = top;
pos = (261,800);
}
);
associatedMasterId = "462F72A0-0500-4E69-A49B-6C2F2580580D";
layerId = "D6B5257E-5F55-4892-80AD-FBCFEA4263FA";
name = "Jun 2 22, 04:22";
shapes = (
{
closed = 1;
nodes = (
(417,0,ls),
(426,0,o),
(432,6,o),
(432,15,cs),
(432,181,ls),
(432,188,o),
(432,194,o),
(426,199,cs),
(263,340,l),
(263,460,l),
(425,600,ls),
(431,605,o),
(432,612,o),
(432,619,cs),
(432,785,ls),
(432,794,o),
(426,800,o),
(417,800,cs),
(198,800,ls),
(187,800,o),
(181,798,o),
(174,792,cs),
(36,668,ls),
(28,660,o),
(26,657,o),
(26,644,cs),
(26,156,ls),
(26,143,o),
(28,140,o),
(36,132,cs),
(174,8,ls),
(181,2,o),
(187,0,o),
(198,0,cs)
);
}
);
width = 456;
},
{
anchors = (
{
name = bottom;
pos = (258,-30);
},
{
name = top;
pos = (261,800);
}
);
associatedMasterId = "462F72A0-0500-4E69-A49B-6C2F2580580D";
layerId = "BAC76631-75AF-4195-A651-0C0738B71B08";
name = "Jun 3 22, 20:32";
shapes = (
{
closed = 1;
nodes = (
(417,0,ls),
(426,0,o),
(432,6,o),
(432,15,cs),
(432,181,ls),
(432,188,o),
(432,194,o),
(426,199,cs),
(263,340,l),
(263,460,l),
(425,600,ls),
(431,605,o),
(432,612,o),
(432,619,cs),
(432,785,ls),
(432,794,o),
(426,800,o),
(417,800,cs),
(208,800,ls),
(197,800,o),
(191,798,o),
(184,792,cs),
(36,672,ls),
(27,665,o),
(26,661,o),
(26,648,cs),
(26,152,ls),
(26,139,o),
(27,135,o),
(36,128,cs),
(184,8,ls),
(191,2,o),
(197,0,o),
(208,0,cs)
);
}
);
width = 456;
},
{
anchors = (
{
name = bottom;
pos = (258,-30);
},
{
name = top;
pos = (261,800);
}
);
associatedMasterId = "462F72A0-0500-4E69-A49B-6C2F2580580D";
layerId = "100B6ADC-98C3-474F-88FF-449FA7339194";
name = "Jun 4 22, 20:31";
shapes = (
{
closed = 1;
nodes = (
(417,0,ls),
(426,0,o),
(432,6,o),
(432,15,cs),
(432,181,ls),
(432,188,o),
(432,194,o),
(426,199,cs),
(263,340,l),
(263,460,l),
(425,600,ls),
(431,605,o),
(432,612,o),
(432,619,cs),
(432,785,ls),
(432,794,o),
(426,800,o),
(417,800,cs),
(240,800,ls),
(229,800,o),
(223,798,o),
(216,792,cs),
(36,644,ls),
(27,636,o),
(26,633,o),
(26,620,cs),
(26,180,ls),
(26,167,o),
(27,164,o),
(36,156,cs),
(212,8,ls),
(219,2,o),
(225,0,o),
(236,0,cs)
);
}
);
width = 456;
},
{
anchors = (
{
name = bottom;
pos = (258,-30);
},
{
name = top;
pos = (261,800);
}
);
associatedMasterId = "462F72A0-0500-4E69-A49B-6C2F2580580D";
layerId = "2FD3A8FC-5120-4476-BC37-0A4BF2D571B2";
name = "Jun 4 22, 20:33";
shapes = (
{
closed = 1;
nodes = (
(417,0,ls),
(426,0,o),
(432,6,o),
(432,15,cs),
(432,181,ls),
(432,188,o),
(432,194,o),
(426,199,cs),
(263,318,l),
(263,482,l),
(425,600,ls),
(431,605,o),
(432,612,o),
(432,619,cs),
(432,785,ls),
(432,794,o),
(426,800,o),
(417,800,cs),
(240,800,ls),
(229,800,o),
(224,797,o),
(216,792,cs),
(36,664,ls),
(26,657,o),
(26,653,o),
(26,640,cs),
(26,160,ls),
(26,147,o),
(27,143,o),
(36,136,cs),
(212,8,ls),
(219,3,o),
(225,0,o),
(236,0,cs)
);
}
);
width = 456;
},
{
anchors = (
{
name = bottom;
pos = (309,0);
},
{
name = hook;
pos = (422,785);
},
{
name = top;
pos = (315,800);
}
);
layerId = m002;
shapes = (
{
closed = 1;
nodes = (
(407,0,ls),
(416,0,o),
(422,6,o),
(422,15,cs),
(422,171,ls),
(422,178,o),
(421,184,o),
(415,190,cs),
(344,260,l),
(273,332,l),
(273,458,l),
(336,522,l),
(415,600,ls),
(421,606,o),
(422,612,o),
(422,619,cs),
(422,785,ls),
(422,794,o),
(416,800,o),
(407,800,cs),
(239,800,ls),
(228,800,o),
(222,799,o),
(215,792,cs),
(125,703,l),
(35,612,ls),
(26,603,o),
(25,601,o),
(25,588,cs),
(25,212,ls),
(25,199,o),
(26,197,o),
(35,188,cs),
(148,75,l),
(215,8,ls),
(222,1,o),
(228,0,o),
(239,0,cs)
);
}
);
width = 447;
},
{
anchors = (
{
name = bottom;
pos = (258,-30);
},
{
name = top;
pos = (261,800);
}
);
associatedMasterId = m002;
guides = (
{
angle = 36;
pos = (211,792);
}
);
layerId = "FD0DCE02-E4D2-4FF6-B039-92F98BE431B3";
name = Original;
shapes = (
{
closed = 1;
nodes = (
(417,0,ls),
(426,0,o),
(432,6,o),
(432,15,cs),
(432,181,ls),
(432,188,o),
(432,194,o),
(426,199,cs),
(263,360,l),
(263,463,l),
(425,601,ls),
(431,606,o),
(432,613,o),
(432,620,cs),
(432,785,ls),
(432,794,o),
(426,800,o),
(417,800,cs),
(230,800,ls),
(223,800,o),
(217,797,o),
(211,792,cs),
(33,658,ls),
(27,653,o),
(26,646,o),
(26,639,cs),
(26,183,ls),
(26,176,o),
(28,169,o),
(33,164,cs),
(212,9,ls),
(218,4,o),
(223,0,o),
(230,0,cs)
);
}
);
width = 456;
},
{
anchors = (
{
name = bottom;
pos = (258,-30);
},
{
name = top;
pos = (261,800);
}
);
associatedMasterId = m002;
layerId = "74252255-60F6-407D-9883-B1B63D73914A";
name = "Jun 2 22, 03:11";
shapes = (
{
closed = 1;
nodes = (
(417,0,ls),
(426,0,o),
(432,6,o),
(432,15,cs),
(432,181,ls),
(432,188,o),
(432,194,o),
(426,199,cs),
(263,360,l),
(263,463,l),
(425,601,ls),
(431,606,o),
(432,613,o),
(432,620,cs),
(432,785,ls),
(432,794,o),
(426,800,o),
(417,800,cs),
(210,800,ls),
(203,800,o),
(197,797,o),
(191,792,cs),
(33,668,ls),
(27,663,o),
(26,656,o),
(26,649,cs),
(26,157,ls),
(26,150,o),
(27,143,o),
(33,138,cs),
(192,9,ls),
(198,4,o),
(203,0,o),
(210,0,cs)
);
}
);
width = 456;
},
{
anchors = (
{
name = bottom;
pos = (258,-30);
},
{
name = top;
pos = (261,800);
}
);
associatedMasterId = m002;
layerId = "B64CC5A1-979B-4CB8-8238-8425D2DA3AE8";
name = "Jun 2 22, 04:22";
shapes = (
{
closed = 1;
nodes = (
(417,0,ls),
(426,0,o),
(432,6,o),
(432,15,cs),
(432,181,ls),
(432,188,o),
(432,194,o),
(426,199,cs),
(263,340,l),
(263,460,l),
(425,600,ls),
(431,605,o),
(432,612,o),
(432,619,cs),
(432,785,ls),
(432,794,o),
(426,800,o),
(417,800,cs),
(198,800,ls),
(187,800,o),
(181,798,o),
(174,792,cs),
(36,668,ls),
(28,660,o),
(26,657,o),
(26,644,cs),
(26,156,ls),
(26,143,o),
(28,140,o),
(36,132,cs),
(174,8,ls),
(181,2,o),
(187,0,o),
(198,0,cs)
);
}
);
width = 456;
},
{
anchors = (
{
name = bottom;
pos = (258,-30);
},
{
name = top;
pos = (261,800);
}
);
associatedMasterId = m002;
layerId = "FAAD6110-8B2F-4E39-891D-0CA798B0C08A";
name = "Jun 3 22, 20:32";
shapes = (
{
closed = 1;
nodes = (
(417,0,ls),
(426,0,o),
(432,6,o),
(432,15,cs),
(432,181,ls),
(432,188,o),
(432,194,o),
(426,199,cs),
(263,340,l),
(263,460,l),
(425,600,ls),
(431,605,o),
(432,612,o),
(432,619,cs),
(432,785,ls),
(432,794,o),
(426,800,o),
(417,800,cs),
(208,800,ls),
(197,800,o),
(191,798,o),
(184,792,cs),
(36,672,ls),
(27,665,o),
(26,661,o),
(26,648,cs),
(26,152,ls),
(26,139,o),
(27,135,o),
(36,128,cs),
(184,8,ls),
(191,2,o),
(197,0,o),
(208,0,cs)
);
}
);
width = 456;
},
{
anchors = (
{
name = bottom;
pos = (258,-30);
},
{
name = top;
pos = (261,800);
}
);
associatedMasterId = m002;
layerId = "241990E6-CC3F-47DD-95AA-672473D7E0BE";
name = "Jun 4 22, 20:31";
shapes = (
{
closed = 1;
nodes = (
(417,0,ls),
(426,0,o),
(432,6,o),
(432,15,cs),
(432,181,ls),
(432,188,o),
(432,194,o),
(426,199,cs),
(263,340,l),
(263,460,l),
(425,600,ls),
(431,605,o),
(432,612,o),
(432,619,cs),
(432,785,ls),
(432,794,o),
(426,800,o),
(417,800,cs),
(240,800,ls),
(229,800,o),
(223,798,o),
(216,792,cs),
(36,644,ls),
(27,636,o),
(26,633,o),
(26,620,cs),
(26,180,ls),
(26,167,o),
(27,164,o),
(36,156,cs),
(212,8,ls),
(219,2,o),
(225,0,o),
(236,0,cs)
);
}
);
width = 456;
},
{
anchors = (
{
name = bottom;
pos = (258,-30);
},
{
name = top;
pos = (261,800);
}
);
associatedMasterId = m002;
layerId = "9F4A8126-B245-40F8-88E1-D8CD69F7D0ED";
name = "Jun 4 22, 20:33";
shapes = (
{
closed = 1;
nodes = (
(417,0,ls),
(426,0,o),
(432,6,o),
(432,15,cs),
(432,181,ls),
(432,188,o),
(432,194,o),
(426,199,cs),
(263,318,l),
(263,482,l),
(425,600,ls),
(431,605,o),
(432,612,o),
(432,619,cs),
(432,785,ls),
(432,794,o),
(426,800,o),
(417,800,cs),
(240,800,ls),
(229,800,o),
(224,797,o),
(216,792,cs),
(36,664,ls),
(26,657,o),
(26,653,o),
(26,640,cs),
(26,160,ls),
(26,147,o),
(27,143,o),
(36,136,cs),
(212,8,ls),
(219,3,o),
(225,0,o),
(236,0,cs)
);
}
);
width = 456;
}
);
unicode = 67;
userData = {
KernOnName = C;
};
},
{
color = 8;
glyphname = "Chi-latin";
lastChange = "2023-11-26 21:03:08 +0000";
layers = (
{
layerId = "462F72A0-0500-4E69-A49B-6C2F2580580D";
shapes = (
{
closed = 1;
nodes = (
(325,-40,ls),
(334,-40,o),
(340,-34,o),
(340,-25,cs),
(340,291,l),
(476,291,l),
(476,113,ls),
(476,103,o),
(479,96,o),
(486,89,cs),
(606,-30,ls),
(613,-37,o),
(620,-40,o),
(630,-40,cs),
(731,-40,ls),
(740,-40,o),
(746,-34,o),
(746,-25,cs),
(746,95,ls),
(746,104,o),
(740,110,o),
(731,110,cs),
(676,110,l),
(676,263,ls),
(676,270,o),
(676,275,o),
(670,281,cs),
(592,359,l),
(592,380,l),
(672,460,ls),
(678,466,o),
(678,471,o),
(678,478,cs),
(678,785,ls),
(678,794,o),
(672,800,o),
(663,800,cs),
(493,800,ls),
(484,800,o),
(478,794,o),
(478,785,cs),
(478,451,l),
(338,451,l),
(338,646,ls),
(338,656,o),
(335,663,o),
(328,670,cs),
(208,790,ls),
(201,797,o),
(194,800,o),
(184,800,cs),
(83,800,ls),
(74,800,o),
(68,794,o),
(68,785,cs),
(68,665,ls),
(68,656,o),
(74,650,o),
(83,650,cs),
(138,650,l),
(138,478,ls),
(138,471,o),
(138,466,o),
(144,460,cs),
(224,380,l),
(224,359,l),
(146,281,ls),
(140,275,o),
(140,270,o),
(140,263,cs),
(140,-25,ls),
(140,-34,o),
(146,-40,o),
(155,-40,cs)
);
}
);
width = 814;
},
{
layerId = m002;
shapes = (
{
closed = 1;
nodes = (
(312,-40,ls),
(321,-40,o),
(327,-34,o),
(327,-25,cs),
(327,251,l),
(373,251,l),
(373,113,ls),
(373,103,o),
(376,96,o),
(383,89,cs),
(503,-30,ls),
(510,-37,o),
(517,-40,o),
(527,-40,cs),
(658,-40,ls),
(667,-40,o),
(673,-34,o),
(673,-25,cs),
(673,85,ls),
(673,94,o),
(667,100,o),
(658,100,cs),
(623,100,l),
(623,263,ls),
(623,270,o),
(623,275,o),
(617,281,cs),
(539,359,l),
(539,380,l),
(619,460,ls),
(625,466,o),
(625,471,o),
(625,478,cs),
(625,785,ls),
(625,794,o),
(619,800,o),
(610,800,cs),
(390,800,ls),
(381,800,o),
(375,794,o),
(375,785,cs),
(375,491,l),
(325,491,l),
(325,646,ls),
(325,656,o),
(322,663,o),
(315,670,cs),
(195,790,ls),
(188,797,o),
(181,800,o),
(171,800,cs),
(40,800,ls),
(31,800,o),
(25,794,o),
(25,785,cs),
(25,675,ls),
(25,666,o),
(31,660,o),
(40,660,cs),
(75,660,l),
(75,478,ls),
(75,471,o),
(75,466,o),
(81,460,cs),
(161,380,l),
(161,359,l),
(83,281,ls),
(77,275,o),
(77,270,o),
(77,263,cs),
(77,-25,ls),
(77,-34,o),
(83,-40,o),
(92,-40,cs)
);
}
);
width = 698;
}
);
metricLeft = o;
metricRight = o;
unicode = 42931;
},
{
color = 8;
glyphname = Cstroke;
lastChange = "2023-11-26 21:03:08 +0000";
layers = (
{
layerId = "462F72A0-0500-4E69-A49B-6C2F2580580D";
shapes = (
{
closed = 1;
nodes = (
(260,-66,l),
(460,891,l),
(427,891,l),
(227,-66,l)
);
},
{
ref = C;
}
);
width = 506;
},
{
layerId = m002;
shapes = (
{
closed = 1;
nodes = (
(240,-66,l),
(440,891,l),
(407,891,l),
(207,-66,l)
);
},
{
ref = C;
}
);
width = 465;
}
);
metricLeft = "=C";
metricRight = "=C";
unicode = 571;
},
{
color = 8;
glyphname = D;
kernLeft = KO_D;
kernRight = KO_O;
lastChange = "2023-11-26 21:03:08 +0000";
layers = (
{
anchors = (
{
name = bottom;
pos = (283,-30);
},
{
name = center;
pos = (295,400);
},
{
name = top;
pos = (295,800);
}
);
annotations = (
{
pos = (402,631);
text = "Roundness of edges not alligned with /O";
type = Text;
width = 105;
}
);
associatedMasterId = "462F72A0-0500-4E69-A49B-6C2F2580580D";
layerId = "FCB09AC3-96D3-4C18-A47A-989C3C1E00D9";
name = "Jun 2 22, 02:44";
shapes = (
{
closed = 1;
nodes = (
(30,15,ls),
(30,7,o),
(37,0,o),
(45,0,cs),
(448,0,ls),
(452,0,o),
(457,2,o),
(459,5,cs),
(572,159,ls),
(573,161,o),
(574,164,o),
(574,166,cs),
(574,629,ls),
(574,631,o),
(573,633,o),
(571,636,cs),
(442,795,ls),
(440,798,o),
(436,800,o),
(432,800,cs),
(45,800,ls),
(37,800,o),
(30,793,o),
(30,785,cs)
);
},
{
closed = 1;
nodes = (
(322,575,o),
(331,557,o),
(331,524,cs),
(331,276,ls),
(331,245,o),
(318,228,o),
(301,228,cs),
(275,228,l),
(275,575,l),
(301,575,ls)
);
}
);
width = 602;
},
{
anchors = (
{
name = bottom;
pos = (290,-30);
},
{
name = center;
pos = (302,400);
},
{
name = top;
pos = (302,800);
}
);
annotations = (
{
pos = (402,631);
text = "Roundness of edges not alligned with /O";
type = Text;
width = 105;
}
);
associatedMasterId = "462F72A0-0500-4E69-A49B-6C2F2580580D";
guides = (
{
angle = 90;
pos = (306,0);
showMeasurement = 1;
}
);
layerId = "47B87325-F592-43BF-923A-1C9BC43172A6";
name = "Jul 29 22, 20:56";
shapes = (
{
closed = 1;
nodes = (
(30,15,ls),
(30,7,o),
(37,0,o),
(45,0,cs),
(460,0,ls),
(464,0,o),
(469,2,o),
(471,5,cs),
(584,159,ls),
(585,161,o),
(586,164,o),
(586,166,cs),
(586,629,ls),
(586,631,o),
(585,633,o),
(583,636,cs),
(454,795,ls),
(452,798,o),
(448,800,o),
(444,800,cs),
(45,800,ls),
(37,800,o),
(30,793,o),
(30,785,cs)
);
},
{
closed = 1;
nodes = (
(286,226,o),
(274,238,o),
(274,260,cs),
(274,540,ls),
(274,562,o),
(286,574,o),
(306,574,cs),
(326,574,o),
(338,562,o),
(338,540,cs),
(338,260,ls),
(338,238,o),
(326,226,o),
(306,226,cs)
);
}
);
width = 612;
},
{
anchors = (
{
name = bottom;
pos = (296,0);
},
{
name = center;
pos = (380,400);
},
{
name = hook;
pos = (83,800);
},
{
name = top;
pos = (296,800);
}
);
annotations = (
{
pos = (82,899);
text = "Roundness of edges not alligned with /O";
type = Text;
width = 105;
}
);
background = {
shapes = (
{
pos = (8,0);
ref = O;
}
);
};
guides = (
{
angle = 90;
pos = (336,0);
showMeasurement = 1;
}
);
layerId = "462F72A0-0500-4E69-A49B-6C2F2580580D";
shapes = (
{
closed = 1;
nodes = (
(449,0,ls),
(459,0,o),
(466,3,o),
(473,10,cs),
(593,130,ls),
(600,137,o),
(603,144,o),
(603,154,cs),
(603,646,ls),
(603,656,o),
(600,663,o),
(593,670,cs),
(473,790,ls),
(466,797,o),
(459,800,o),
(449,800,cs),
(83,800,ls),
(74,800,o),
(68,794,o),
(68,785,cs),
(68,15,ls),
(68,6,o),
(74,0,o),
(83,0,cs)
);
},
{
closed = 1;
nodes = (
(268,640,l),
(378,640,ls),
(396,640,o),
(403,628,o),
(403,606,cs),
(403,194,ls),
(403,172,o),
(396,160,o),
(378,160,cs),
(268,160,l)
);
}
);
width = 671;
},
{
anchors = (
{
name = bottom;
pos = (283,-30);
},
{
name = center;
pos = (295,400);
},
{
name = top;
pos = (295,800);
}
);
annotations = (
{
pos = (402,631);
text = "Roundness of edges not alligned with /O";
type = Text;
width = 105;
}
);
associatedMasterId = m002;
layerId = "2B3C299C-6DE6-4D55-8B7E-7EBB93716D67";
name = "Jun 2 22, 02:44";
shapes = (
{
closed = 1;
nodes = (
(30,15,ls),
(30,7,o),
(37,0,o),
(45,0,cs),
(448,0,ls),
(452,0,o),
(457,2,o),
(459,5,cs),
(572,159,ls),
(573,161,o),
(574,164,o),
(574,166,cs),
(574,629,ls),
(574,631,o),
(573,633,o),
(571,636,cs),
(442,795,ls),
(440,798,o),
(436,800,o),
(432,800,cs),
(45,800,ls),
(37,800,o),
(30,793,o),
(30,785,cs)
);
},
{
closed = 1;
nodes = (
(322,575,o),
(331,557,o),
(331,524,cs),
(331,276,ls),
(331,245,o),
(318,228,o),
(301,228,cs),
(275,228,l),
(275,575,l),
(301,575,ls)
);
}
);
width = 602;
},
{
anchors = (
{
name = bottom;
pos = (290,-30);
},
{
name = center;
pos = (302,400);
},
{
name = top;
pos = (302,800);
}
);
annotations = (
{
pos = (402,631);
text = "Roundness of edges not alligned with /O";
type = Text;
width = 105;
}
);
associatedMasterId = m002;
guides = (
{
angle = 90;
pos = (306,0);
showMeasurement = 1;
}
);
layerId = "8F505C39-5528-4471-91DC-39DACB956F93";
name = "Jul 29 22, 20:56";
shapes = (
{
closed = 1;
nodes = (
(30,15,ls),
(30,7,o),
(37,0,o),
(45,0,cs),
(460,0,ls),
(464,0,o),
(469,2,o),
(471,5,cs),
(584,159,ls),
(585,161,o),
(586,164,o),
(586,166,cs),
(586,629,ls),
(586,631,o),
(585,633,o),
(583,636,cs),
(454,795,ls),
(452,798,o),
(448,800,o),
(444,800,cs),
(45,800,ls),
(37,800,o),
(30,793,o),
(30,785,cs)
);
},
{
closed = 1;
nodes = (
(286,226,o),
(274,238,o),
(274,260,cs),
(274,540,ls),
(274,562,o),
(286,574,o),
(306,574,cs),
(326,574,o),
(338,562,o),
(338,540,cs),
(338,260,ls),
(338,238,o),
(326,226,o),
(306,226,cs)
);
}
);
width = 612;
},
{
anchors = (
{
name = bottom;
pos = (266,0);
},
{
name = center;
pos = (302,400);
},
{
name = hook;
pos = (40,800);
},
{
name = top;
pos = (270,800);
}
);
annotations = (
{
pos = (402,631);
text = "Roundness of edges not alligned with /O";
type = Text;
width = 105;
}
);
guides = (
{
angle = 90;
pos = (306,0);
showMeasurement = 1;
}
);
layerId = m002;
shapes = (
{
closed = 1;
nodes = (
(421,0,ls),
(431,0,o),
(438,3,o),
(445,10,cs),
(565,130,ls),
(572,137,o),
(575,144,o),
(575,154,cs),
(575,646,ls),
(575,656,o),
(572,663,o),
(565,670,cs),
(445,790,ls),
(438,797,o),
(431,800,o),
(421,800,cs),
(40,800,ls),
(31,800,o),
(25,794,o),
(25,785,cs),
(25,15,ls),
(25,6,o),
(31,0,o),
(40,0,cs)
);
},
{
closed = 1;
nodes = (
(275,560,l),
(300,560,ls),
(318,560,o),
(325,548,o),
(325,526,cs),
(325,274,ls),
(325,252,o),
(318,240,o),
(300,240,cs),
(275,240,l)
);
}
);
width = 600;
}
);
unicode = 68;
},
{
color = 8;
glyphname = Dtopbar;
lastChange = "2023-11-26 21:03:08 +0000";
layers = (
{
anchors = (
{
name = bottom;
pos = (326,0);
},
{
name = top;
pos = (326,800);
}
);
layerId = "462F72A0-0500-4E69-A49B-6C2F2580580D";
shapes = (
{
closed = 1;
nodes = (
(448,0,ls),
(456,0,o),
(463,3,o),
(467,8,cs),
(577,122,ls),
(582,128,o),
(584,134,o),
(584,141,cs),
(584,800,l),
(77,800,l),
(77,640,l),
(394,640,l),
(394,468,l),
(68,468,l),
(68,141,ls),
(68,134,o),
(70,128,o),
(75,122,cs),
(185,8,ls),
(189,3,o),
(196,0,o),
(204,0,cs)
);
},
{
closed = 1;
nodes = (
(276,160,o),
(258,174,o),
(258,212,cs),
(258,325,l),
(394,325,l),
(394,212,ls),
(394,175,o),
(374,160,o),
(326,160,cs)
);
}
);
width = 652;
},
{
anchors = (
{
name = bottom;
pos = (278,0);
},
{
name = top;
pos = (278,800);
}
);
layerId = m002;
shapes = (
{
closed = 1;
nodes = (
(395,0,ls),
(402,0,o),
(409,2,o),
(414,8,cs),
(524,122,ls),
(529,128,o),
(531,134,o),
(531,141,cs),
(531,801,l),
(34,799,l),
(34,599,l),
(293,599,l),
(293,478,l),
(25,478,l),
(25,141,ls),
(25,134,o),
(27,128,o),
(32,122,cs),
(142,8,ls),
(147,2,o),
(154,0,o),
(161,0,cs)
);
},
{
closed = 1;
nodes = (
(251,205,o),
(242,218,o),
(242,237,cs),
(242,315,l),
(293,315,l),
(293,237,ls),
(293,218,o),
(282,205,o),
(267,205,cs)
);
}
);
width = 556;
}
);
metricLeft = d;
metricRight = d;
unicode = 395;
},
{
color = 8;
glyphname = Eth;
kernLeft = KO_Eth;
kernRight = KO_O;
lastChange = "2023-11-26 21:03:08 +0000";
layers = (
{
layerId = "462F72A0-0500-4E69-A49B-6C2F2580580D";
shapes = (
{
pos = (48,0);
ref = D;
},
{
closed = 1;
nodes = (
(394,345,ls),
(403,345,o),
(409,351,o),
(409,360,cs),
(409,440,ls),
(409,449,o),
(403,455,o),
(394,455,cs),
(58,455,ls),
(49,455,o),
(43,449,o),
(43,440,cs),
(43,360,ls),
(43,351,o),
(49,345,o),
(58,345,cs)
);
}
);
width = 719;
},
{
layerId = m002;
shapes = (
{
pos = (25,0);
ref = D;
},
{
closed = 1;
nodes = (
(316,335,ls),
(325,335,o),
(331,341,o),
(331,350,cs),
(331,450,ls),
(331,459,o),
(325,465,o),
(316,465,cs),
(15,465,ls),
(6,465,o),
(0,459,o),
(0,450,cs),
(0,350,ls),
(0,341,o),
(6,335,o),
(15,335,cs)
);
}
);
width = 625;
}
);
metricLeft = "=D-25";
metricRight = "=D";
unicode = 208;
},
{
color = 8;
glyphname = E;
kernLeft = KO_H;
kernRight = KO_E;
lastChange = "2023-11-26 21:03:08 +0000";
layers = (
{
anchors = (
{
name = bottom;
pos = (305,0);
},
{
name = ogonek;
pos = (505,0);
},
{
name = top;
pos = (305,800);
},
{
name = topleft;
pos = (77,800);
}
);
guides = (
{
angle = 90;
pos = (520,0);
showMeasurement = 1;
}
);
layerId = "462F72A0-0500-4E69-A49B-6C2F2580580D";
shapes = (
{
closed = 1;
nodes = (
(505,0,ls),
(513,0,o),
(520,7,o),
(520,15,cs),
(520,145,ls),
(520,153,o),
(513,160,o),
(505,160,cs),
(272,160,l),
(272,330,l),
(485,330,ls),
(493,330,o),
(500,337,o),
(500,345,cs),
(500,455,ls),
(500,463,o),
(493,470,o),
(485,470,cs),
(272,470,l),
(272,640,l),
(505,640,ls),
(513,640,o),
(520,647,o),
(520,655,cs),
(520,785,ls),
(520,793,o),
(513,800,o),
(505,800,cs),
(87,800,ls),
(79,800,o),
(72,793,o),
(72,785,cs),
(72,15,ls),
(72,7,o),
(79,0,o),
(87,0,cs)
);
}
);
width = 592;
},
{
anchors = (
{
name = bottom;
pos = (257,-21);
},
{
name = ogonek;
pos = (455,10);
},
{
name = top;
pos = (257,800);
},
{
name = topleft;
pos = (29,800);
}
);
associatedMasterId = "462F72A0-0500-4E69-A49B-6C2F2580580D";
layerId = "555E0F49-C987-4FA7-8787-B2B27C2C2F9C";
name = "Jun 2 22, 18:31";
shapes = (
{
closed = 1;
nodes = (
(478,785,ls),
(478,793,o),
(471,800,o),
(463,800,cs),
(45,800,ls),
(37,800,o),
(30,793,o),
(30,785,cs),
(30,15,ls),
(30,7,o),
(37,0,o),
(45,0,cs),
(477,1,ls),
(485,1,o),
(492,8,o),
(492,16,cs),
(492,218,ls),
(492,226,o),
(485,233,o),
(477,233,cs),
(277,233,l),
(277,279,l),
(463,279,ls),
(471,279,o),
(478,286,o),
(478,294,cs),
(478,487,ls),
(478,495,o),
(471,502,o),
(463,502,cs),
(277,502,l),
(277,556,l),
(463,556,ls),
(471,556,o),
(478,563,o),
(478,571,cs)
);
}
);
width = 505;
},
{
anchors = (
{
name = bottom;
pos = (257,-21);
},
{
name = ogonek;
pos = (455,10);
},
{
name = top;
pos = (257,800);
},
{
name = topleft;
pos = (29,800);
}
);
associatedMasterId = "462F72A0-0500-4E69-A49B-6C2F2580580D";
layerId = "F86F8B87-007E-489F-894F-041A372F0069";
name = "Jul 30 22, 02:22";
shapes = (
{
closed = 1;
nodes = (
(478,785,ls),
(478,793,o),
(471,800,o),
(463,800,cs),
(45,800,ls),
(37,800,o),
(30,793,o),
(30,785,cs),
(30,15,ls),
(30,7,o),
(37,0,o),
(45,0,cs),
(477,1,ls),
(485,1,o),
(492,8,o),
(492,16,cs),
(492,218,ls),
(492,226,o),
(485,233,o),
(477,233,cs),
(277,233,l),
(277,279,l),
(463,279,ls),
(471,279,o),
(478,286,o),
(478,294,cs),
(478,487,ls),
(478,495,o),
(471,502,o),
(463,502,cs),
(277,502,l),
(277,556,l),
(463,556,ls),
(471,556,o),
(478,563,o),
(478,571,cs)
);
}
);
width = 508;
},
{
anchors = (
{
name = bottom;
pos = (258,-21);
},
{
name = ogonek;
pos = (456,10);
},
{
name = top;
pos = (258,800);
},
{
name = topleft;
pos = (30,800);
}
);
guides = (
{
angle = 90;
pos = (473,0);
showMeasurement = 1;
}
);
layerId = m002;
shapes = (
{
closed = 1;
nodes = (
(458,0,ls),
(466,0,o),
(473,7,o),
(473,15,cs),
(473,225,ls),
(473,233,o),
(466,240,o),
(458,240,cs),
(275,240,l),
(275,290,l),
(458,290,ls),
(466,290,o),
(473,297,o),
(473,305,cs),
(473,495,ls),
(473,503,o),
(466,510,o),
(458,510,cs),
(275,510,l),
(275,560,l),
(458,560,ls),
(466,560,o),
(473,567,o),
(473,575,cs),
(473,785,ls),
(473,793,o),
(466,800,o),
(458,800,cs),
(40,800,ls),
(32,800,o),
(25,793,o),
(25,785,cs),
(25,15,ls),
(25,7,o),
(32,0,o),
(40,0,cs)
);
}
);
width = 498;
},
{
anchors = (
{
name = bottom;
pos = (257,-21);
},
{
name = ogonek;
pos = (455,10);
},
{
name = top;
pos = (257,800);
},
{
name = topleft;
pos = (29,800);
}
);
associatedMasterId = m002;
layerId = "4C791BA3-ECCF-4F29-9914-38D7C00E2916";
name = "Jun 2 22, 18:31";
shapes = (
{
closed = 1;
nodes = (
(478,785,ls),
(478,793,o),
(471,800,o),
(463,800,cs),
(45,800,ls),
(37,800,o),
(30,793,o),
(30,785,cs),
(30,15,ls),
(30,7,o),
(37,0,o),
(45,0,cs),
(477,1,ls),
(485,1,o),
(492,8,o),
(492,16,cs),
(492,218,ls),
(492,226,o),
(485,233,o),
(477,233,cs),
(277,233,l),
(277,279,l),
(463,279,ls),
(471,279,o),
(478,286,o),
(478,294,cs),
(478,487,ls),
(478,495,o),
(471,502,o),
(463,502,cs),
(277,502,l),
(277,556,l),
(463,556,ls),
(471,556,o),
(478,563,o),
(478,571,cs)
);
}
);
width = 505;
},
{
anchors = (
{
name = bottom;
pos = (257,-21);
},
{
name = ogonek;
pos = (455,10);
},
{
name = top;
pos = (257,800);
},
{
name = topleft;
pos = (29,800);
}
);
associatedMasterId = m002;
layerId = "AE38E9B8-E975-4F64-9178-E16597981D15";
name = "Jul 30 22, 02:22";
shapes = (
{
closed = 1;
nodes = (
(478,785,ls),
(478,793,o),
(471,800,o),
(463,800,cs),
(45,800,ls),
(37,800,o),
(30,793,o),
(30,785,cs),
(30,15,ls),
(30,7,o),
(37,0,o),
(45,0,cs),
(477,1,ls),
(485,1,o),
(492,8,o),
(492,16,cs),
(492,218,ls),
(492,226,o),
(485,233,o),
(477,233,cs),
(277,233,l),
(277,279,l),
(463,279,ls),
(471,279,o),
(478,286,o),
(478,294,cs),
(478,487,ls),
(478,495,o),
(471,502,o),
(463,502,cs),
(277,502,l),
(277,556,l),
(463,556,ls),
(471,556,o),
(478,563,o),
(478,571,cs)
);
}
);
width = 508;
}
);
metricLeft = H;
metricRight = H;
unicode = 69;
userData = {
KernOnName = E;
};
},
{
color = 8;
glyphname = Eopen;
kernRight = KO_K;
lastChange = "2023-11-26 21:03:08 +0000";
layers = (
{
layerId = "462F72A0-0500-4E69-A49B-6C2F2580580D";
shapes = (
{
closed = 1;
nodes = (
(368,0,ls),
(377,0,o),
(383,6,o),
(383,15,cs),
(383,122,ls),
(383,130,o),
(380,136,o),
(374,140,cs),
(255,222,l),
(255,297,l),
(342,366,ls),
(349,371,o),
(353,376,o),
(353,385,cs),
(353,407,ls),
(353,416,o),
(348,422,o),
(342,426,cs),
(257,485,l),
(257,570,l),
(374,654,ls),
(380,659,o),
(383,664,o),
(383,672,cs),
(383,785,ls),
(383,794,o),
(377,800,o),
(368,800,cs),
(230,800,ls),
(223,800,o),
(218,799,o),
(212,794,cs),
(63,671,ls),
(57,666,o),
(54,661,o),
(54,653,cs),
(54,479,ls),
(54,471,o),
(60,471,o),
(74,461,cs),
(146,409,l),
(146,376,l),
(63,313,ls),
(57,308,o),
(54,303,o),
(54,295,cs),
(54,151,ls),
(54,143,o),
(61,145,o),
(73,133,cs),
(204,6,ls),
(210,1,o),
(215,0,o),
(222,0,cs)
);
}
);
width = 437;
},
{
layerId = m002;
shapes = (
{
closed = 1;
nodes = (
(359,0,ls),
(368,0,o),
(374,6,o),
(374,15,cs),
(374,152,ls),
(374,160,o),
(370,164,o),
(365,170,cs),
(256,292,l),
(256,309,l),
(333,368,ls),
(340,373,o),
(344,376,o),
(344,385,cs),
(344,407,ls),
(344,416,o),
(340,420,o),
(333,424,cs),
(258,473,l),
(258,490,l),
(365,614,ls),
(370,620,o),
(374,624,o),
(374,632,cs),
(374,785,ls),
(374,794,o),
(368,800,o),
(359,800,cs),
(161,800,ls),
(154,800,o),
(148,800,o),
(143,794,cs),
(34,681,ls),
(29,675,o),
(25,671,o),
(25,663,cs),
(25,459,ls),
(25,451,o),
(28,445,o),
(35,441,cs),
(107,399,l),
(107,386,l),
(34,333,ls),
(28,328,o),
(25,323,o),
(25,315,cs),
(25,141,ls),
(25,133,o),
(29,129,o),
(34,123,cs),
(125,6,ls),
(130,0,o),
(136,0,o),
(143,0,cs)
);
}
);
width = 399;
}
);
metricLeft = S;
metricRight = S;
unicode = 400;
},
{
color = 8;
glyphname = Esh;
lastChange = "2023-11-26 21:03:08 +0000";
layers = (
{
layerId = "462F72A0-0500-4E69-A49B-6C2F2580580D";
shapes = (
{
closed = 1;
nodes = (
(341,0,ls),
(350,0,o),
(356,6,o),
(356,15,cs),
(356,640,l),
(444,640,ls),
(453,640,o),
(459,646,o),
(459,655,cs),
(459,785,ls),
(459,794,o),
(453,800,o),
(444,800,cs),
(171,800,ls),
(162,800,o),
(156,794,o),
(156,785,cs),
(156,160,l),
(69,160,ls),
(60,160,o),
(54,154,o),
(54,145,cs),
(54,15,ls),
(54,6,o),
(60,0,o),
(69,0,cs)
);
}
);
width = 513;
},
{
layerId = m002;
shapes = (
{
closed = 1;
nodes = (
(317,0,ls),
(326,0,o),
(332,6,o),
(332,15,cs),
(332,603,l),
(395,603,ls),
(404,603,o),
(410,609,o),
(410,618,cs),
(410,785,ls),
(410,794,o),
(404,800,o),
(395,800,cs),
(118,800,ls),
(109,800,o),
(103,794,o),
(103,785,cs),
(103,197,l),
(40,197,ls),
(31,197,o),
(25,191,o),
(25,182,cs),
(25,15,ls),
(25,6,o),
(31,0,o),
(40,0,cs)
);
}
);
width = 435;
}
);
metricLeft = S;
metricRight = S;
unicode = 425;
},
{
color = 8;
glyphname = Estroke;
lastChange = "2023-11-26 21:03:08 +0000";
layers = (
{
layerId = "462F72A0-0500-4E69-A49B-6C2F2580580D";
shapes = (
{
ref = E;
},
{
closed = 1;
nodes = (
(256,-66,l),
(456,891,l),
(423,891,l),
(223,-66,l)
);
}
);
width = 592;
},
{
layerId = m002;
shapes = (
{
ref = E;
},
{
closed = 1;
nodes = (
(300,-66,l),
(400,891,l),
(367,891,l),
(267,-66,l)
);
}
);
width = 498;
}
);
metricLeft = E;
metricRight = E;
unicode = 582;
},
{
color = 8;
glyphname = Schwa;
kernRight = KO_Schwa;
lastChange = "2023-11-26 21:03:08 +0000";
layers = (
{
anchors = (
{
name = bottom;
pos = (331,-30);
},
{
name = center;
pos = (331,400);
},
{
name = ogonek;
pos = (562,10);
},
{
name = top;
pos = (331,800);
},
{
name = topleft;
pos = (62,800);
},
{
name = topright;
pos = (577,790);
}
);
layerId = "462F72A0-0500-4E69-A49B-6C2F2580580D";
shapes = (
{
closed = 1;
nodes = (
(443,0,ls),
(451,0,o),
(458,3,o),
(462,8,cs),
(572,122,ls),
(577,128,o),
(579,134,o),
(579,141,cs),
(579,610,ls),
(579,618,o),
(576,623,o),
(571,628,cs),
(462,723,ls),
(457,728,o),
(451,730,o),
(443,730,cs),
(72,730,l),
(72,570,l),
(358,570,ls),
(376,570,o),
(389,560,o),
(389,546,cs),
(389,212,ls),
(389,175,o),
(369,160,o),
(321,160,cs),
(271,160,o),
(253,174,o),
(253,212,cs),
(253,445,l),
(63,445,l),
(63,141,ls),
(63,134,o),
(65,128,o),
(70,122,cs),
(180,8,ls),
(184,3,o),
(191,0,o),
(199,0,cs)
);
},
{
closed = 1;
nodes = (
(433,325,l),
(433,468,l),
(63,468,l),
(63,325,l)
);
}
);
width = 642;
},
{
anchors = (
{
name = bottom;
pos = (288,-30);
},
{
name = center;
pos = (288,400);
},
{
name = ogonek;
pos = (519,10);
},
{
name = top;
pos = (288,800);
},
{
name = topleft;
pos = (19,800);
},
{
name = topright;
pos = (534,790);
}
);
layerId = m002;
shapes = (
{
closed = 1;
nodes = (
(400,0,ls),
(407,0,o),
(414,2,o),
(419,8,cs),
(529,122,ls),
(534,128,o),
(536,134,o),
(536,141,cs),
(536,610,ls),
(536,617,o),
(534,623,o),
(528,628,cs),
(419,723,ls),
(414,728,o),
(407,730,o),
(400,730,cs),
(29,730,l),
(29,502,l),
(267,502,ls),
(287,502,o),
(298,490,o),
(298,478,cs),
(298,257,ls),
(298,238,o),
(287,225,o),
(267,225,cs),
(246,225,o),
(237,238,o),
(237,257,cs),
(237,445,l),
(20,445,l),
(20,141,ls),
(20,134,o),
(22,128,o),
(27,122,cs),
(137,8,ls),
(142,2,o),
(149,0,o),
(156,0,cs)
);
},
{
closed = 1;
nodes = (
(390,305,l),
(390,468,l),
(20,468,l),
(20,305,l)
);
}
);
width = 556;
}
);
metricLeft = "=O-5";
metricRight = "=O-5";
unicode = 399;
},
{
color = 8;
glyphname = Ezh;
lastChange = "2023-11-26 21:03:08 +0000";
layers = (
{
anchors = (
{
name = bottom;
pos = (266,0);
},
{
name = top;
pos = (266,800);
}
);
background = {
shapes = (
{
closed = 1;
nodes = (
(232,0,ls),
(239,0,o),
(245,0,o),
(250,6,cs),
(336,123,ls),
(343,132,o),
(345,137,o),
(345,152,cs),
(345,356,ls),
(345,364,o),
(341,368,o),
(336,374,cs),
(268,459,l),
(268,473,l),
(336,613,l),
(336,785,ls),
(336,794,o),
(330,800,o),
(321,800,cs),
(56,800,ls),
(47,800,o),
(41,794,o),
(41,785,cs),
(41,618,ls),
(41,609,o),
(47,603,o),
(56,603,cs),
(117,603,l),
(117,593,l),
(55,428,ls),
(52,420,o),
(54,408,o),
(59,402,cs),
(149,294,l),
(149,282,l),
(51,150,ls),
(46,144,o),
(42,140,o),
(42,132,cs),
(42,15,ls),
(42,6,o),
(48,0,o),
(57,0,cs)
);
}
);
};
layerId = "462F72A0-0500-4E69-A49B-6C2F2580580D";
shapes = (
{
closed = 1;
nodes = (
(448,5,ls),
(457,5,o),
(463,11,o),
(463,20,cs),
(463,190,l),
(353,392,l),
(353,414,l),
(463,610,l),
(463,785,ls),
(463,794,o),
(457,800,o),
(448,800,cs),
(83,800,ls),
(74,800,o),
(68,794,o),
(68,785,cs),
(68,625,ls),
(68,616,o),
(74,610,o),
(83,610,cs),
(244,610,l),
(244,600,l),
(145,414,l),
(145,392,l),
(244,207,l),
(244,197,l),
(83,197,ls),
(74,197,o),
(68,191,o),
(68,182,cs),
(68,20,ls),
(68,11,o),
(74,5,o),
(83,5,cs)
);
}
);
width = 531;
},
{
anchors = (
{
name = bottom;
pos = (223,0);
},
{
name = top;
pos = (223,800);
}
);
layerId = m002;
shapes = (
{
closed = 1;
nodes = (
(405,5,ls),
(414,5,o),
(420,11,o),
(420,20,cs),
(420,240,l),
(310,392,l),
(310,414,l),
(420,560,l),
(420,785,ls),
(420,794,o),
(414,800,o),
(405,800,cs),
(40,800,ls),
(31,800,o),
(25,794,o),
(25,785,cs),
(25,575,ls),
(25,566,o),
(31,560,o),
(40,560,cs),
(151,560,l),
(151,550,l),
(52,414,l),
(52,392,l),
(151,257,l),
(151,247,l),
(40,247,ls),
(31,247,o),
(25,241,o),
(25,232,cs),
(25,20,ls),
(25,11,o),
(31,5,o),
(40,5,cs)
);
}
);
width = 445;
}
);
metricLeft = O;
metricRight = O;
unicode = 439;
},
{
color = 8;
glyphname = F;
kernLeft = KO_H;
kernRight = KO_F;
lastChange = "2023-11-26 21:03:08 +0000";
layers = (
{
anchors = (
{
name = bottom;
pos = (271,0);
},
{
name = bottomhook;
pos = (272,15);
},
{
name = top;
pos = (271,800);
}
);
layerId = "462F72A0-0500-4E69-A49B-6C2F2580580D";
shapes = (
{
closed = 1;
nodes = (
(257,0,ls),
(265,0,o),
(272,7,o),
(272,15,cs),
(272,280,l),
(468,280,ls),
(476,280,o),
(483,287,o),
(483,295,cs),
(483,425,ls),
(483,433,o),
(476,440,o),
(468,440,cs),
(272,440,l),
(272,640,l),
(498,640,ls),
(506,640,o),
(513,647,o),
(513,655,cs),
(513,785,ls),
(513,793,o),
(506,800,o),
(498,800,cs),
(87,800,ls),
(79,800,o),
(72,793,o),
(72,785,cs),
(72,15,ls),
(72,7,o),
(79,0,o),
(87,0,cs)
);
}
);
width = 537;
},
{
anchors = (
{
name = bottom;
pos = (249,0);
},
{
name = bottomhook;
pos = (275,15);
},
{
name = top;
pos = (249,800);
}
);
layerId = m002;
shapes = (
{
closed = 1;
nodes = (
(260,0,ls),
(268,0,o),
(275,7,o),
(275,15,cs),
(275,290,l),
(458,290,ls),
(466,290,o),
(473,297,o),
(473,305,cs),
(473,495,ls),
(473,503,o),
(466,510,o),
(458,510,cs),
(275,510,l),
(275,560,l),
(458,560,ls),
(466,560,o),
(473,567,o),
(473,575,cs),
(473,785,ls),
(473,793,o),
(466,800,o),
(458,800,cs),
(40,800,ls),
(32,800,o),
(25,793,o),
(25,785,cs),
(25,15,ls),
(25,7,o),
(32,0,o),
(40,0,cs)
);
}
);
width = 498;
}
);
metricLeft = H;
unicode = 70;
userData = {
KernOnName = F;
};
},
{
color = 8;
glyphname = G;
kernLeft = KO_G;
kernRight = KO_G;
lastChange = "2023-11-26 21:03:08 +0000";
layers = (
{
anchors = (
{
name = bottom;
pos = (364,0);
},
{
name = hook;
pos = (596,785);
},
{
name = top;
pos = (364,800);
}
);
background = {
shapes = (
{
pos = (12,0);
ref = O;
}
);
};
layerId = "462F72A0-0500-4E69-A49B-6C2F2580580D";
shapes = (
{
closed = 1;
nodes = (
(452,0,ls),
(462,0,o),
(469,3,o),
(476,10,cs),
(596,130,ls),
(603,137,o),
(606,144,o),
(606,154,cs),
(606,465,ls),
(606,474,o),
(600,480,o),
(591,480,cs),
(345,480,ls),
(337,480,o),
(330,473,o),
(330,465,cs),
(330,336,ls),
(330,327,o),
(336,321,o),
(345,321,cs),
(422,321,l),
(422,161,l),
(292,161,ls),
(281,161,o),
(272,170,o),
(272,181,cs),
(272,620,ls),
(272,631,o),
(281,640,o),
(292,640,cs),
(581,640,ls),
(589,640,o),
(596,647,o),
(596,655,cs),
(596,785,ls),
(596,793,o),
(589,800,o),
(581,800,cs),
(226,800,ls),
(216,800,o),
(209,797,o),
(202,790,cs),
(82,670,ls),
(75,663,o),
(72,656,o),
(72,646,cs),
(72,154,ls),
(72,144,o),
(75,137,o),
(82,130,cs),
(202,10,ls),
(209,3,o),
(216,0,o),
(226,0,cs)
);
}
);
width = 660;
},
{
anchors = (
{
name = bottom;
pos = (315,-30);
},
{
name = hook;
pos = (557,785);
},
{
name = top;
pos = (315,800);
}
);
guides = (
{
angle = 225;
pos = (95,730);
},
{
angle = 225;
pos = (530,70);
}
);
layerId = m002;
shapes = (
{
closed = 1;
nodes = (
(446,0,ls),
(456,0,o),
(463,3,o),
(470,10,cs),
(590,130,ls),
(597,137,o),
(600,144,o),
(600,154,cs),
(600,495,ls),
(600,504,o),
(594,510,o),
(585,510,cs),
(330,510,ls),
(322,510,o),
(315,503,o),
(315,495,cs),
(315,345,ls),
(315,336,o),
(321,330,o),
(330,330,cs),
(380,329,l),
(380,240,l),
(295,240,ls),
(284,240,o),
(275,249,o),
(275,260,cs),
(275,540,ls),
(275,551,o),
(284,560,o),
(295,560,cs),
(542,560,ls),
(550,560,o),
(557,567,o),
(557,575,cs),
(557,785,ls),
(557,793,o),
(550,800,o),
(542,800,cs),
(179,800,ls),
(169,800,o),
(162,797,o),
(155,790,cs),
(35,670,ls),
(28,663,o),
(25,656,o),
(25,646,cs),
(25,154,ls),
(25,144,o),
(28,137,o),
(35,130,cs),
(155,10,ls),
(162,3,o),
(169,0,o),
(179,0,cs)
);
}
);
width = 622;
}
);
metricLeft = H;
unicode = 71;
userData = {
KernOnName = G;
};
},
{
color = 8;
glyphname = Glottalstop;
lastChange = "2023-11-26 21:03:08 +0000";
layers = (
{
layerId = "462F72A0-0500-4E69-A49B-6C2F2580580D";
shapes = (
{
closed = 1;
nodes = (
(254,0,ls),
(262,0,o),
(269,7,o),
(269,15,cs),
(269,226,l),
(409,361,ls),
(416,367,o),
(419,373,o),
(419,381,cs),
(419,643,ls),
(419,651,o),
(416,657,o),
(410,661,cs),
(200,794,ls),
(194,798,o),
(189,800,o),
(182,800,cs),
(83,800,ls),
(74,800,o),
(68,794,o),
(68,785,cs),
(68,647,ls),
(68,639,o),
(71,632,o),
(77,629,cs),
(215,553,l),
(215,410,l),
(79,301,ls),
(72,295,o),
(68,293,o),
(68,284,cs),
(69,15,ls),
(69,6,o),
(75,0,o),
(84,0,cs)
);
}
);
width = 487;
},
{
layerId = m002;
shapes = (
{
closed = 1;
nodes = (
(269,0,ls),
(277,0,o),
(284,7,o),
(284,15,cs),
(284,226,l),
(424,361,ls),
(431,367,o),
(434,373,o),
(434,381,cs),
(434,643,ls),
(434,651,o),
(431,657,o),
(425,661,cs),
(215,794,ls),
(209,798,o),
(204,800,o),
(197,800,cs),
(40,800,ls),
(31,800,o),
(25,794,o),
(25,785,cs),
(25,587,ls),
(25,579,o),
(28,573,o),
(34,569,cs),
(152,493,l),
(152,470,l),
(36,361,ls),
(29,355,o),
(25,353,o),
(25,344,cs),
(26,15,ls),
(26,6,o),
(32,0,o),
(41,0,cs)
);
}
);
width = 459;
}
);
metricLeft = o;
metricRight = o;
unicode = 577;
},
{
color = 8;
glyphname = Gstroke;
lastChange = "2023-11-26 21:03:08 +0000";
layers = (
{
layerId = "462F72A0-0500-4E69-A49B-6C2F2580580D";
shapes = (
{
closed = 1;
nodes = (
(630,217,ls),
(639,217,o),
(645,223,o),
(645,232,cs),
(645,255,ls),
(645,264,o),
(639,270,o),
(630,270,cs),
(343,270,ls),
(334,270,o),
(328,264,o),
(328,255,cs),
(328,232,ls),
(328,223,o),
(334,217,o),
(343,217,cs)
);
},
{
ref = G;
}
);
width = 693;
},
{
layerId = m002;
shapes = (
{
closed = 1;
nodes = (
(680,269,ls),
(689,269,o),
(695,275,o),
(695,284,cs),
(695,287,ls),
(695,296,o),
(689,302,o),
(680,302,cs),
(373,302,ls),
(364,302,o),
(358,296,o),
(358,287,cs),
(358,284,ls),
(358,275,o),
(364,269,o),
(373,269,cs)
);
},
{
pos = (43,0);
ref = G;
}
);
width = 719;
}
);
unicode = 484;
},
{
color = 8;
glyphname = Yogh;
kernRight = KO_Nacute;
lastChange = "2023-11-26 21:03:08 +0000";
layers = (
{
layerId = "462F72A0-0500-4E69-A49B-6C2F2580580D";
shapes = (
{
closed = 1;
nodes = (
(192,-60,ls),
(199,-60,o),
(205,-60,o),
(210,-54,cs),
(338,90,ls),
(346,99,o),
(347,104,o),
(347,119,cs),
(347,256,ls),
(347,264,o),
(343,268,o),
(338,274,cs),
(262,368,l),
(262,382,l),
(327,464,l),
(327,609,ls),
(327,616,o),
(324,621,o),
(319,627,cs),
(215,733,ls),
(210,738,o),
(203,740,o),
(196,740,cs),
(63,740,ls),
(55,740,o),
(48,733,o),
(48,725,cs),
(48,591,ls),
(48,583,o),
(55,576,o),
(63,576,cs),
(164,572,l),
(164,507,l),
(57,372,ls),
(51,365,o),
(50,357,o),
(56,351,cs),
(161,234,l),
(161,162,l),
(53,40,ls),
(48,34,o),
(44,30,o),
(44,22,cs),
(44,-45,ls),
(44,-54,o),
(50,-60,o),
(59,-60,cs)
);
}
);
width = 391;
},
{
layerId = m002;
shapes = (
{
closed = 1;
nodes = (
(215,-60,ls),
(222,-60,o),
(228,-60,o),
(233,-54,cs),
(319,63,ls),
(326,72,o),
(328,77,o),
(328,92,cs),
(328,276,ls),
(328,284,o),
(323,288,o),
(319,294,cs),
(261,379,l),
(261,393,l),
(308,444,l),
(308,609,ls),
(308,616,o),
(305,621,o),
(300,627,cs),
(196,733,ls),
(191,738,o),
(184,740,o),
(177,740,cs),
(44,740,ls),
(36,740,o),
(29,733,o),
(29,725,cs),
(29,521,ls),
(29,513,o),
(36,506,o),
(44,506,cs),
(135,502,l),
(135,487,l),
(38,372,ls),
(32,365,o),
(32,358,o),
(37,351,cs),
(132,224,l),
(132,212,l),
(34,90,ls),
(29,84,o),
(25,80,o),
(25,72,cs),
(25,-45,ls),
(25,-54,o),
(31,-60,o),
(40,-60,cs)
);
}
);
width = 353;
}
);
metricLeft = s;
metricRight = s;
unicode = 540;
},
{
color = 8;
glyphname = H;
kernLeft = KO_H;
kernRight = KO_H;
lastChange = "2023-11-26 21:03:08 +0000";
layers = (
{
anchors = (
{
name = bottom;
pos = (346,0);
},
{
name = center;
pos = (346,588);
},
{
name = hook;
pos = (87,800);
},
{
name = top;
pos = (346,800);
},
{
name = topleft;
pos = (79,800);
}
);
background = {
shapes = (
{
pos = (4,0);
ref = O;
}
);
};
layerId = "462F72A0-0500-4E69-A49B-6C2F2580580D";
shapes = (
{
closed = 1;
nodes = (
(257,0,ls),
(266,0,o),
(272,6,o),
(272,15,cs),
(272,340,l),
(420,340,l),
(420,15,ls),
(420,6,o),
(426,0,o),
(435,0,cs),
(605,0,ls),
(614,0,o),
(620,6,o),
(620,15,cs),
(620,785,ls),
(620,794,o),
(614,800,o),
(605,800,cs),
(435,800,ls),
(426,800,o),
(420,794,o),
(420,785,cs),
(420,500,l),
(272,500,l),
(272,785,ls),
(272,794,o),
(266,800,o),
(257,800,cs),
(87,800,ls),
(78,800,o),
(72,794,o),
(72,785,cs),
(72,15,ls),
(72,6,o),
(78,0,o),
(87,0,cs)
);
}
);
width = 692;
},
{
anchors = (
{
name = bottom;
pos = (300,0);
},
{
name = center;
pos = (300,610);
},
{
name = hook;
pos = (40,800);
},
{
name = top;
pos = (300,800);
},
{
name = topleft;
pos = (29,800);
}
);
layerId = m002;
shapes = (
{
closed = 1;
nodes = (
(260,0,ls),
(269,0,o),
(275,6,o),
(275,15,cs),
(275,280,l),
(325,280,l),
(325,15,ls),
(325,6,o),
(331,0,o),
(340,0,cs),
(560,0,ls),
(569,0,o),
(575,6,o),
(575,15,cs),
(575,785,ls),
(575,794,o),
(569,800,o),
(560,800,cs),
(340,800,ls),
(331,800,o),
(325,794,o),
(325,785,cs),
(325,520,l),
(275,520,l),
(275,785,ls),
(275,794,o),
(269,800,o),
(260,800,cs),
(40,800,ls),
(31,800,o),
(25,794,o),
(25,785,cs),
(25,15,ls),
(25,6,o),
(31,0,o),
(40,0,cs)
);
}
);
width = 600;
}
);
unicode = 72;
userData = {
KernOnName = H;
};
},
{
color = 8;
glyphname = Heng;
lastChange = "2023-11-26 21:03:08 +0000";
layers = (
{
layerId = "462F72A0-0500-4E69-A49B-6C2F2580580D";
shapes = (
{
closed = 1;
nodes = (
(473,-250,ls),
(480,-250,o),
(485,-247,o),
(491,-241,cs),
(615,-117,ls),
(621,-111,o),
(622,-105,o),
(622,-98,cs),
(622,785,ls),
(622,794,o),
(616,800,o),
(607,800,cs),
(427,800,ls),
(418,800,o),
(412,794,o),
(412,785,cs),
(412,498,l),
(282,498,l),
(282,785,ls),
(282,794,o),
(276,800,o),
(267,800,cs),
(87,800,ls),
(78,800,o),
(72,794,o),
(72,785,cs),
(72,15,ls),
(72,6,o),
(78,0,o),
(87,0,cs),
(267,0,ls),
(276,0,o),
(282,6,o),
(282,15,cs),
(282,338,l),
(412,338,l),
(412,6,ls),
(412,-1,o),
(410,-8,o),
(405,-13,cs),
(316,-102,ls),
(311,-107,o),
(310,-113,o),
(310,-120,cs),
(310,-235,ls),
(310,-244,o),
(316,-250,o),
(325,-250,cs)
);
}
);
width = 694;
},
{
layerId = m002;
shapes = (
{
closed = 1;
nodes = (
(426,-250,ls),
(433,-250,o),
(438,-247,o),
(444,-241,cs),
(568,-117,ls),
(574,-111,o),
(575,-105,o),
(575,-98,cs),
(575,785,ls),
(575,794,o),
(569,800,o),
(560,800,cs),
(340,800,ls),
(331,800,o),
(325,794,o),
(325,785,cs),
(325,520,l),
(275,520,l),
(275,785,ls),
(275,794,o),
(269,800,o),
(260,800,cs),
(40,800,ls),
(31,800,o),
(25,794,o),
(25,785,cs),
(25,15,ls),
(25,6,o),
(31,0,o),
(40,0,cs),
(260,0,ls),
(269,0,o),
(275,6,o),
(275,15,cs),
(275,280,l),
(325,280,l),
(325,36,ls),
(325,29,o),
(323,22,o),
(318,17,cs),
(229,-72,ls),
(224,-77,o),
(223,-83,o),
(223,-90,cs),
(223,-235,ls),
(223,-244,o),
(229,-250,o),
(238,-250,cs)
);
}
);
width = 600;
}
);
metricLeft = H;
metricRight = H;
unicode = 42790;
},
{
color = 8;
glyphname = Hturned;
lastChange = "2023-11-26 21:03:08 +0000";
layers = (
{
layerId = "462F72A0-0500-4E69-A49B-6C2F2580580D";
shapes = (
{
closed = 1;
nodes = (
(560,0,ls),
(569,0,o),
(575,6,o),
(575,15,cs),
(575,785,ls),
(575,794,o),
(569,800,o),
(560,800,cs),
(390,800,ls),
(381,800,o),
(375,794,o),
(375,785,cs),
(375,500,l),
(265,500,l),
(265,785,ls),
(265,794,o),
(259,800,o),
(250,800,cs),
(80,800,ls),
(71,800,o),
(65,794,o),
(65,785,cs),
(65,335,ls),
(65,326,o),
(71,320,o),
(80,320,c),
(375,320,l),
(375,15,ls),
(375,6,o),
(381,0,o),
(390,0,cs)
);
}
);
width = 647;
},
{
layerId = m002;
shapes = (
{
closed = 1;
nodes = (
(553,0,ls),
(562,0,o),
(568,6,o),
(568,15,cs),
(568,785,ls),
(568,794,o),
(562,800,o),
(553,800,cs),
(333,800,ls),
(324,800,o),
(318,794,o),
(318,785,cs),
(318,520,l),
(268,520,l),
(268,785,ls),
(268,794,o),
(262,800,o),
(253,800,cs),
(33,800,ls),
(24,800,o),
(18,794,o),
(18,785,cs),
(18,295,ls),
(18,286,o),
(24,280,o),
(33,280,c),
(318,280,l),
(318,15,ls),
(318,6,o),
(324,0,o),
(333,0,cs)
);
}
);
width = 593;
}
);
metricLeft = "=four-7";
metricRight = "=H";
unicode = 42893;
},
{
color = 8;
glyphname = I;
kernLeft = KO_H;
kernRight = KO_H;
lastChange = "2023-11-26 21:03:08 +0000";
layers = (
{
anchors = (
{
name = bottom;
pos = (175,0);
},
{
name = ogonek;
pos = (272,15);
},
{
name = top;
pos = (175,800);
},
{
name = topleft;
pos = (87,800);
}
);
layerId = "462F72A0-0500-4E69-A49B-6C2F2580580D";
shapes = (
{
closed = 1;
nodes = (
(257,0,ls),
(266,0,o),
(272,6,o),
(272,15,cs),
(272,785,ls),
(272,794,o),
(266,800,o),
(257,800,cs),
(87,800,ls),
(78,800,o),
(72,794,o),
(72,785,cs),
(72,15,ls),
(72,6,o),
(78,0,o),
(87,0,cs)
);
}
);
width = 344;
},
{
anchors = (
{
name = bottom;
pos = (153,0);
},
{
name = ogonek;
pos = (275,15);
},
{
name = top;
pos = (153,800);
},
{
name = topleft;
pos = (40,800);
}
);
layerId = m002;
shapes = (
{
closed = 1;
nodes = (
(260,0,ls),
(269,0,o),
(275,6,o),
(275,15,cs),
(275,785,ls),
(275,794,o),
(269,800,o),
(260,800,cs),
(40,800,ls),
(31,800,o),
(25,794,o),
(25,785,cs),
(25,15,ls),
(25,6,o),
(31,0,o),
(40,0,cs)
);
}
);
width = 300;
}
);
metricLeft = H;
metricRight = H;
unicode = 73;
},
{
color = 8;
glyphname = "Iota-latin";
lastChange = "2023-11-26 21:03:08 +0000";
layers = (
{
layerId = "462F72A0-0500-4E69-A49B-6C2F2580580D";
shapes = (
{
closed = 1;
nodes = (
(301,0,ls),
(310,0,o),
(316,6,o),
(316,15,cs),
(316,170,ls),
(316,177,o),
(315,183,o),
(310,188,cs),
(301,197,ls),
(296,202,o),
(294,209,o),
(294,216,cs),
(294,584,ls),
(294,591,o),
(296,598,o),
(301,603,cs),
(310,612,ls),
(315,617,o),
(316,623,o),
(316,630,cs),
(316,785,ls),
(316,794,o),
(310,800,o),
(301,800,cs),
(87,800,ls),
(78,800,o),
(72,794,o),
(72,785,cs),
(72,630,ls),
(72,623,o),
(73,617,o),
(78,612,cs),
(87,603,ls),
(92,598,o),
(94,591,o),
(94,584,cs),
(94,216,ls),
(94,209,o),
(92,202,o),
(87,197,cs),
(78,188,ls),
(73,183,o),
(72,177,o),
(72,170,cs),
(72,15,ls),
(72,6,o),
(78,0,o),
(87,0,cs)
);
}
);
width = 340;
},
{
layerId = m002;
shapes = (
{
closed = 1;
nodes = (
(304,0,ls),
(313,0,o),
(319,6,o),
(319,15,cs),
(319,170,ls),
(319,177,o),
(318,183,o),
(313,188,cs),
(304,197,ls),
(299,202,o),
(297,209,o),
(297,216,cs),
(297,584,ls),
(297,591,o),
(299,598,o),
(304,603,cs),
(313,612,ls),
(318,617,o),
(319,623,o),
(319,630,cs),
(319,785,ls),
(319,794,o),
(313,800,o),
(304,800,cs),
(40,800,ls),
(31,800,o),
(25,794,o),
(25,785,cs),
(25,630,ls),
(25,623,o),
(26,617,o),
(31,612,cs),
(40,603,ls),
(45,598,o),
(47,591,o),
(47,584,cs),
(47,216,ls),
(47,209,o),
(45,202,o),
(40,197,cs),
(31,188,ls),
(26,183,o),
(25,177,o),
(25,170,cs),
(25,15,ls),
(25,6,o),
(31,0,o),
(40,0,cs)
);
}
);
width = 344;
}
);
metricLeft = L;
metricRight = L;
unicode = 406;
},
{
color = 8;
glyphname = J;
kernLeft = KO_J;
kernRight = KO_H;
lastChange = "2023-11-26 21:03:08 +0000";
layers = (
{
anchors = (
{
name = bottom;
pos = (177,-100);
},
{
name = top;
pos = (220,800);
}
);
guides = (
{
angle = 225;
pos = (65,200);
}
);
layerId = "462F72A0-0500-4E69-A49B-6C2F2580580D";
shapes = (
{
closed = 1;
nodes = (
(177,-100,ls),
(184,-100,o),
(189,-97,o),
(195,-91,cs),
(319,33,ls),
(325,39,o),
(326,45,o),
(326,52,cs),
(326,785,ls),
(326,794,o),
(320,800,o),
(311,800,cs),
(141,800,ls),
(132,800,o),
(126,794,o),
(126,785,cs),
(126,136,ls),
(126,129,o),
(124,122,o),
(119,117,cs),
(30,28,ls),
(25,23,o),
(24,17,o),
(24,10,cs),
(24,-85,ls),
(24,-94,o),
(30,-100,o),
(39,-100,cs)
);
}
);
width = 398;
},
{
anchors = (
{
name = bottom;
pos = (183,0);
},
{
name = top;
pos = (213,800);
}
);
associatedMasterId = "462F72A0-0500-4E69-A49B-6C2F2580580D";
layerId = "47F618A2-891F-4592-BB47-A5BEE17FF12A";
name = "Jun 4 22, 20:44";
shapes = (
{
closed = 1;
nodes = (
(193,-100,o),
(199,-97,o),
(204,-91,cs),
(347,74,ls),
(352,80,o),
(354,86,o),
(354,93,cs),
(354,785,ls),
(354,794,o),
(348,800,o),
(339,800,cs),
(121,800,ls),
(112,800,o),
(106,794,o),
(106,785,cs),
(106,223,ls),
(106,216,o),
(104,209,o),
(99,204,cs),
(10,101,ls),
(5,96,o),
(4,90,o),
(4,83,cs),
(4,-85,ls),
(4,-94,o),
(10,-100,o),
(19,-100,cs),
(186,-100,ls)
);
}
);
width = 383;
},
{
anchors = (
{
name = bottom;
pos = (185,0);
},
{
name = top;
pos = (215,800);
}
);
guides = (
{
angle = 225;
pos = (97,200);
}
);
layerId = m002;
shapes = (
{
closed = 1;
nodes = (
(209,-100,ls),
(216,-100,o),
(221,-97,o),
(227,-91,cs),
(351,33,ls),
(357,39,o),
(358,45,o),
(358,52,cs),
(358,785,ls),
(358,794,o),
(352,800,o),
(343,800,cs),
(123,800,ls),
(114,800,o),
(108,794,o),
(108,785,cs),
(108,196,ls),
(108,189,o),
(106,182,o),
(101,177,cs),
(12,88,ls),
(7,83,o),
(6,77,o),
(6,70,cs),
(6,-85,ls),
(6,-94,o),
(12,-100,o),
(21,-100,cs)
);
}
);
width = 383;
},
{
anchors = (
{
name = bottom;
pos = (183,0);
},
{
name = top;
pos = (213,800);
}
);
associatedMasterId = m002;
layerId = "94966038-865B-4CFF-980C-8DB8C84EB2CF";
name = "Jun 4 22, 20:44";
shapes = (
{
closed = 1;
nodes = (
(193,-100,o),
(199,-97,o),
(204,-91,cs),
(347,74,ls),
(352,80,o),
(354,86,o),
(354,93,cs),
(354,785,ls),
(354,794,o),
(348,800,o),
(339,800,cs),
(121,800,ls),
(112,800,o),
(106,794,o),
(106,785,cs),
(106,223,ls),
(106,216,o),
(104,209,o),
(99,204,cs),
(10,101,ls),
(5,96,o),
(4,90,o),
(4,83,cs),
(4,-85,ls),
(4,-94,o),
(10,-100,o),
(19,-100,cs),
(186,-100,ls)
);
}
);
width = 383;
}
);
metricRight = H;
unicode = 74;
},
{
color = 8;
glyphname = Jcrossedtail;
lastChange = "2023-11-26 21:03:08 +0000";
layers = (
{
layerId = "462F72A0-0500-4E69-A49B-6C2F2580580D";
shapes = (
{
closed = 1;
nodes = (
(266,-100,ls),
(273,-100,o),
(278,-97,o),
(284,-91,cs),
(408,33,ls),
(414,39,o),
(415,45,o),
(415,52,cs),
(415,99,l),
(472,99,ls),
(481,99,o),
(487,105,o),
(487,114,cs),
(487,134,ls),
(487,143,o),
(481,149,o),
(472,149,cs),
(415,149,l),
(415,785,ls),
(415,794,o),
(409,800,o),
(400,800,cs),
(230,800,ls),
(221,800,o),
(215,794,o),
(215,785,cs),
(215,149,l),
(39,149,ls),
(31,149,o),
(24,142,o),
(24,134,cs),
(24,-85,ls),
(24,-93,o),
(31,-100,o),
(39,-100,cs)
);
},
{
closed = 1;
nodes = (
(81,-52,o),
(74,-45,o),
(74,-37,cs),
(74,84,ls),
(74,92,o),
(81,99,o),
(89,99,cs),
(215,99,l),
(215,-37,ls),
(215,-45,o),
(208,-52,o),
(200,-52,cs),
(89,-52,ls)
);
}
);
width = 559;
},
{
layerId = m002;
shapes = (
{
closed = 1;
nodes = (
(268,-100,ls),
(275,-100,o),
(280,-97,o),
(286,-91,cs),
(410,33,ls),
(416,39,o),
(417,45,o),
(417,52,cs),
(417,99,l),
(444,99,ls),
(453,99,o),
(459,105,o),
(459,114,cs),
(459,134,ls),
(459,143,o),
(453,149,o),
(444,149,cs),
(417,149,l),
(417,785,ls),
(417,794,o),
(411,800,o),
(402,800,cs),
(182,800,ls),
(173,800,o),
(167,794,o),
(167,785,cs),
(167,149,l),
(21,149,ls),
(13,149,o),
(6,142,o),
(6,134,cs),
(6,-85,ls),
(6,-93,o),
(13,-100,o),
(21,-100,cs)
);
},
{
closed = 1;
nodes = (
(63,-52,o),
(56,-45,o),
(56,-37,cs),
(56,84,ls),
(56,92,o),
(63,99,o),
(71,99,cs),
(167,99,l),
(167,-37,ls),
(167,-45,o),
(160,-52,o),
(152,-52,cs),
(71,-52,ls)
);
}
);
width = 484;
}
);
metricLeft = J;
metricRight = J;
unicode = 42930;
},
{
color = 8;
glyphname = K;
kernLeft = KO_H;
kernRight = KO_K;
lastChange = "2023-11-26 21:03:08 +0000";
layers = (
{
anchors = (
{
name = bottom;
pos = (299,-30);
},
{
name = top;
pos = (299,800);
}
);
associatedMasterId = "462F72A0-0500-4E69-A49B-6C2F2580580D";
layerId = "D19A533A-5E04-46DA-96EE-466E7F3ECFA9";
name = Original;
shapes = (
{
closed = 1;
nodes = (
(30,6,o),
(36,0,o),
(45,0,cs),
(259,0,ls),
(268,0,o),
(274,6,o),
(274,15,cs),
(274,225,l),
(281,225,l),
(350,9,ls),
(352,2,o),
(361,0,o),
(368,0,cs),
(571,0,ls),
(580,0,o),
(586,6,o),
(586,15,cs),
(586,221,ls),
(586,228,o),
(584,233,o),
(580,239,cs),
(464,420,l),
(464,443,l),
(569,601,ls),
(573,608,o),
(576,613,o),
(576,620,cs),
(576,785,ls),
(576,794,o),
(570,800,o),
(561,800,cs),
(358,800,ls),
(351,800,o),
(341,799,o),
(339,792,cs),
(281,550,l),
(274,550,l),
(274,785,ls),
(274,794,o),
(268,800,o),
(259,800,cs),
(45,800,ls),
(36,800,o),
(30,794,o),
(30,785,cs),
(30,15,ls)
);
}
);
width = 598;
},
{
anchors = (
{
name = bottom;
pos = (297,-30);
},
{
name = hookright;
pos = (525,800);
},
{
name = top;
pos = (319,800);
}
);
background = {
shapes = (
{
closed = 1;
nodes = (
(257,0,ls),
(266,0,o),
(272,6,o),
(272,15,cs),
(272,308,l),
(356,308,l),
(433,9,ls),
(435,1,o),
(446,0,o),
(451,0,cs),
(615,0,ls),
(624,0,o),
(630,7,o),
(630,15,cs),
(630,96,ls),
(630,108,o),
(628,113,o),
(625,119,cs),
(497,409,l),
(493,414,l),
(497,418,l),
(609,686,ls),
(612,692,o),
(614,701,o),
(614,710,cs),
(614,785,ls),
(614,794,o),
(608,800,o),
(599,800,cs),
(441,800,ls),
(429,800,o),
(423,797,o),
(422,792,cs),
(346,467,l),
(272,467,l),
(272,785,ls),
(272,794,o),
(266,800,o),
(257,800,cs),
(87,800,ls),
(78,800,o),
(72,794,o),
(72,785,cs),
(72,15,ls),
(72,6,o),
(78,0,o),
(87,0,cs)
);
},
{
closed = 1;
nodes = (
(257,0,ls),
(266,0,o),
(272,6,o),
(272,15,cs),
(272,308,l),
(356,308,l),
(389,180,l),
(433,9,ls),
(435,1,o),
(446,0,o),
(451,0,cs),
(615,0,ls),
(624,0,o),
(630,7,o),
(630,15,cs),
(630,96,ls),
(630,108,o),
(628,113,o),
(625,119,cs),
(537,319,l),
(485,414,l),
(536,510,l),
(609,686,ls),
(611,692,o),
(614,701,o),
(614,710,cs),
(614,785,ls),
(614,794,o),
(608,800,o),
(599,800,cs),
(441,800,ls),
(429,800,o),
(423,797,o),
(422,792,cs),
(387,642,l),
(346,467,l),
(272,467,l),
(272,785,ls),
(272,794,o),
(266,800,o),
(257,800,cs),
(87,800,ls),
(78,800,o),
(72,794,o),
(72,785,cs),
(72,15,ls),
(72,6,o),
(78,0,o),
(87,0,cs)
);
}
);
};
layerId = "462F72A0-0500-4E69-A49B-6C2F2580580D";
shapes = (
{
closed = 1;
nodes = (
(257,0,ls),
(266,0,o),
(272,6,o),
(272,15,cs),
(272,308,l),
(356,308,l),
(389,199,l),
(433,9,ls),
(435,1,o),
(446,0,o),
(451,0,cs),
(630,0,ls),
(639,0,o),
(645,7,o),
(645,15,cs),
(645,96,ls),
(645,108,o),
(643,113,o),
(640,119,cs),
(552,319,l),
(500,414,l),
(551,510,l),
(624,686,ls),
(626,692,o),
(629,701,o),
(629,710,cs),
(629,785,ls),
(629,794,o),
(623,800,o),
(614,800,cs),
(441,800,ls),
(429,800,o),
(423,797,o),
(422,792,cs),
(386,616,l),
(346,467,l),
(272,467,l),
(272,785,ls),
(272,794,o),
(266,800,o),
(257,800,cs),
(87,800,ls),
(78,800,o),
(72,794,o),
(72,785,cs),
(72,15,ls),
(72,6,o),
(78,0,o),
(87,0,cs)
);
}
);
width = 693;
},
{
anchors = (
{
name = bottom;
pos = (299,-30);
},
{
name = top;
pos = (299,800);
}
);
associatedMasterId = "462F72A0-0500-4E69-A49B-6C2F2580580D";
layerId = "5095C087-B7CF-44BA-A313-E33877BA9304";
name = "Jun 3 22, 20:29";
shapes = (
{
closed = 1;
nodes = (
(30,6,o),
(36,0,o),
(45,0,cs),
(259,0,ls),
(268,0,o),
(274,6,o),
(274,15,cs),
(274,225,l),
(281,225,l),
(370,9,ls),
(373,2,o),
(381,0,o),
(388,0,cs),
(571,0,ls),
(580,0,o),
(586,6,o),
(586,15,cs),
(586,183,ls),
(586,192,o),
(585,196,o),
(581,203,cs),
(464,420,l),
(464,443,l),
(569,601,ls),
(574,608,o),
(576,613,o),
(576,620,cs),
(576,785,ls),
(576,794,o),
(570,800,o),
(561,800,cs),
(358,800,ls),
(351,800,o),
(341,799,o),
(339,792,cs),
(281,550,l),
(274,550,l),
(274,785,ls),
(274,794,o),
(268,800,o),
(259,800,cs),
(45,800,ls),
(36,800,o),
(30,794,o),
(30,785,cs),
(30,15,ls)
);
}
);
width = 598;
},
{
anchors = (
{
name = bottom;
pos = (299,-30);
},
{
name = top;
pos = (299,800);
}
);
associatedMasterId = "462F72A0-0500-4E69-A49B-6C2F2580580D";
layerId = "431D0C69-9DB6-4A23-85F9-39F294B7CCF8";
name = "Jun 4 22, 20:04";
shapes = (
{
closed = 1;
nodes = (
(259,0,ls),
(268,0,o),
(274,6,o),
(274,15,cs),
(274,233,l),
(288,233,l),
(346,12,ls),
(348,4,o),
(356,0,o),
(364,0,cs),
(574,0,ls),
(583,0,o),
(589,7,o),
(589,15,cs),
(589,163,ls),
(589,173,o),
(588,179,o),
(584,186,cs),
(485,362,l),
(485,384,l),
(568,463,ls),
(575,469,o),
(578,473,o),
(578,481,cs),
(578,644,ls),
(578,657,o),
(577,660,o),
(568,668,cs),
(430,792,ls),
(423,798,o),
(417,800,o),
(406,800,cs),
(45,800,ls),
(36,800,o),
(30,794,o),
(30,785,cs),
(30,15,ls),
(30,6,o),
(36,0,o),
(45,0,cs)
);
}
);
visible = 1;
width = 598;
},
{
anchors = (
{
name = bottom;
pos = (299,-30);
},
{
name = top;
pos = (299,800);
}
);
associatedMasterId = "462F72A0-0500-4E69-A49B-6C2F2580580D";
layerId = "F8CEB368-3C45-42B7-A9CE-39097D833CF0";
name = "Jun 4 22, 20:15";
shapes = (
{
closed = 1;
nodes = (
(462,477,l),
(462,321,l),
(557,601,ls),
(559,608,o),
(564,613,o),
(564,620,cs),
(564,785,ls),
(564,794,o),
(558,800,o),
(549,800,cs),
(358,800,ls),
(351,800,o),
(340,799,o),
(339,792,cs),
(291,550,l),
(274,550,l),
(274,785,ls),
(274,794,o),
(268,800,o),
(259,800,cs),
(45,800,ls),
(36,800,o),
(30,794,o),
(30,785,cs),
(30,15,ls),
(30,6,o),
(36,0,o),
(45,0,cs),
(259,0,ls),
(268,0,o),
(274,6,o),
(274,15,cs),
(274,225,l),
(290,225,l),
(347,9,ls),
(349,2,o),
(358,0,o),
(365,0,cs),
(562,0,ls),
(571,0,o),
(577,7,o),
(577,15,cs),
(577,163,ls),
(577,173,o),
(575,179,o),
(572,186,cs)
);
}
);
width = 598;
},
{
anchors = (
{
name = bottom;
pos = (299,-30);
},
{
name = top;
pos = (299,800);
}
);
associatedMasterId = m002;
layerId = "91BBEE69-323B-40EE-A178-789076CF45E2";
name = Original;
shapes = (
{
closed = 1;
nodes = (
(30,6,o),
(36,0,o),
(45,0,cs),
(259,0,ls),
(268,0,o),
(274,6,o),
(274,15,cs),
(274,225,l),
(281,225,l),
(350,9,ls),
(352,2,o),
(361,0,o),
(368,0,cs),
(571,0,ls),
(580,0,o),
(586,6,o),
(586,15,cs),
(586,221,ls),
(586,228,o),
(584,233,o),
(580,239,cs),
(464,420,l),
(464,443,l),
(569,601,ls),
(573,608,o),
(576,613,o),
(576,620,cs),
(576,785,ls),
(576,794,o),
(570,800,o),
(561,800,cs),
(358,800,ls),
(351,800,o),
(341,799,o),
(339,792,cs),
(281,550,l),
(274,550,l),
(274,785,ls),
(274,794,o),
(268,800,o),
(259,800,cs),
(45,800,ls),
(36,800,o),
(30,794,o),
(30,785,cs),
(30,15,ls)
);
}
);
width = 598;
},
{
anchors = (
{
name = bottom;
pos = (300,-30);
},
{
name = hookright;
pos = (491,800);
},
{
name = top;
pos = (300,800);
}
);
layerId = m002;
shapes = (
{
closed = 1;
nodes = (
(260,0,ls),
(269,0,o),
(275,6,o),
(275,15,cs),
(275,225,l),
(284,225,l),
(319,120,l),
(356,9,ls),
(358,2,o),
(367,0,o),
(374,0,cs),
(579,0,ls),
(588,0,o),
(594,7,o),
(594,15,cs),
(594,156,ls),
(594,166,o),
(593,172,o),
(589,179,cs),
(488,380,l),
(478,399,l),
(488,416,l),
(575,611,ls),
(578,618,o),
(582,623,o),
(582,630,cs),
(582,785,ls),
(582,794,o),
(576,800,o),
(567,800,cs),
(364,800,ls),
(357,800,o),
(347,799,o),
(345,792,cs),
(322,700,l),
(284,550,l),
(275,550,l),
(275,785,ls),
(275,794,o),
(269,800,o),
(260,800,cs),
(40,800,ls),
(31,800,o),
(25,794,o),
(25,785,cs),
(25,15,ls),
(25,6,o),
(31,0,o),
(40,0,cs)
);
}
);
width = 619;
},
{
anchors = (
{
name = bottom;
pos = (299,-30);
},
{
name = top;
pos = (299,800);
}
);
associatedMasterId = m002;
layerId = "C3F5C271-7079-4B27-A722-1ACD6A2DE10B";
name = "Jun 3 22, 20:29";
shapes = (
{
closed = 1;
nodes = (
(30,6,o),
(36,0,o),
(45,0,cs),
(259,0,ls),
(268,0,o),
(274,6,o),
(274,15,cs),
(274,225,l),
(281,225,l),
(370,9,ls),
(373,2,o),
(381,0,o),
(388,0,cs),
(571,0,ls),
(580,0,o),
(586,6,o),
(586,15,cs),
(586,183,ls),
(586,192,o),
(585,196,o),
(581,203,cs),
(464,420,l),
(464,443,l),
(569,601,ls),
(574,608,o),
(576,613,o),
(576,620,cs),
(576,785,ls),
(576,794,o),
(570,800,o),
(561,800,cs),
(358,800,ls),
(351,800,o),
(341,799,o),
(339,792,cs),
(281,550,l),
(274,550,l),
(274,785,ls),
(274,794,o),
(268,800,o),
(259,800,cs),
(45,800,ls),
(36,800,o),
(30,794,o),
(30,785,cs),
(30,15,ls)
);
}
);
width = 598;
},
{
anchors = (
{
name = bottom;
pos = (299,-30);
},
{
name = top;
pos = (299,800);
}
);
associatedMasterId = m002;
layerId = "B0AFB480-6D49-4A33-A97D-46255A8297DC";
name = "Jun 4 22, 20:04";
shapes = (
{
closed = 1;
nodes = (
(259,0,ls),
(268,0,o),
(274,6,o),
(274,15,cs),
(274,233,l),
(288,233,l),
(346,12,ls),
(348,4,o),
(356,0,o),
(364,0,cs),
(574,0,ls),
(583,0,o),
(589,7,o),
(589,15,cs),
(589,163,ls),
(589,173,o),
(588,179,o),
(584,186,cs),
(485,362,l),
(485,384,l),
(568,463,ls),
(575,469,o),
(578,473,o),
(578,481,cs),
(578,644,ls),
(578,657,o),
(577,660,o),
(568,668,cs),
(430,792,ls),
(423,798,o),
(417,800,o),
(406,800,cs),
(45,800,ls),
(36,800,o),
(30,794,o),
(30,785,cs),
(30,15,ls),
(30,6,o),
(36,0,o),
(45,0,cs)
);
}
);
width = 598;
},
{
anchors = (
{
name = bottom;
pos = (299,-30);
},
{
name = top;
pos = (299,800);
}
);
associatedMasterId = m002;
layerId = "02AEAF66-58F9-4B51-A311-F7EA0F4FE974";
name = "Jun 4 22, 20:15";
shapes = (
{
closed = 1;
nodes = (
(462,477,l),
(462,321,l),
(557,601,ls),
(559,608,o),
(564,613,o),
(564,620,cs),
(564,785,ls),
(564,794,o),
(558,800,o),
(549,800,cs),
(358,800,ls),
(351,800,o),
(340,799,o),
(339,792,cs),
(291,550,l),
(274,550,l),
(274,785,ls),
(274,794,o),
(268,800,o),
(259,800,cs),
(45,800,ls),
(36,800,o),
(30,794,o),
(30,785,cs),
(30,15,ls),
(30,6,o),
(36,0,o),
(45,0,cs),
(259,0,ls),
(268,0,o),
(274,6,o),
(274,15,cs),
(274,225,l),
(290,225,l),
(347,9,ls),
(349,2,o),
(358,0,o),
(365,0,cs),
(562,0,ls),
(571,0,o),
(577,7,o),
(577,15,cs),
(577,163,ls),
(577,173,o),
(575,179,o),
(572,186,cs)
);
}
);
width = 598;
}
);
metricLeft = H;
unicode = 75;
},
{
color = 8;
glyphname = L;
kernLeft = KO_H;
kernRight = KO_L;
lastChange = "2023-11-26 21:03:08 +0000";
layers = (
{
anchors = (
{
name = bottom;
pos = (255,0);
},
{
name = center;
pos = (182,445);
},
{
name = top;
pos = (177,800);
},
{
name = topright;
pos = (257,800);
}
);
layerId = "462F72A0-0500-4E69-A49B-6C2F2580580D";
shapes = (
{
closed = 1;
nodes = (
(423,0,ls),
(431,0,o),
(438,7,o),
(438,15,cs),
(438,145,ls),
(438,153,o),
(431,160,o),
(423,160,cs),
(272,160,l),
(272,785,ls),
(272,793,o),
(265,800,o),
(257,800,cs),
(87,800,ls),
(79,800,o),
(72,793,o),
(72,785,cs),
(72,15,ls),
(72,7,o),
(79,0,o),
(87,0,cs)
);
}
);
width = 462;
},
{
anchors = (
{
name = bottom;
pos = (208,0);
},
{
name = center;
pos = (208,400);
},
{
name = top;
pos = (208,800);
},
{
name = topright;
pos = (386,800);
}
);
layerId = m002;
shapes = (
{
closed = 1;
nodes = (
(376,0,ls),
(384,0,o),
(391,7,o),
(391,15,cs),
(391,225,ls),
(391,233,o),
(384,240,o),
(376,240,cs),
(275,240,l),
(275,785,l),
(275,793,o),
(268,800,o),
(260,800,cs),
(40,800,ls),
(32,800,o),
(25,793,o),
(25,785,cs),
(25,15,ls),
(25,7,o),
(32,0,o),
(40,0,cs)
);
}
);
width = 416;
}
);
metricLeft = H;
unicode = 76;
userData = {
KernOnName = L;
};
},
{
color = 8;
glyphname = Lbelt;
lastChange = "2023-11-26 21:03:08 +0000";
layers = (
{
layerId = "462F72A0-0500-4E69-A49B-6C2F2580580D";
shapes = (
{
closed = 1;
nodes = (
(249,352,l),
(248,400,l),
(133,400,ls),
(125,400,o),
(118,407,o),
(118,415,cs),
(118,536,ls),
(118,544,o),
(125,551,o),
(133,551,cs),
(425,551,ls),
(434,551,o),
(440,557,o),
(440,566,cs),
(440,586,ls),
(440,595,o),
(434,601,o),
(425,601,cs),
(83,601,ls),
(75,601,o),
(68,594,o),
(68,586,cs),
(68,367,ls),
(68,359,o),
(75,352,o),
(83,352,cs)
);
},
{
closed = 1;
nodes = (
(534,350,ls),
(543,350,o),
(549,356,o),
(549,365,cs),
(549,385,ls),
(549,394,o),
(543,400,o),
(534,400,cs),
(303,400,ls),
(294,400,o),
(288,394,o),
(288,385,cs),
(288,365,ls),
(288,356,o),
(294,350,o),
(303,350,cs)
);
},
{
pos = (108,0);
ref = L;
}
);
width = 573;
},
{
layerId = m002;
shapes = (
{
closed = 1;
nodes = (
(176,352,l),
(175,400,l),
(90,400,ls),
(82,400,o),
(75,407,o),
(75,415,cs),
(75,536,ls),
(75,544,o),
(82,551,o),
(90,551,cs),
(332,551,ls),
(341,551,o),
(347,557,o),
(347,566,cs),
(347,586,ls),
(347,595,o),
(341,601,o),
(332,601,cs),
(40,601,ls),
(32,601,o),
(25,594,o),
(25,586,cs),
(25,367,ls),
(25,359,o),
(32,352,o),
(40,352,cs)
);
},
{
closed = 1;
nodes = (
(481,350,ls),
(490,350,o),
(496,356,o),
(496,365,cs),
(496,385,ls),
(496,394,o),
(490,400,o),
(481,400,cs),
(250,400,ls),
(241,400,o),
(235,394,o),
(235,385,cs),
(235,365,ls),
(235,356,o),
(241,350,o),
(250,350,cs)
);
},
{
pos = (108,0);
ref = L;
}
);
width = 524;
}
);
metricLeft = O;
metricRight = L;
unicode = 42925;
},
{
color = 8;
glyphname = Lmiddletilde;
lastChange = "2024-01-03 22:01:47 +0000";
layers = (
{
layerId = "462F72A0-0500-4E69-A49B-6C2F2580580D";
shapes = (
{
closed = 1;
nodes = (
(136,358,ls),
(144,358,o),
(151,363,o),
(153,369,cs),
(174,426,l),
(305,426,l),
(331,373,ls),
(335,364,o),
(342,358,o),
(352,358,cs),
(489,358,ls),
(500,358,o),
(504,362,o),
(508,370,cs),
(573,493,ls),
(578,502,o),
(574,508,o),
(566,508,cs),
(497,508,ls),
(489,508,o),
(482,503,o),
(480,497,cs),
(459,440,l),
(348,440,l),
(322,493,ls),
(318,502,o),
(311,508,o),
(301,508,cs),
(152,508,ls),
(141,508,o),
(137,504,o),
(133,496,cs),
(70,373,ls),
(65,364,o),
(69,358,o),
(77,358,cs)
);
},
{
pos = (157,0);
ref = L;
}
);
width = 663;
},
{
layerId = m002;
shapes = (
{
closed = 1;
nodes = (
(93,358,ls),
(101,358,o),
(108,363,o),
(110,369,cs),
(131,426,l),
(282,426,l),
(308,373,ls),
(312,364,o),
(319,358,o),
(329,358,cs),
(486,358,ls),
(497,358,o),
(501,362,o),
(505,370,cs),
(570,493,ls),
(575,502,o),
(571,508,o),
(563,508,cs),
(494,508,ls),
(486,508,o),
(479,503,o),
(477,497,cs),
(456,440,l),
(325,440,l),
(299,493,ls),
(295,502,o),
(288,508,o),
(278,508,cs),
(109,508,ls),
(98,508,o),
(94,504,o),
(90,496,cs),
(27,373,ls),
(22,364,o),
(26,358,o),
(34,358,cs)
);
},
{
pos = (142,0);
ref = L;
}
);
width = 597;
}
);
metricLeft = O;
metricRight = O;
unicode = 11362;
},
{
color = 8;
glyphname = Lslash;
kernLeft = KO_Lslash;
kernRight = KO_Lslash;
lastChange = "2024-01-03 22:01:47 +0000";
layers = (
{
layerId = "462F72A0-0500-4E69-A49B-6C2F2580580D";
shapes = (
{
closed = 1;
nodes = (
(340,492,ls),
(347,496,o),
(351,501,o),
(351,509,cs),
(351,598,ls),
(351,609,o),
(343,614,o),
(333,609,cs),
(-1,443,ls),
(-8,439,o),
(-12,434,o),
(-12,426,cs),
(-12,337,ls),
(-12,326,o),
(-4,321,o),
(6,326,cs)
);
},
{
ref = L;
}
);
width = 462;
},
{
layerId = m002;
shapes = (
{
closed = 1;
nodes = (
(340,492,ls),
(347,496,o),
(351,501,o),
(351,509,cs),
(351,598,ls),
(351,609,o),
(343,614,o),
(333,609,cs),
(-1,443,ls),
(-8,439,o),
(-12,434,o),
(-12,426,cs),
(-12,337,ls),
(-12,326,o),
(-4,321,o),
(6,326,cs)
);
},
{
ref = L;
}
);
width = 416;
}
);
metricRight = "=L";
unicode = 321;
},
{
color = 8;
glyphname = M;
kernLeft = KO_M;
kernRight = KO_H;
lastChange = "2023-11-26 21:03:08 +0000";
layers = (
{
anchors = (
{
name = bottom;
pos = (482,0);
},
{
name = top;
pos = (482,800);
}
);
layerId = "462F72A0-0500-4E69-A49B-6C2F2580580D";
shapes = (
{
closed = 1;
nodes = (
(257,0,ls),
(266,0,o),
(272,6,o),
(272,15,cs),
(272,640,l),
(382,640,l),
(382,15,ls),
(382,6,o),
(388,0,o),
(397,0,cs),
(567,0,ls),
(576,0,o),
(582,6,o),
(582,15,cs),
(582,640,l),
(692,640,l),
(692,15,ls),
(692,6,o),
(698,0,o),
(707,0,cs),
(877,0,ls),
(886,0,o),
(892,6,o),
(892,15,cs),
(892,666,ls),
(892,676,o),
(889,683,o),
(882,690,cs),
(782,790,ls),
(775,797,o),
(768,800,o),
(758,800,cs),
(621,800,ls),
(611,800,o),
(604,797,o),
(597,790,cs),
(496,689,l),
(468,689,l),
(367,790,ls),
(360,797,o),
(353,800,o),
(343,800,cs),
(206,800,ls),
(196,800,o),
(189,797,o),
(182,790,cs),
(82,690,ls),
(75,683,o),
(72,676,o),
(72,666,cs),
(72,15,ls),
(72,6,o),
(78,0,o),
(87,0,cs)
);
}
);
width = 964;
},
{
anchors = (
{
name = bottom;
pos = (368,0);
},
{
name = top;
pos = (368,800);
}
);
associatedMasterId = "462F72A0-0500-4E69-A49B-6C2F2580580D";
layerId = "9942C253-D868-423E-B459-293273BC47C7";
name = "Jul 30 22, 01:46";
shapes = (
{
closed = 1;
nodes = (
(30,7,o),
(37,0,o),
(45,0,cs),
(249,0,ls),
(257,0,o),
(259,7,o),
(259,15,cs),
(259,386,l),
(279,386,l),
(293,122,ls),
(293,115,o),
(300,109,o),
(307,109,cs),
(423,109,ls),
(430,109,o),
(437,115,o),
(438,122,cs),
(457,386,l),
(477,386,l),
(477,15,ls),
(477,7,o),
(478,0,o),
(486,0,cs),
(690,0,ls),
(698,0,o),
(705,7,o),
(705,15,cs),
(705,785,ls),
(705,793,o),
(698,800,o),
(690,800,cs),
(413,800,ls),
(406,800,o),
(400,796,o),
(399,788,cs),
(375,507,l),
(361,507,l),
(336,788,ls),
(335,796,o),
(329,800,o),
(322,800,cs),
(45,800,ls),
(37,800,o),
(30,793,o),
(30,785,cs),
(30,15,ls)
);
}
);
width = 735;
},
{
anchors = (
{
name = bottom;
pos = (368,0);
},
{
name = top;
pos = (368,800);
}
);
associatedMasterId = "462F72A0-0500-4E69-A49B-6C2F2580580D";
layerId = "C6E8B324-C2B6-4435-A495-12900C5EBB12";
name = "Jul 30 22, 01:47";
shapes = (
{
closed = 1;
nodes = (
(30,7,o),
(37,0,o),
(45,0,cs),
(249,0,ls),
(257,0,o),
(259,7,o),
(259,15,cs),
(259,386,l),
(269,386,l),
(293,122,ls),
(294,115,o),
(300,109,o),
(307,109,cs),
(423,109,ls),
(430,109,o),
(437,115,o),
(438,122,cs),
(467,386,l),
(477,386,l),
(477,15,ls),
(477,7,o),
(478,0,o),
(486,0,cs),
(690,0,ls),
(698,0,o),
(705,7,o),
(705,15,cs),
(705,785,ls),
(705,793,o),
(698,800,o),
(690,800,cs),
(413,800,ls),
(406,800,o),
(400,796,o),
(399,788,cs),
(371,507,l),
(365,507,l),
(336,788,ls),
(335,796,o),
(329,800,o),
(322,800,cs),
(45,800,ls),
(37,800,o),
(30,793,o),
(30,785,cs),
(30,15,ls)
);
}
);
width = 735;
},
{
anchors = (
{
name = bottom;
pos = (450,0);
},
{
name = top;
pos = (450,800);
}
);
layerId = m002;
shapes = (
{
closed = 1;
nodes = (
(260,0,ls),
(269,0,o),
(275,6,o),
(275,15,cs),
(275,510,l),
(325,510,l),
(325,15,ls),
(325,6,o),
(331,0,o),
(340,0,cs),
(560,0,ls),
(569,0,o),
(575,6,o),
(575,15,cs),
(575,510,l),
(625,510,l),
(625,15,ls),
(625,6,o),
(631,0,o),
(640,0,cs),
(860,0,ls),
(869,0,o),
(875,6,o),
(875,15,cs),
(875,646,ls),
(875,656,o),
(872,663,o),
(865,670,cs),
(745,790,ls),
(738,797,o),
(731,800,o),
(721,800,cs),
(589,800,ls),
(579,800,o),
(572,797,o),
(565,790,cs),
(464,689,l),
(436,689,l),
(335,790,ls),
(328,797,o),
(321,800,o),
(311,800,cs),
(179,800,ls),
(169,800,o),
(162,797,o),
(155,790,cs),
(35,670,ls),
(28,663,o),
(25,656,o),
(25,646,cs),
(25,15,ls),
(25,6,o),
(31,0,o),
(40,0,cs)
);
}
);
width = 900;
},
{
anchors = (
{
name = bottom;
pos = (368,0);
},
{
name = top;
pos = (368,800);
}
);
associatedMasterId = m002;
layerId = "E6318F33-3A96-4708-A324-217491F126C0";
name = "Jul 30 22, 01:46";
shapes = (
{
closed = 1;
nodes = (
(30,7,o),
(37,0,o),
(45,0,cs),
(249,0,ls),
(257,0,o),
(259,7,o),
(259,15,cs),
(259,386,l),
(279,386,l),
(293,122,ls),
(293,115,o),
(300,109,o),
(307,109,cs),
(423,109,ls),
(430,109,o),
(437,115,o),
(438,122,cs),
(457,386,l),
(477,386,l),
(477,15,ls),
(477,7,o),
(478,0,o),
(486,0,cs),
(690,0,ls),
(698,0,o),
(705,7,o),
(705,15,cs),
(705,785,ls),
(705,793,o),
(698,800,o),
(690,800,cs),
(413,800,ls),
(406,800,o),
(400,796,o),
(399,788,cs),
(375,507,l),
(361,507,l),
(336,788,ls),
(335,796,o),
(329,800,o),
(322,800,cs),
(45,800,ls),
(37,800,o),
(30,793,o),
(30,785,cs),
(30,15,ls)
);
}
);
width = 735;
},
{
anchors = (
{
name = bottom;
pos = (368,0);
},
{
name = top;
pos = (368,800);
}
);
associatedMasterId = m002;
layerId = "068ACCD8-D675-41BA-9C5D-0B82AD58D73A";
name = "Jul 30 22, 01:47";
shapes = (
{
closed = 1;
nodes = (
(30,7,o),
(37,0,o),
(45,0,cs),
(249,0,ls),
(257,0,o),
(259,7,o),
(259,15,cs),
(259,386,l),
(269,386,l),
(293,122,ls),
(294,115,o),
(300,109,o),
(307,109,cs),
(423,109,ls),
(430,109,o),
(437,115,o),
(438,122,cs),
(467,386,l),
(477,386,l),
(477,15,ls),
(477,7,o),
(478,0,o),
(486,0,cs),
(690,0,ls),
(698,0,o),
(705,7,o),
(705,15,cs),
(705,785,ls),
(705,793,o),
(698,800,o),
(690,800,cs),
(413,800,ls),
(406,800,o),
(400,796,o),
(399,788,cs),
(371,507,l),
(365,507,l),
(336,788,ls),
(335,796,o),
(329,800,o),
(322,800,cs),
(45,800,ls),
(37,800,o),
(30,793,o),
(30,785,cs),
(30,15,ls)
);
}
);
width = 735;
}
);
metricLeft = H;
metricRight = H;
unicode = 77;
},
{
color = 8;
glyphname = N;
kernLeft = KO_H;
kernRight = KO_N;
lastChange = "2023-11-26 21:03:08 +0000";
layers = (
{
anchors = (
{
name = bottom;
pos = (327,0);
},
{
name = bottomhook;
pos = (272,15);
},
{
name = top;
pos = (327,800);
}
);
layerId = "462F72A0-0500-4E69-A49B-6C2F2580580D";
shapes = (
{
closed = 1;
nodes = (
(257,0,ls),
(266,0,o),
(272,6,o),
(272,15,cs),
(272,640,l),
(382,640,l),
(382,15,ls),
(382,6,o),
(388,0,o),
(397,0,cs),
(567,0,ls),
(576,0,o),
(582,6,o),
(582,15,cs),
(582,646,ls),
(582,656,o),
(579,663,o),
(572,670,cs),
(452,790,ls),
(445,797,o),
(438,800,o),
(428,800,cs),
(87,800,ls),
(78,800,o),
(72,794,o),
(72,785,cs),
(72,15,ls),
(72,6,o),
(78,0,o),
(87,0,cs)
);
}
);
width = 654;
},
{
anchors = (
{
name = bottom;
pos = (300,0);
},
{
name = bottomhook;
pos = (275,15);
},
{
name = top;
pos = (300,800);
}
);
layerId = m002;
shapes = (
{
closed = 1;
nodes = (
(260,0,ls),
(269,0,o),
(275,6,o),
(275,15,cs),
(275,560,l),
(325,560,l),
(325,15,ls),
(325,6,o),
(331,0,o),
(340,0,cs),
(560,0,ls),
(569,0,o),
(575,6,o),
(575,15,cs),
(575,646,ls),
(575,656,o),
(572,663,o),
(565,670,cs),
(445,790,ls),
(438,797,o),
(431,800,o),
(421,800,cs),
(40,800,ls),
(31,800,o),
(25,794,o),
(25,785,cs),
(25,15,ls),
(25,6,o),
(31,0,o),
(40,0,cs)
);
}
);
width = 600;
}
);
metricLeft = H;
metricRight = H;
unicode = 78;
},
{
color = 8;
glyphname = Nlongrightleg;
lastChange = "2023-11-26 21:03:08 +0000";
layers = (
{
anchors = (
{
name = bottom;
pos = (299,-30);
},
{
name = bottomhook;
pos = (268,15);
},
{
name = top;
pos = (299,800);
}
);
layerId = "462F72A0-0500-4E69-A49B-6C2F2580580D";
shapes = (
{
closed = 1;
nodes = (
(253,0,ls),
(262,0,o),
(268,6,o),
(268,15,cs),
(268,640,l),
(378,640,l),
(378,-235,ls),
(378,-244,o),
(384,-250,o),
(393,-250,cs),
(563,-250,ls),
(572,-250,o),
(578,-244,o),
(578,-235,cs),
(578,646,ls),
(578,656,o),
(575,663,o),
(568,670,cs),
(448,790,ls),
(441,797,o),
(434,800,o),
(424,800,cs),
(83,800,ls),
(74,800,o),
(68,794,o),
(68,785,cs),
(68,15,ls),
(68,6,o),
(74,0,o),
(83,0,cs)
);
}
);
width = 646;
},
{
anchors = (
{
name = bottom;
pos = (306,-30);
},
{
name = bottomhook;
pos = (275,15);
},
{
name = top;
pos = (306,800);
}
);
layerId = m002;
shapes = (
{
closed = 1;
nodes = (
(260,0,ls),
(269,0,o),
(275,6,o),
(275,15,cs),
(275,560,l),
(325,560,l),
(325,-235,ls),
(325,-244,o),
(331,-250,o),
(340,-250,cs),
(560,-250,ls),
(569,-250,o),
(575,-244,o),
(575,-235,cs),
(575,646,ls),
(575,656,o),
(572,663,o),
(565,670,cs),
(445,790,ls),
(438,797,o),
(431,800,o),
(421,800,cs),
(40,800,ls),
(31,800,o),
(25,794,o),
(25,785,cs),
(25,15,ls),
(25,6,o),
(31,0,o),
(40,0,cs)
);
}
);
width = 600;
}
);
unicode = 544;
},
{
color = 8;
glyphname = Eng;
kernLeft = KO_H;
kernRight = KO_Eng;
lastChange = "2023-11-26 21:03:08 +0000";
layers = (
{
layerId = "462F72A0-0500-4E69-A49B-6C2F2580580D";
shapes = (
{
closed = 1;
nodes = (
(450,-224,ls),
(465,-224,o),
(479,-220,o),
(489,-210,cs),
(561,-141,ls),
(573,-130,o),
(578,-119,o),
(578,-105,cs),
(578,57,l),
(378,59,l),
(378,-80,l),
(299,-80,ls),
(281,-80,o),
(269,-92,o),
(269,-110,cs),
(269,-194,ls),
(269,-212,o),
(281,-224,o),
(299,-224,cs)
);
},
{
ref = N;
}
);
width = 594;
},
{
layerId = m002;
shapes = (
{
closed = 1;
nodes = (
(447,-214,ls),
(462,-214,o),
(476,-210,o),
(486,-200,cs),
(558,-131,ls),
(570,-120,o),
(575,-109,o),
(575,-95,cs),
(575,47,l),
(325,50,l),
(325,-30,l),
(299,-30,ls),
(281,-30,o),
(269,-42,o),
(269,-60,cs),
(269,-184,ls),
(269,-202,o),
(281,-214,o),
(299,-214,cs)
);
},
{
ref = N;
}
);
width = 594;
}
);
unicode = 330;
},
{
color = 8;
glyphname = O;
kernLeft = KO_O;
kernRight = KO_O;
lastChange = "2023-11-26 21:03:08 +0000";
layers = (
{
anchors = (
{
name = bottom;
pos = (306,-30);
},
{
name = center;
pos = (306,400);
},
{
name = ogonek;
pos = (537,10);
},
{
name = top;
pos = (306,800);
},
{
name = topleft;
pos = (37,800);
},
{
name = topright;
pos = (552,790);
}
);
associatedMasterId = "462F72A0-0500-4E69-A49B-6C2F2580580D";
layerId = "F41F3562-3C0B-4214-8D2F-E4B547B75B1E";
name = "Original modified";
shapes = (
{
closed = 1;
nodes = (
(576,102,ls),
(582,107,o),
(584,113,o),
(584,120,cs),
(584,659,ls),
(584,666,o),
(582,672,o),
(577,678,cs),
(467,792,ls),
(462,798,o),
(455,800,o),
(448,800,cs),
(164,800,ls),
(157,800,o),
(150,798,o),
(145,792,cs),
(35,678,ls),
(30,672,o),
(28,666,o),
(28,659,cs),
(28,120,ls),
(28,113,o),
(30,107,o),
(36,102,cs),
(145,7,ls),
(150,2,o),
(157,0,o),
(164,0,cs),
(448,0,ls),
(455,0,o),
(462,2,o),
(467,7,cs)
);
},
{
closed = 1;
nodes = (
(328,575,o),
(337,562,o),
(337,543,c),
(337,252,l),
(337,240,o),
(324,228,o),
(307,228,cs),
(287,228,o),
(276,240,o),
(276,252,c),
(276,543,l),
(276,562,o),
(287,575,o),
(307,575,cs)
);
}
);
width = 612;
},
{
anchors = (
{
name = bottom;
pos = (306,-30);
},
{
name = center;
pos = (306,400);
},
{
name = ogonek;
pos = (537,10);
},
{
name = top;
pos = (306,800);
},
{
name = topleft;
pos = (37,800);
},
{
name = topright;
pos = (552,790);
}
);
associatedMasterId = "462F72A0-0500-4E69-A49B-6C2F2580580D";
layerId = "BBB23940-A844-4195-93EB-158D47E9EBEA";
name = "Jun 2 22, 02:22";
shapes = (
{
closed = 1;
nodes = (
(448,0,ls),
(455,0,o),
(462,2,o),
(467,7,cs),
(576,102,ls),
(582,107,o),
(584,113,o),
(584,120,cs),
(584,659,ls),
(584,666,o),
(582,672,o),
(577,678,cs),
(467,792,ls),
(462,798,o),
(455,800,o),
(448,800,cs),
(164,800,ls),
(157,800,o),
(150,798,o),
(145,792,cs),
(35,678,ls),
(30,672,o),
(28,666,o),
(28,659,cs),
(28,120,ls),
(28,113,o),
(30,107,o),
(36,102,cs),
(145,7,ls),
(150,2,o),
(157,0,o),
(164,0,cs)
);
},
{
closed = 1;
nodes = (
(286,228,o),
(276,241,o),
(276,260,cs),
(276,543,l),
(276,562,o),
(286,575,o),
(307,575,cs),
(328,575,o),
(338,562,o),
(338,543,c),
(338,260,ls),
(338,241,o),
(328,228,o),
(307,228,cs)
);
}
);
width = 612;
},
{
anchors = (
{
name = bottom;
pos = (306,-30);
},
{
name = center;
pos = (306,400);
},
{
name = ogonek;
pos = (537,10);
},
{
name = top;
pos = (306,800);
},
{
name = topleft;
pos = (37,800);
},
{
name = topright;
pos = (552,790);
}
);
associatedMasterId = "462F72A0-0500-4E69-A49B-6C2F2580580D";
layerId = "9E2A38EE-2803-401B-9D1A-CA68C2F1C8F6";
name = "Jun 2 22, 02:23";
shapes = (
{
closed = 1;
nodes = (
(448,0,ls),
(455,0,o),
(462,2,o),
(467,7,cs),
(576,102,ls),
(582,107,o),
(584,113,o),
(584,120,cs),
(584,659,ls),
(584,666,o),
(582,672,o),
(577,678,cs),
(467,792,ls),
(462,798,o),
(455,800,o),
(448,800,cs),
(164,800,ls),
(157,800,o),
(150,798,o),
(145,792,cs),
(35,678,ls),
(30,672,o),
(28,666,o),
(28,659,cs),
(28,120,ls),
(28,113,o),
(30,107,o),
(36,102,cs),
(145,7,ls),
(150,2,o),
(157,0,o),
(164,0,cs)
);
},
{
closed = 1;
nodes = (
(287,228,o),
(276,240,o),
(276,261,cs),
(276,542,l),
(276,563,o),
(287,575,o),
(307,575,cs),
(327,575,o),
(338,563,o),
(338,542,c),
(338,261,ls),
(338,240,o),
(327,228,o),
(307,228,cs)
);
}
);
width = 612;
},
{
anchors = (
{
name = bottom;
pos = (306,-30);
},
{
name = center;
pos = (306,400);
},
{
name = ogonek;
pos = (537,10);
},
{
name = top;
pos = (306,800);
},
{
name = topleft;
pos = (37,800);
},
{
name = topright;
pos = (552,790);
}
);
associatedMasterId = "462F72A0-0500-4E69-A49B-6C2F2580580D";
layerId = "0B6860AB-4073-49CC-9F84-6AA2FC65E6F6";
name = "Jun 2 22, 02:30";
shapes = (
{
closed = 1;
nodes = (
(448,0,ls),
(455,0,o),
(462,2,o),
(467,7,cs),
(576,102,ls),
(582,107,o),
(584,113,o),
(584,120,cs),
(584,659,ls),
(584,666,o),
(582,672,o),
(577,678,cs),
(467,792,ls),
(462,798,o),
(455,800,o),
(448,800,cs),
(164,800,ls),
(157,800,o),
(150,798,o),
(145,792,cs),
(35,678,ls),
(30,672,o),
(28,666,o),
(28,659,cs),
(28,120,ls),
(28,113,o),
(30,107,o),
(36,102,cs),
(145,7,ls),
(150,2,o),
(157,0,o),
(164,0,cs)
);
},
{
closed = 1;
nodes = (
(287,228,o),
(276,240,o),
(276,262,cs),
(276,541,ls),
(276,563,o),
(287,575,o),
(307,575,cs),
(327,575,o),
(338,563,o),
(338,541,cs),
(338,262,ls),
(338,240,o),
(327,228,o),
(307,228,cs)
);
}
);
width = 612;
},
{
anchors = (
{
name = bottom;
pos = (310,-30);
},
{
name = center;
pos = (309,400);
},
{
name = ogonek;
pos = (540,10);
},
{
name = top;
pos = (310,800);
},
{
name = topleft;
pos = (40,800);
},
{
name = topright;
pos = (555,790);
}
);
associatedMasterId = "462F72A0-0500-4E69-A49B-6C2F2580580D";
layerId = "C33C8B93-FF66-4402-9B4F-7A3B58D75BB0";
name = "Jun 2 22, 04:22";
shapes = (
{
closed = 1;
nodes = (
(454,0,ls),
(461,0,o),
(468,2,o),
(473,7,cs),
(582,102,ls),
(588,107,o),
(590,113,o),
(590,120,cs),
(590,659,ls),
(590,666,o),
(588,672,o),
(583,678,cs),
(473,792,ls),
(468,798,o),
(461,800,o),
(454,800,cs),
(164,800,ls),
(157,800,o),
(150,798,o),
(145,792,cs),
(35,678,ls),
(30,672,o),
(28,666,o),
(28,659,cs),
(28,120,ls),
(28,113,o),
(30,107,o),
(36,102,cs),
(145,7,ls),
(150,2,o),
(157,0,o),
(164,0,cs)
);
},
{
closed = 1;
nodes = (
(290,228,o),
(278,240,o),
(278,262,cs),
(278,541,ls),
(278,563,o),
(290,575,o),
(310,575,cs),
(330,575,o),
(342,563,o),
(342,541,cs),
(342,262,ls),
(342,240,o),
(330,228,o),
(310,228,cs)
);
}
);
width = 618;
},
{
anchors = (
{
name = bottom;
pos = (309,-30);
},
{
name = center;
pos = (308,400);
},
{
name = ogonek;
pos = (539,10);
},
{
name = top;
pos = (309,800);
},
{
name = topleft;
pos = (39,800);
},
{
name = topright;
pos = (554,790);
}
);
associatedMasterId = "462F72A0-0500-4E69-A49B-6C2F2580580D";
guides = (
{
angle = 90;
pos = (308,0);
showMeasurement = 1;
}
);
layerId = "D7293291-EF9B-46AD-AA74-C94D66320AE3";
name = "/A";
shapes = (
{
closed = 1;
nodes = (
(263,0,ls),
(272,0,o),
(278,6,o),
(278,15,cs),
(278,228,l),
(338,228,l),
(338,15,ls),
(338,6,o),
(344,0,o),
(353,0,cs),
(567,0,ls),
(576,0,o),
(582,6,o),
(582,15,cs),
(582,571,ls),
(582,578,o),
(580,583,o),
(576,589,cs),
(434,791,ls),
(430,797,o),
(423,800,o),
(415,800,cs),
(200,800,ls),
(192,800,o),
(185,797,o),
(181,791,cs),
(40,589,ls),
(36,583,o),
(34,578,o),
(34,571,cs),
(34,15,ls),
(34,6,o),
(40,0,o),
(49,0,cs)
);
},
{
closed = 1;
nodes = (
(274,437,o),
(250,461,o),
(250,495,cs),
(250,529,o),
(274,553,o),
(308,553,cs),
(342,553,o),
(366,529,o),
(366,495,cs),
(366,461,o),
(342,437,o),
(308,437,cs)
);
}
);
width = 616;
},
{
anchors = (
{
name = bottom;
pos = (309,-30);
},
{
name = center;
pos = (308,400);
},
{
name = ogonek;
pos = (539,10);
},
{
name = top;
pos = (309,800);
},
{
name = topleft;
pos = (39,800);
},
{
name = topright;
pos = (554,790);
}
);
associatedMasterId = "462F72A0-0500-4E69-A49B-6C2F2580580D";
guides = (
{
angle = 90;
pos = (308,0);
showMeasurement = 1;
}
);
layerId = "885A7757-38AE-4384-9BCE-C8132219A168";
name = "Jul 29 22, 20:52";
shapes = (
{
closed = 1;
nodes = (
(452,0,ls),
(459,0,o),
(466,2,o),
(471,8,cs),
(581,122,ls),
(586,128,o),
(588,134,o),
(588,141,cs),
(588,659,ls),
(588,666,o),
(586,672,o),
(581,678,cs),
(471,792,ls),
(466,798,o),
(459,800,o),
(452,800,cs),
(164,800,ls),
(157,800,o),
(150,798,o),
(145,792,cs),
(35,678,ls),
(30,672,o),
(28,666,o),
(28,659,cs),
(28,141,ls),
(28,134,o),
(30,128,o),
(35,122,cs),
(145,8,ls),
(150,2,o),
(157,0,o),
(164,0,cs)
);
},
{
closed = 1;
nodes = (
(288,226,o),
(276,238,o),
(276,260,cs),
(276,540,ls),
(276,562,o),
(288,574,o),
(308,574,cs),
(328,574,o),
(340,562,o),
(340,540,cs),
(340,260,ls),
(340,238,o),
(328,226,o),
(308,226,cs)
);
}
);
width = 616;
},
{
anchors = (
{
name = bottom;
pos = (308,-30);
},
{
name = center;
pos = (307,400);
},
{
name = ogonek;
pos = (538,10);
},
{
name = top;
pos = (308,800);
},
{
name = topleft;
pos = (38,800);
},
{
name = topright;
pos = (553,790);
}
);
associatedMasterId = "462F72A0-0500-4E69-A49B-6C2F2580580D";
guides = (
{
angle = 90;
pos = (307,0);
showMeasurement = 1;
}
);
layerId = "AE51C8C2-EE82-4541-ADA8-3D40C34776A4";
name = "Jul 30 22, 02:14";
shapes = (
{
closed = 1;
nodes = (
(451,0,ls),
(458,0,o),
(465,2,o),
(470,8,cs),
(580,136,ls),
(585,142,o),
(587,148,o),
(587,155,cs),
(587,645,ls),
(587,652,o),
(585,658,o),
(580,664,cs),
(470,792,ls),
(465,798,o),
(458,800,o),
(451,800,cs),
(168,800,ls),
(161,800,o),
(154,798,o),
(149,792,cs),
(34,664,ls),
(29,658,o),
(27,652,o),
(27,645,cs),
(27,155,ls),
(27,148,o),
(29,142,o),
(34,136,cs),
(144,8,ls),
(149,2,o),
(156,0,o),
(163,0,cs)
);
},
{
closed = 1;
nodes = (
(287,226,o),
(275,238,o),
(275,260,cs),
(275,540,ls),
(275,562,o),
(287,574,o),
(307,574,cs),
(327,574,o),
(339,562,o),
(339,540,cs),
(339,260,ls),
(339,238,o),
(327,226,o),
(307,226,cs)
);
}
);
width = 614;
},
{
anchors = (
{
name = bottom;
pos = (341,0);
},
{
name = center;
pos = (340,400);
},
{
name = ogonek;
pos = (458,0);
},
{
name = top;
pos = (341,800);
},
{
name = topleft;
pos = (71,800);
},
{
name = topright;
pos = (458,800);
}
);
guides = (
{
angle = 90;
pos = (340,0);
showMeasurement = 1;
},
{
pos = (340,401);
showMeasurement = 1;
}
);
layerId = "462F72A0-0500-4E69-A49B-6C2F2580580D";
shapes = (
{
closed = 1;
nodes = (
(458,0,ls),
(468,0,o),
(475,3,o),
(482,10,cs),
(602,130,ls),
(609,137,o),
(612,144,o),
(612,154,cs),
(612,646,ls),
(612,656,o),
(609,663,o),
(602,670,cs),
(482,790,ls),
(475,797,o),
(468,800,o),
(458,800,cs),
(222,800,ls),
(212,800,o),
(205,797,o),
(198,790,cs),
(78,670,ls),
(71,663,o),
(68,656,o),
(68,646,cs),
(68,154,ls),
(68,144,o),
(71,137,o),
(78,130,cs),
(198,10,ls),
(205,3,o),
(212,0,o),
(222,0,cs)
);
},
{
closed = 1;
nodes = (
(275,160,o),
(268,172,o),
(268,194,cs),
(268,606,ls),
(268,628,o),
(275,640,o),
(293,640,cs),
(387,640,ls),
(405,640,o),
(412,628,o),
(412,606,cs),
(412,194,ls),
(412,172,o),
(405,160,o),
(387,160,cs),
(293,160,ls)
);
}
);
width = 680;
},
{
anchors = (
{
name = bottom;
pos = (306,-30);
},
{
name = center;
pos = (306,400);
},
{
name = ogonek;
pos = (537,10);
},
{
name = top;
pos = (306,800);
},
{
name = topleft;
pos = (37,800);
},
{
name = topright;
pos = (552,790);
}
);
associatedMasterId = m002;
layerId = "8D310696-1E0A-4CDB-B69A-3F783F1AE484";
name = "Original modified";
shapes = (
{
closed = 1;
nodes = (
(576,102,ls),
(582,107,o),
(584,113,o),
(584,120,cs),
(584,659,ls),
(584,666,o),
(582,672,o),
(577,678,cs),
(467,792,ls),
(462,798,o),
(455,800,o),
(448,800,cs),
(164,800,ls),
(157,800,o),
(150,798,o),
(145,792,cs),
(35,678,ls),
(30,672,o),
(28,666,o),
(28,659,cs),
(28,120,ls),
(28,113,o),
(30,107,o),
(36,102,cs),
(145,7,ls),
(150,2,o),
(157,0,o),
(164,0,cs),
(448,0,ls),
(455,0,o),
(462,2,o),
(467,7,cs)
);
},
{
closed = 1;
nodes = (
(328,575,o),
(337,562,o),
(337,543,c),
(337,252,l),
(337,240,o),
(324,228,o),
(307,228,cs),
(287,228,o),
(276,240,o),
(276,252,c),
(276,543,l),
(276,562,o),
(287,575,o),
(307,575,cs)
);
}
);
width = 612;
},
{
anchors = (
{
name = bottom;
pos = (306,-30);
},
{
name = center;
pos = (306,400);
},
{
name = ogonek;
pos = (537,10);
},
{
name = top;
pos = (306,800);
},
{
name = topleft;
pos = (37,800);
},
{
name = topright;
pos = (552,790);
}
);
associatedMasterId = m002;
layerId = "16C986B1-8099-4324-8481-6257613F91CA";
name = "Jun 2 22, 02:22";
shapes = (
{
closed = 1;
nodes = (
(448,0,ls),
(455,0,o),
(462,2,o),
(467,7,cs),
(576,102,ls),
(582,107,o),
(584,113,o),
(584,120,cs),
(584,659,ls),
(584,666,o),
(582,672,o),
(577,678,cs),
(467,792,ls),
(462,798,o),
(455,800,o),
(448,800,cs),
(164,800,ls),
(157,800,o),
(150,798,o),
(145,792,cs),
(35,678,ls),
(30,672,o),
(28,666,o),
(28,659,cs),
(28,120,ls),
(28,113,o),
(30,107,o),
(36,102,cs),
(145,7,ls),
(150,2,o),
(157,0,o),
(164,0,cs)
);
},
{
closed = 1;
nodes = (
(286,228,o),
(276,241,o),
(276,260,cs),
(276,543,l),
(276,562,o),
(286,575,o),
(307,575,cs),
(328,575,o),
(338,562,o),
(338,543,c),
(338,260,ls),
(338,241,o),
(328,228,o),
(307,228,cs)
);
}
);
width = 612;
},
{
anchors = (
{
name = bottom;
pos = (306,-30);
},
{
name = center;
pos = (306,400);
},
{
name = ogonek;
pos = (537,10);
},
{
name = top;
pos = (306,800);
},
{
name = topleft;
pos = (37,800);
},
{
name = topright;
pos = (552,790);
}
);
associatedMasterId = m002;
layerId = "F1632B4C-5161-43FB-B3D1-70752BCB9FFD";
name = "Jun 2 22, 02:23";
shapes = (
{
closed = 1;
nodes = (
(448,0,ls),
(455,0,o),
(462,2,o),
(467,7,cs),
(576,102,ls),
(582,107,o),
(584,113,o),
(584,120,cs),
(584,659,ls),
(584,666,o),
(582,672,o),
(577,678,cs),
(467,792,ls),
(462,798,o),
(455,800,o),
(448,800,cs),
(164,800,ls),
(157,800,o),
(150,798,o),
(145,792,cs),
(35,678,ls),
(30,672,o),
(28,666,o),
(28,659,cs),
(28,120,ls),
(28,113,o),
(30,107,o),
(36,102,cs),
(145,7,ls),
(150,2,o),
(157,0,o),
(164,0,cs)
);
},
{
closed = 1;
nodes = (
(287,228,o),
(276,240,o),
(276,261,cs),
(276,542,l),
(276,563,o),
(287,575,o),
(307,575,cs),
(327,575,o),
(338,563,o),
(338,542,c),
(338,261,ls),
(338,240,o),
(327,228,o),
(307,228,cs)
);
}
);
width = 612;
},
{
anchors = (
{
name = bottom;
pos = (306,-30);
},
{
name = center;
pos = (306,400);
},
{
name = ogonek;
pos = (537,10);
},
{
name = top;
pos = (306,800);
},
{
name = topleft;
pos = (37,800);
},
{
name = topright;
pos = (552,790);
}
);
associatedMasterId = m002;
layerId = "BC1BB8B9-F15D-40B5-9664-06AAB14BB582";
name = "Jun 2 22, 02:30";
shapes = (
{
closed = 1;
nodes = (
(448,0,ls),
(455,0,o),
(462,2,o),
(467,7,cs),
(576,102,ls),
(582,107,o),
(584,113,o),
(584,120,cs),
(584,659,ls),
(584,666,o),
(582,672,o),
(577,678,cs),
(467,792,ls),
(462,798,o),
(455,800,o),
(448,800,cs),
(164,800,ls),
(157,800,o),
(150,798,o),
(145,792,cs),
(35,678,ls),
(30,672,o),
(28,666,o),
(28,659,cs),
(28,120,ls),
(28,113,o),
(30,107,o),
(36,102,cs),
(145,7,ls),
(150,2,o),
(157,0,o),
(164,0,cs)
);
},
{
closed = 1;
nodes = (
(287,228,o),
(276,240,o),
(276,262,cs),
(276,541,ls),
(276,563,o),
(287,575,o),
(307,575,cs),
(327,575,o),
(338,563,o),
(338,541,cs),
(338,262,ls),
(338,240,o),
(327,228,o),
(307,228,cs)
);
}
);
width = 612;
},
{
anchors = (
{
name = bottom;
pos = (310,-30);
},
{
name = center;
pos = (309,400);
},
{
name = ogonek;
pos = (540,10);
},
{
name = top;
pos = (310,800);
},
{
name = topleft;
pos = (40,800);
},
{
name = topright;
pos = (555,790);
}
);
associatedMasterId = m002;
layerId = "0C0C0955-5AC9-4779-9761-192D4840C5A5";
name = "Jun 2 22, 04:22";
shapes = (
{
closed = 1;
nodes = (
(454,0,ls),
(461,0,o),
(468,2,o),
(473,7,cs),
(582,102,ls),
(588,107,o),
(590,113,o),
(590,120,cs),
(590,659,ls),
(590,666,o),
(588,672,o),
(583,678,cs),
(473,792,ls),
(468,798,o),
(461,800,o),
(454,800,cs),
(164,800,ls),
(157,800,o),
(150,798,o),
(145,792,cs),
(35,678,ls),
(30,672,o),
(28,666,o),
(28,659,cs),
(28,120,ls),
(28,113,o),
(30,107,o),
(36,102,cs),
(145,7,ls),
(150,2,o),
(157,0,o),
(164,0,cs)
);
},
{
closed = 1;
nodes = (
(290,228,o),
(278,240,o),
(278,262,cs),
(278,541,ls),
(278,563,o),
(290,575,o),
(310,575,cs),
(330,575,o),
(342,563,o),
(342,541,cs),
(342,262,ls),
(342,240,o),
(330,228,o),
(310,228,cs)
);
}
);
width = 618;
},
{
anchors = (
{
name = bottom;
pos = (309,-30);
},
{
name = center;
pos = (308,400);
},
{
name = ogonek;
pos = (539,10);
},
{
name = top;
pos = (309,800);
},
{
name = topleft;
pos = (39,800);
},
{
name = topright;
pos = (554,790);
}
);
associatedMasterId = m002;
guides = (
{
angle = 90;
pos = (308,0);
showMeasurement = 1;
}
);
layerId = "1F475E80-1980-4A6B-9EF6-9BAD5EA591B8";
name = "/A";
shapes = (
{
closed = 1;
nodes = (
(263,0,ls),
(272,0,o),
(278,6,o),
(278,15,cs),
(278,228,l),
(338,228,l),
(338,15,ls),
(338,6,o),
(344,0,o),
(353,0,cs),
(567,0,ls),
(576,0,o),
(582,6,o),
(582,15,cs),
(582,571,ls),
(582,578,o),
(580,583,o),
(576,589,cs),
(434,791,ls),
(430,797,o),
(423,800,o),
(415,800,cs),
(200,800,ls),
(192,800,o),
(185,797,o),
(181,791,cs),
(40,589,ls),
(36,583,o),
(34,578,o),
(34,571,cs),
(34,15,ls),
(34,6,o),
(40,0,o),
(49,0,cs)
);
},
{
closed = 1;
nodes = (
(274,437,o),
(250,461,o),
(250,495,cs),
(250,529,o),
(274,553,o),
(308,553,cs),
(342,553,o),
(366,529,o),
(366,495,cs),
(366,461,o),
(342,437,o),
(308,437,cs)
);
}
);
width = 616;
},
{
anchors = (
{
name = bottom;
pos = (309,-30);
},
{
name = center;
pos = (308,400);
},
{
name = ogonek;
pos = (539,10);
},
{
name = top;
pos = (309,800);
},
{
name = topleft;
pos = (39,800);
},
{
name = topright;
pos = (554,790);
}
);
associatedMasterId = m002;
guides = (
{
angle = 90;
pos = (308,0);
showMeasurement = 1;
}
);
layerId = "7CA3B474-28BC-45D0-93CA-2ED4EE34B2F8";
name = "Jul 29 22, 20:52";
shapes = (
{
closed = 1;
nodes = (
(452,0,ls),
(459,0,o),
(466,2,o),
(471,8,cs),
(581,122,ls),
(586,128,o),
(588,134,o),
(588,141,cs),
(588,659,ls),
(588,666,o),
(586,672,o),
(581,678,cs),
(471,792,ls),
(466,798,o),
(459,800,o),
(452,800,cs),
(164,800,ls),
(157,800,o),
(150,798,o),
(145,792,cs),
(35,678,ls),
(30,672,o),
(28,666,o),
(28,659,cs),
(28,141,ls),
(28,134,o),
(30,128,o),
(35,122,cs),
(145,8,ls),
(150,2,o),
(157,0,o),
(164,0,cs)
);
},
{
closed = 1;
nodes = (
(288,226,o),
(276,238,o),
(276,260,cs),
(276,540,ls),
(276,562,o),
(288,574,o),
(308,574,cs),
(328,574,o),
(340,562,o),
(340,540,cs),
(340,260,ls),
(340,238,o),
(328,226,o),
(308,226,cs)
);
}
);
width = 616;
},
{
anchors = (
{
name = bottom;
pos = (308,-30);
},
{
name = center;
pos = (307,400);
},
{
name = ogonek;
pos = (538,10);
},
{
name = top;
pos = (308,800);
},
{
name = topleft;
pos = (38,800);
},
{
name = topright;
pos = (553,790);
}
);
associatedMasterId = m002;
guides = (
{
angle = 90;
pos = (307,0);
showMeasurement = 1;
}
);
layerId = "B8BE36B6-6581-4E31-B223-4699A44EA4B6";
name = "Jul 30 22, 02:14";
shapes = (
{
closed = 1;
nodes = (
(451,0,ls),
(458,0,o),
(465,2,o),
(470,8,cs),
(580,136,ls),
(585,142,o),
(587,148,o),
(587,155,cs),
(587,645,ls),
(587,652,o),
(585,658,o),
(580,664,cs),
(470,792,ls),
(465,798,o),
(458,800,o),
(451,800,cs),
(168,800,ls),
(161,800,o),
(154,798,o),
(149,792,cs),
(34,664,ls),
(29,658,o),
(27,652,o),
(27,645,cs),
(27,155,ls),
(27,148,o),
(29,142,o),
(34,136,cs),
(144,8,ls),
(149,2,o),
(156,0,o),
(163,0,cs)
);
},
{
closed = 1;
nodes = (
(287,226,o),
(275,238,o),
(275,260,cs),
(275,540,ls),
(275,562,o),
(287,574,o),
(307,574,cs),
(327,574,o),
(339,562,o),
(339,540,cs),
(339,260,ls),
(339,238,o),
(327,226,o),
(307,226,cs)
);
}
);
width = 614;
},
{
anchors = (
{
name = bottom;
pos = (304,0);
},
{
name = center;
pos = (252,400);
},
{
name = ogonek;
pos = (423,0);
},
{
name = top;
pos = (304,800);
},
{
name = topleft;
pos = (-17,800);
},
{
name = topright;
pos = (425,800);
}
);
guides = (
{
angle = 90;
pos = (252,0);
showMeasurement = 1;
}
);
layerId = m002;
shapes = (
{
closed = 1;
nodes = (
(425,0,ls),
(435,0,o),
(442,3,o),
(449,10,cs),
(569,130,ls),
(576,137,o),
(579,144,o),
(579,154,cs),
(579,646,ls),
(579,656,o),
(576,663,o),
(569,670,cs),
(449,790,ls),
(442,797,o),
(435,800,o),
(425,800,cs),
(179,800,ls),
(169,800,o),
(162,797,o),
(155,790,cs),
(35,670,ls),
(28,663,o),
(25,656,o),
(25,646,cs),
(25,154,ls),
(25,144,o),
(28,137,o),
(35,130,cs),
(155,10,ls),
(162,3,o),
(169,0,o),
(179,0,cs)
);
},
{
closed = 1;
nodes = (
(282,240,o),
(275,252,o),
(275,274,cs),
(275,526,ls),
(275,548,o),
(282,560,o),
(300,560,cs),
(304,560,ls),
(322,560,o),
(329,548,o),
(329,526,cs),
(329,274,ls),
(329,252,o),
(322,240,o),
(304,240,cs),
(300,240,ls)
);
}
);
width = 604;
}
);
unicode = 79;
userData = {
KernOnName = O;
};
},
{
color = 8;
glyphname = OU;
lastChange = "2023-11-26 21:03:08 +0000";
layers = (
{
layerId = "462F72A0-0500-4E69-A49B-6C2F2580580D";
shapes = (
{
closed = 1;
nodes = (
(458,0,ls),
(468,0,o),
(475,3,o),
(482,10,cs),
(602,130,ls),
(609,137,o),
(612,144,o),
(612,154,cs),
(612,446,ls),
(612,456,o),
(609,463,o),
(602,470,cs),
(482,590,ls),
(475,597,o),
(468,600,o),
(458,600,cs),
(222,600,ls),
(212,600,o),
(205,597,o),
(198,590,cs),
(78,470,ls),
(71,463,o),
(68,456,o),
(68,446,cs),
(68,154,ls),
(68,144,o),
(71,137,o),
(78,130,cs),
(198,10,ls),
(205,3,o),
(212,0,o),
(222,0,cs)
);
},
{
closed = 1;
nodes = (
(275,160,o),
(268,172,o),
(268,194,cs),
(268,406,ls),
(268,428,o),
(275,440,o),
(293,440,cs),
(387,440,ls),
(405,440,o),
(412,428,o),
(412,406,cs),
(412,194,ls),
(412,172,o),
(405,160,o),
(387,160,cs),
(293,160,ls)
);
},
{
closed = 1;
nodes = (
(458,439,ls),
(468,439,o),
(475,442,o),
(482,449,cs),
(602,569,ls),
(609,576,o),
(612,583,o),
(612,593,cs),
(612,800,l),
(412,800,l),
(412,633,ls),
(412,611,o),
(405,599,o),
(387,599,cs),
(293,599,ls),
(275,599,o),
(268,611,o),
(268,633,cs),
(268,800,l),
(68,800,l),
(68,593,ls),
(68,583,o),
(71,576,o),
(78,569,cs),
(198,449,ls),
(205,442,o),
(212,439,o),
(222,439,cs)
);
}
);
width = 680;
},
{
layerId = m002;
shapes = (
{
closed = 1;
nodes = (
(421,0,ls),
(431,0,o),
(438,3,o),
(445,10,cs),
(565,130,ls),
(572,137,o),
(575,144,o),
(575,154,cs),
(575,470,ls),
(575,480,o),
(572,487,o),
(565,494,cs),
(445,614,ls),
(438,621,o),
(431,624,o),
(421,624,cs),
(179,624,ls),
(169,624,o),
(162,621,o),
(155,614,cs),
(35,494,ls),
(28,487,o),
(25,480,o),
(25,470,cs),
(25,154,ls),
(25,144,o),
(28,137,o),
(35,130,cs),
(155,10,ls),
(162,3,o),
(169,0,o),
(179,0,cs)
);
},
{
closed = 1;
nodes = (
(280,240,o),
(273,252,o),
(273,274,cs),
(273,350,ls),
(273,372,o),
(280,384,o),
(298,384,cs),
(302,384,ls),
(320,384,o),
(327,372,o),
(327,350,cs),
(327,274,ls),
(327,252,o),
(320,240,o),
(302,240,cs),
(298,240,ls)
);
},
{
closed = 1;
nodes = (
(421,384,ls),
(431,384,o),
(438,387,o),
(445,394,cs),
(565,514,ls),
(572,521,o),
(575,528,o),
(575,538,cs),
(575,800,l),
(327,800,l),
(327,658,ls),
(327,636,o),
(320,624,o),
(302,624,cs),
(298,624,ls),
(280,624,o),
(273,636,o),
(273,658,cs),
(273,800,l),
(25,800,l),
(25,538,ls),
(25,528,o),
(28,521,o),
(35,514,cs),
(155,394,ls),
(162,387,o),
(169,384,o),
(179,384,cs)
);
}
);
width = 600;
}
);
metricLeft = O;
metricRight = O;
unicode = 546;
},
{
color = 8;
glyphname = "Omega-latin";
lastChange = "2023-11-26 21:03:08 +0000";
layers = (
{
layerId = "462F72A0-0500-4E69-A49B-6C2F2580580D";
shapes = (
{
closed = 1;
nodes = (
(374,0,ls),
(384,0,o),
(391,3,o),
(398,10,cs),
(499,111,l),
(507,111,l),
(608,10,ls),
(615,3,o),
(622,0,o),
(632,0,cs),
(784,0,ls),
(794,0,o),
(801,3,o),
(808,10,cs),
(928,130,ls),
(935,137,o),
(938,144,o),
(938,154,cs),
(938,676,ls),
(938,686,o),
(935,693,o),
(928,700,cs),
(838,790,ls),
(831,797,o),
(824,800,o),
(814,800,cs),
(753,800,ls),
(744,800,o),
(738,794,o),
(738,785,cs),
(738,230,l),
(603,230,l),
(603,785,ls),
(603,794,o),
(597,800,o),
(588,800,cs),
(418,800,ls),
(409,800,o),
(403,794,o),
(403,785,cs),
(403,230,l),
(268,230,l),
(268,785,ls),
(268,794,o),
(262,800,o),
(253,800,cs),
(192,800,ls),
(182,800,o),
(175,797,o),
(168,790,cs),
(78,700,ls),
(71,693,o),
(68,686,o),
(68,676,cs),
(68,154,ls),
(68,144,o),
(71,137,o),
(78,130,cs),
(198,10,ls),
(205,3,o),
(212,0,o),
(222,0,cs)
);
}
);
width = 1006;
},
{
layerId = m002;
shapes = (
{
closed = 1;
nodes = (
(311,0,ls),
(321,0,o),
(328,3,o),
(335,10,cs),
(436,111,l),
(464,111,l),
(565,10,ls),
(572,3,o),
(579,0,o),
(589,0,cs),
(721,0,ls),
(731,0,o),
(738,3,o),
(745,10,cs),
(865,130,ls),
(872,137,o),
(875,144,o),
(875,154,cs),
(875,646,ls),
(875,656,o),
(872,663,o),
(865,670,cs),
(745,790,ls),
(738,797,o),
(731,800,o),
(721,800,cs),
(640,800,ls),
(631,800,o),
(625,794,o),
(625,785,cs),
(625,290,l),
(575,290,l),
(575,785,ls),
(575,794,o),
(569,800,o),
(560,800,cs),
(340,800,ls),
(331,800,o),
(325,794,o),
(325,785,cs),
(325,290,l),
(275,290,l),
(275,785,ls),
(275,794,o),
(269,800,o),
(260,800,cs),
(179,800,ls),
(169,800,o),
(162,797,o),
(155,790,cs),
(35,670,ls),
(28,663,o),
(25,656,o),
(25,646,cs),
(25,154,ls),
(25,144,o),
(28,137,o),
(35,130,cs),
(155,10,ls),
(162,3,o),
(169,0,o),
(179,0,cs)
);
}
);
width = 900;
}
);
metricLeft = O;
metricRight = O;
unicode = 42934;
},
{
color = 8;
glyphname = OE;
kernLeft = KO_O;
kernRight = KO_E;
lastChange = "2023-11-26 21:03:08 +0000";
layers = (
{
associatedMasterId = "462F72A0-0500-4E69-A49B-6C2F2580580D";
layerId = "B771DCE8-F7BC-4EC8-842A-FB14B079C25B";
name = "Jul 10 22, 17:32";
shapes = (
{
ref = O;
},
{
alignment = -1;
pos = (300,0);
ref = E;
}
);
width = 796;
},
{
anchors = (
{
name = bottom;
pos = (309,-30);
},
{
name = center;
pos = (308,400);
},
{
name = ogonek;
pos = (539,10);
},
{
name = top;
pos = (309,800);
},
{
name = topleft;
pos = (39,800);
},
{
name = topright;
pos = (554,790);
}
);
associatedMasterId = "462F72A0-0500-4E69-A49B-6C2F2580580D";
layerId = "78042DB7-A5F5-4B9C-B355-1539F89D4BD7";
name = "Jul 10 22, 17:32";
shapes = (
{
closed = 1;
nodes = (
(452,0,ls),
(459,0,o),
(466,2,o),
(471,8,cs),
(581,122,ls),
(586,128,o),
(588,134,o),
(588,141,cs),
(588,659,ls),
(588,666,o),
(586,672,o),
(581,678,cs),
(471,792,ls),
(466,798,o),
(459,800,o),
(452,800,cs),
(164,800,ls),
(157,800,o),
(150,798,o),
(145,792,cs),
(35,678,ls),
(30,672,o),
(28,666,o),
(28,659,cs),
(28,141,ls),
(28,134,o),
(30,128,o),
(35,122,cs),
(145,8,ls),
(150,2,o),
(157,0,o),
(164,0,cs)
);
},
{
closed = 1;
nodes = (
(288,226,o),
(276,238,o),
(276,260,cs),
(276,540,ls),
(276,562,o),
(288,574,o),
(308,574,c),
(340,574,l),
(340,226,l),
(308,226,l)
);
},
{
closed = 1;
nodes = (
(778,785,ls),
(778,793,o),
(771,800,o),
(763,800,cs),
(345,800,ls),
(337,800,o),
(330,793,o),
(330,785,cs),
(330,15,ls),
(330,7,o),
(337,0,o),
(345,0,cs),
(777,1,ls),
(785,1,o),
(792,8,o),
(792,16,cs),
(792,218,ls),
(792,226,o),
(785,233,o),
(777,233,cs),
(577,233,l),
(577,279,l),
(763,279,ls),
(771,279,o),
(778,286,o),
(778,294,cs),
(778,487,ls),
(778,495,o),
(771,502,o),
(763,502,cs),
(577,502,l),
(577,556,l),
(763,556,ls),
(771,556,o),
(778,563,o),
(778,571,cs)
);
}
);
width = 796;
},
{
anchors = (
{
name = bottom;
pos = (632,0);
},
{
name = top;
pos = (632,800);
}
);
layerId = "462F72A0-0500-4E69-A49B-6C2F2580580D";
shapes = (
{
closed = 1;
nodes = (
(845,0,ls),
(853,0,o),
(860,7,o),
(860,15,cs),
(860,145,ls),
(860,153,o),
(853,160,o),
(845,160,cs),
(612,160,l),
(612,330,l),
(825,330,ls),
(833,330,o),
(840,337,o),
(840,345,cs),
(840,455,ls),
(840,463,o),
(833,470,o),
(825,470,cs),
(612,470,l),
(612,640,l),
(845,640,ls),
(853,640,o),
(860,647,o),
(860,655,cs),
(860,785,ls),
(860,793,o),
(853,800,o),
(845,800,cs),
(222,800,ls),
(212,800,o),
(205,797,o),
(198,790,cs),
(78,670,ls),
(71,663,o),
(68,656,o),
(68,646,cs),
(68,154,ls),
(68,144,o),
(71,137,o),
(78,130,cs),
(198,10,ls),
(205,3,o),
(212,0,o),
(222,0,cs)
);
},
{
closed = 1;
nodes = (
(275,160,o),
(268,172,o),
(268,194,cs),
(268,606,ls),
(268,628,o),
(275,640,o),
(293,640,cs),
(387,640,ls),
(405,640,o),
(412,628,o),
(412,606,cs),
(412,194,ls),
(412,172,o),
(405,160,o),
(387,160,cs),
(293,160,ls)
);
}
);
width = 932;
},
{
associatedMasterId = m002;
layerId = "A38F4E60-AD32-478F-B284-2DBAC7F6AD6B";
name = "Jul 10 22, 17:32";
shapes = (
{
ref = O;
},
{
alignment = -1;
pos = (300,0);
ref = E;
}
);
width = 796;
},
{
anchors = (
{
name = bottom;
pos = (309,-30);
},
{
name = center;
pos = (308,400);
},
{
name = ogonek;
pos = (539,10);
},
{
name = top;
pos = (309,800);
},
{
name = topleft;
pos = (39,800);
},
{
name = topright;
pos = (554,790);
}
);
associatedMasterId = m002;
layerId = "66B06FA0-ACFD-4ADD-867E-AE2FEE225A3C";
name = "Jul 10 22, 17:32";
shapes = (
{
closed = 1;
nodes = (
(452,0,ls),
(459,0,o),
(466,2,o),
(471,8,cs),
(581,122,ls),
(586,128,o),
(588,134,o),
(588,141,cs),
(588,659,ls),
(588,666,o),
(586,672,o),
(581,678,cs),
(471,792,ls),
(466,798,o),
(459,800,o),
(452,800,cs),
(164,800,ls),
(157,800,o),
(150,798,o),
(145,792,cs),
(35,678,ls),
(30,672,o),
(28,666,o),
(28,659,cs),
(28,141,ls),
(28,134,o),
(30,128,o),
(35,122,cs),
(145,8,ls),
(150,2,o),
(157,0,o),
(164,0,cs)
);
},
{
closed = 1;
nodes = (
(288,226,o),
(276,238,o),
(276,260,cs),
(276,540,ls),
(276,562,o),
(288,574,o),
(308,574,c),
(340,574,l),
(340,226,l),
(308,226,l)
);
},
{
closed = 1;
nodes = (
(778,785,ls),
(778,793,o),
(771,800,o),
(763,800,cs),
(345,800,ls),
(337,800,o),
(330,793,o),
(330,785,cs),
(330,15,ls),
(330,7,o),
(337,0,o),
(345,0,cs),
(777,1,ls),
(785,1,o),
(792,8,o),
(792,16,cs),
(792,218,ls),
(792,226,o),
(785,233,o),
(777,233,cs),
(577,233,l),
(577,279,l),
(763,279,ls),
(771,279,o),
(778,286,o),
(778,294,cs),
(778,487,ls),
(778,495,o),
(771,502,o),
(763,502,cs),
(577,502,l),
(577,556,l),
(763,556,ls),
(771,556,o),
(778,563,o),
(778,571,cs)
);
}
);
width = 796;
},
{
anchors = (
{
name = bottom;
pos = (406,0);
},
{
name = top;
pos = (406,800);
}
);
layerId = m002;
shapes = (
{
closed = 1;
nodes = (
(771,1,ls),
(779,1,o),
(786,8,o),
(786,16,cs),
(786,218,ls),
(786,226,o),
(779,233,o),
(771,233,cs),
(571,233,l),
(571,279,l),
(757,279,ls),
(765,279,o),
(772,286,o),
(772,294,cs),
(772,487,ls),
(772,495,o),
(765,502,o),
(757,502,cs),
(571,502,l),
(571,556,l),
(757,556,ls),
(765,556,o),
(772,563,o),
(772,571,cs),
(772,785,ls),
(772,793,o),
(765,800,o),
(757,800,cs),
(161,800,ls),
(154,800,o),
(147,798,o),
(142,792,cs),
(32,678,ls),
(27,672,o),
(25,666,o),
(25,659,cs),
(25,141,ls),
(25,134,o),
(27,128,o),
(32,122,cs),
(142,8,ls),
(147,2,o),
(154,0,o),
(161,0,cs)
);
},
{
closed = 1;
nodes = (
(282,240,o),
(275,252,o),
(275,274,cs),
(275,526,ls),
(275,548,o),
(282,560,o),
(300,560,cs),
(304,560,ls),
(322,560,o),
(329,548,o),
(329,526,cs),
(329,274,ls),
(329,252,o),
(322,240,o),
(304,240,cs),
(300,240,ls)
);
}
);
width = 811;
}
);
metricLeft = "=O";
metricRight = "=E";
unicode = 338;
},
{
color = 8;
glyphname = P;
kernLeft = KO_H;
kernRight = KO_P;
lastChange = "2023-11-26 21:03:08 +0000";
layers = (
{
anchors = (
{
name = bottom;
pos = (283,0);
},
{
name = hook;
pos = (87,800);
},
{
name = top;
pos = (263,800);
}
);
guides = (
{
angle = 90;
pos = (317,440);
showMeasurement = 1;
},
{
angle = -45;
pos = (492,730);
},
{
pos = (231,543);
showMeasurement = 1;
}
);
layerId = "462F72A0-0500-4E69-A49B-6C2F2580580D";
shapes = (
{
closed = 1;
nodes = (
(257,0,ls),
(266,0,o),
(272,6,o),
(272,15,cs),
(272,285,l),
(419,285,ls),
(429,285,o),
(436,288,o),
(443,295,cs),
(563,415,ls),
(570,422,o),
(573,429,o),
(573,439,cs),
(573,646,ls),
(573,656,o),
(570,663,o),
(563,670,cs),
(443,790,ls),
(436,797,o),
(429,800,o),
(419,800,cs),
(87,800,ls),
(78,800,o),
(72,794,o),
(72,785,cs),
(72,15,ls),
(72,6,o),
(78,0,o),
(87,0,cs)
);
},
{
closed = 1;
nodes = (
(251,448,o),
(231,469,o),
(231,543,cs),
(231,617,o),
(251,638,o),
(317,638,cs),
(383,638,o),
(403,617,o),
(403,543,cs),
(403,469,o),
(383,448,o),
(317,448,cs)
);
}
);
width = 598;
},
{
anchors = (
{
name = bottom;
pos = (287,0);
},
{
name = top;
pos = (267,800);
}
);
associatedMasterId = "462F72A0-0500-4E69-A49B-6C2F2580580D";
layerId = "5ECDAB8A-5EC8-42C5-B82C-5708EE8BE47A";
name = "Jun 2 22, 03:01";
shapes = (
{
closed = 1;
nodes = (
(259,0,ls),
(267,0,o),
(274,7,o),
(274,15,cs),
(274,123,ls),
(274,131,o),
(281,138,o),
(289,138,cs),
(434,138,ls),
(438,138,o),
(443,140,o),
(445,143,cs),
(558,297,ls),
(559,299,o),
(560,302,o),
(560,304,cs),
(560,629,ls),
(560,631,o),
(559,633,o),
(557,636,cs),
(428,795,ls),
(426,798,o),
(422,800,o),
(418,800,cs),
(47,800,ls),
(39,800,o),
(32,793,o),
(32,785,cs),
(30,15,ls),
(30,7,o),
(37,0,o),
(45,0,cs)
);
},
{
closed = 1;
nodes = (
(274,575,l),
(292,575,ls),
(313,575,o),
(322,557,o),
(322,524,cs),
(322,386,ls),
(322,355,o),
(309,338,o),
(292,338,cs),
(274,338,l)
);
}
);
width = 586;
},
{
anchors = (
{
name = bottom;
pos = (287,0);
},
{
name = top;
pos = (267,800);
}
);
associatedMasterId = "462F72A0-0500-4E69-A49B-6C2F2580580D";
layerId = "0022E35B-B556-43D3-9303-D60AF465B45B";
name = "Jun 3 22, 17:40";
shapes = (
{
closed = 1;
nodes = (
(259,0,ls),
(267,0,o),
(274,7,o),
(274,15,cs),
(274,123,ls),
(274,131,o),
(281,138,o),
(289,138,cs),
(434,138,ls),
(438,138,o),
(443,140,o),
(445,143,cs),
(558,297,ls),
(559,299,o),
(560,302,o),
(560,304,cs),
(560,629,ls),
(560,631,o),
(559,633,o),
(557,636,cs),
(428,795,ls),
(426,798,o),
(422,800,o),
(418,800,cs),
(47,800,ls),
(39,800,o),
(32,793,o),
(32,785,cs),
(30,15,ls),
(30,7,o),
(37,0,o),
(45,0,cs)
);
},
{
closed = 1;
nodes = (
(284,338,o),
(272,350,o),
(272,372,cs),
(272,542,ls),
(272,564,o),
(284,576,o),
(304,576,cs),
(324,576,o),
(336,564,o),
(336,542,cs),
(336,372,ls),
(336,350,o),
(324,338,o),
(304,338,cs)
);
}
);
width = 586;
},
{
anchors = (
{
name = bottom;
pos = (287,0);
},
{
name = top;
pos = (267,800);
}
);
associatedMasterId = "462F72A0-0500-4E69-A49B-6C2F2580580D";
layerId = "172687C7-AB7E-4E18-8535-9C1AA72BD2F0";
name = "Jun 3 22, 17:45";
shapes = (
{
closed = 1;
nodes = (
(259,0,ls),
(267,0,o),
(274,7,o),
(274,15,cs),
(274,123,ls),
(274,131,o),
(281,138,o),
(289,138,cs),
(434,138,ls),
(438,138,o),
(443,140,o),
(445,143,cs),
(558,297,ls),
(559,299,o),
(560,302,o),
(560,304,cs),
(560,629,ls),
(560,631,o),
(559,633,o),
(557,636,cs),
(428,795,ls),
(426,798,o),
(422,800,o),
(418,800,cs),
(47,800,ls),
(39,800,o),
(32,793,o),
(32,785,cs),
(30,15,ls),
(30,7,o),
(37,0,o),
(45,0,cs)
);
},
{
closed = 1;
nodes = (
(284,338,o),
(272,350,o),
(272,372,cs),
(272,542,ls),
(272,564,o),
(284,576,o),
(304,576,cs),
(324,576,o),
(336,564,o),
(336,542,cs),
(336,372,ls),
(336,350,o),
(324,338,o),
(304,338,cs)
);
}
);
width = 585;
},
{
anchors = (
{
name = bottom;
pos = (287,0);
},
{
name = top;
pos = (267,800);
}
);
associatedMasterId = "462F72A0-0500-4E69-A49B-6C2F2580580D";
guides = (
{
angle = 90;
pos = (304,0);
showMeasurement = 1;
}
);
layerId = "3EA6B3E1-7B84-4D05-AEE7-6861BB22467B";
name = "Jun 3 22, 17:46";
shapes = (
{
closed = 1;
nodes = (
(259,0,ls),
(267,0,o),
(274,7,o),
(274,15,cs),
(274,123,ls),
(274,131,o),
(281,138,o),
(289,138,cs),
(442,138,ls),
(446,138,o),
(451,140,o),
(453,143,cs),
(566,297,ls),
(567,299,o),
(568,302,o),
(568,304,cs),
(568,629,ls),
(568,631,o),
(567,633,o),
(565,636,cs),
(436,795,ls),
(434,798,o),
(430,800,o),
(426,800,cs),
(45,800,ls),
(37,800,o),
(30,793,o),
(30,785,cs),
(30,15,ls),
(30,7,o),
(37,0,o),
(45,0,cs)
);
},
{
closed = 1;
nodes = (
(284,338,o),
(272,350,o),
(272,372,cs),
(272,542,ls),
(272,564,o),
(284,576,o),
(304,576,cs),
(324,576,o),
(336,564,o),
(336,542,cs),
(336,372,ls),
(336,350,o),
(324,338,o),
(304,338,cs)
);
}
);
width = 593;
},
{
anchors = (
{
name = bottom;
pos = (287,0);
},
{
name = top;
pos = (267,800);
}
);
associatedMasterId = "462F72A0-0500-4E69-A49B-6C2F2580580D";
guides = (
{
angle = 90;
pos = (304,0);
showMeasurement = 1;
}
);
layerId = "4870416C-9000-4C32-B517-E43DE8C91132";
name = _001;
shapes = (
{
closed = 1;
nodes = (
(259,0,ls),
(267,0,o),
(274,7,o),
(274,15,cs),
(274,123,ls),
(274,131,o),
(281,138,o),
(289,138,cs),
(446,138,ls),
(450,138,o),
(455,140,o),
(457,143,cs),
(570,297,ls),
(571,299,o),
(572,302,o),
(572,304,cs),
(572,629,ls),
(572,631,o),
(571,633,o),
(569,636,cs),
(440,795,ls),
(438,798,o),
(434,800,o),
(430,800,cs),
(45,800,ls),
(37,800,o),
(30,793,o),
(30,785,cs),
(30,15,ls),
(30,7,o),
(37,0,o),
(45,0,cs)
);
},
{
closed = 1;
nodes = (
(284,364,o),
(272,376,o),
(272,398,cs),
(272,540,ls),
(272,562,o),
(284,574,o),
(304,574,cs),
(324,574,o),
(336,562,o),
(336,540,cs),
(336,398,ls),
(336,376,o),
(324,364,o),
(304,364,cs)
);
}
);
width = 597;
},
{
anchors = (
{
name = bottom;
pos = (287,0);
},
{
name = top;
pos = (267,800);
}
);
associatedMasterId = "462F72A0-0500-4E69-A49B-6C2F2580580D";
guides = (
{
angle = 90;
pos = (304,0);
showMeasurement = 1;
}
);
layerId = "8F5245DC-F2C5-4B74-87E2-D1A7F9398E0A";
name = Round;
shapes = (
{
closed = 1;
nodes = (
(411,794,o),
(417,800,o),
(427,800,cs),
(437,800,o),
(443,794,o),
(443,784,cs),
(443,774,o),
(437,768,o),
(427,768,cs),
(417,768,o),
(411,774,o),
(411,784,cs)
);
},
{
closed = 1;
nodes = (
(540,636,o),
(546,642,o),
(556,642,cs),
(566,642,o),
(572,636,o),
(572,626,cs),
(572,616,o),
(566,610,o),
(556,610,cs),
(546,610,o),
(540,616,o),
(540,626,cs)
);
}
);
visible = 1;
width = 597;
},
{
anchors = (
{
name = bottom;
pos = (287,0);
},
{
name = top;
pos = (267,800);
}
);
associatedMasterId = "462F72A0-0500-4E69-A49B-6C2F2580580D";
guides = (
{
angle = 90;
pos = (304,0);
showMeasurement = 1;
}
);
layerId = "E8623457-7356-4AF3-AE62-4CA725C3C774";
name = "Jul 29 22, 20:28";
shapes = (
{
closed = 1;
nodes = (
(258,0,ls),
(268,0,o),
(274,6,o),
(274,16,cs),
(274,122,ls),
(274,132,o),
(280,138,o),
(290,138,cs),
(426,138,ls),
(434,138,o),
(438,140,o),
(442,145,cs),
(568,299,ls),
(571,303,o),
(572,306,o),
(572,312,cs),
(572,626,ls),
(572,632,o),
(571,635,o),
(568,639,cs),
(442,793,ls),
(438,798,o),
(434,800,o),
(426,800,cs),
(46,800,ls),
(36,800,o),
(30,794,o),
(30,784,cs),
(30,16,ls),
(30,6,o),
(36,0,o),
(46,0,cs)
);
},
{
closed = 1;
nodes = (
(284,364,o),
(272,376,o),
(272,398,cs),
(272,540,ls),
(272,562,o),
(284,574,o),
(304,574,cs),
(324,574,o),
(336,562,o),
(336,540,cs),
(336,398,ls),
(336,376,o),
(324,364,o),
(304,364,cs)
);
}
);
width = 597;
},
{
anchors = (
{
name = bottom;
pos = (287,0);
},
{
name = top;
pos = (267,800);
}
);
associatedMasterId = "462F72A0-0500-4E69-A49B-6C2F2580580D";
guides = (
{
angle = 90;
pos = (304,0);
showMeasurement = 1;
}
);
layerId = "17F0027F-B1DD-4347-A5C4-466605FAC0B4";
name = "Jul 30 22, 02:16";
shapes = (
{
closed = 1;
nodes = (
(258,0,ls),
(268,0,o),
(274,6,o),
(274,16,cs),
(274,122,ls),
(274,132,o),
(280,138,o),
(290,138,cs),
(426,138,ls),
(434,138,o),
(438,140,o),
(442,145,cs),
(568,279,ls),
(571,283,o),
(572,286,o),
(572,292,cs),
(572,646,ls),
(572,652,o),
(571,655,o),
(568,659,cs),
(442,793,ls),
(438,798,o),
(434,800,o),
(426,800,cs),
(46,800,ls),
(36,800,o),
(30,794,o),
(30,784,cs),
(30,16,ls),
(30,6,o),
(36,0,o),
(46,0,cs)
);
},
{
closed = 1;
nodes = (
(284,364,o),
(272,376,o),
(272,398,cs),
(272,540,ls),
(272,562,o),
(284,574,o),
(304,574,cs),
(324,574,o),
(336,562,o),
(336,540,cs),
(336,398,ls),
(336,376,o),
(324,364,o),
(304,364,cs)
);
}
);
width = 597;
},
{
anchors = (
{
name = bottom;
pos = (286,0);
},
{
name = hook;
pos = (40,800);
},
{
name = top;
pos = (266,800);
}
);
guides = (
{
angle = 90;
pos = (303,0);
showMeasurement = 1;
},
{
angle = -45;
pos = (495,730);
}
);
layerId = m002;
shapes = (
{
closed = 1;
nodes = (
(260,0,ls),
(269,0,o),
(275,6,o),
(275,15,cs),
(275,198,l),
(411,198,ls),
(421,198,o),
(428,201,o),
(435,208,cs),
(555,328,ls),
(562,335,o),
(565,342,o),
(565,352,cs),
(565,646,ls),
(565,656,o),
(562,663,o),
(555,670,cs),
(435,790,ls),
(428,797,o),
(421,800,o),
(411,800,cs),
(40,800,ls),
(31,800,o),
(25,794,o),
(25,785,cs),
(25,15,ls),
(25,6,o),
(31,0,o),
(40,0,cs)
);
},
{
closed = 1;
nodes = (
(258,444,o),
(235,467,o),
(235,499,cs),
(235,531,o),
(258,554,o),
(290,554,cs),
(322,554,o),
(345,531,o),
(345,499,cs),
(345,467,o),
(322,444,o),
(290,444,cs)
);
}
);
width = 590;
},
{
anchors = (
{
name = bottom;
pos = (287,0);
},
{
name = top;
pos = (267,800);
}
);
associatedMasterId = m002;
layerId = "8EF39EF8-2F17-49E6-9BBD-9CEF629D619D";
name = "Jun 2 22, 03:01";
shapes = (
{
closed = 1;
nodes = (
(259,0,ls),
(267,0,o),
(274,7,o),
(274,15,cs),
(274,123,ls),
(274,131,o),
(281,138,o),
(289,138,cs),
(434,138,ls),
(438,138,o),
(443,140,o),
(445,143,cs),
(558,297,ls),
(559,299,o),
(560,302,o),
(560,304,cs),
(560,629,ls),
(560,631,o),
(559,633,o),
(557,636,cs),
(428,795,ls),
(426,798,o),
(422,800,o),
(418,800,cs),
(47,800,ls),
(39,800,o),
(32,793,o),
(32,785,cs),
(30,15,ls),
(30,7,o),
(37,0,o),
(45,0,cs)
);
},
{
closed = 1;
nodes = (
(274,575,l),
(292,575,ls),
(313,575,o),
(322,557,o),
(322,524,cs),
(322,386,ls),
(322,355,o),
(309,338,o),
(292,338,cs),
(274,338,l)
);
}
);
width = 586;
},
{
anchors = (
{
name = bottom;
pos = (287,0);
},
{
name = top;
pos = (267,800);
}
);
associatedMasterId = m002;
layerId = "124CAE7D-EE54-4F5E-88A0-CE5A96BB99F7";
name = "Jun 3 22, 17:40";
shapes = (
{
closed = 1;
nodes = (
(259,0,ls),
(267,0,o),
(274,7,o),
(274,15,cs),
(274,123,ls),
(274,131,o),
(281,138,o),
(289,138,cs),
(434,138,ls),
(438,138,o),
(443,140,o),
(445,143,cs),
(558,297,ls),
(559,299,o),
(560,302,o),
(560,304,cs),
(560,629,ls),
(560,631,o),
(559,633,o),
(557,636,cs),
(428,795,ls),
(426,798,o),
(422,800,o),
(418,800,cs),
(47,800,ls),
(39,800,o),
(32,793,o),
(32,785,cs),
(30,15,ls),
(30,7,o),
(37,0,o),
(45,0,cs)
);
},
{
closed = 1;
nodes = (
(284,338,o),
(272,350,o),
(272,372,cs),
(272,542,ls),
(272,564,o),
(284,576,o),
(304,576,cs),
(324,576,o),
(336,564,o),
(336,542,cs),
(336,372,ls),
(336,350,o),
(324,338,o),
(304,338,cs)
);
}
);
width = 586;
},
{
anchors = (
{
name = bottom;
pos = (287,0);
},
{
name = top;
pos = (267,800);
}
);
associatedMasterId = m002;
layerId = "B8471425-C7EB-487A-A352-A67DE44DBD86";
name = "Jun 3 22, 17:45";
shapes = (
{
closed = 1;
nodes = (
(259,0,ls),
(267,0,o),
(274,7,o),
(274,15,cs),
(274,123,ls),
(274,131,o),
(281,138,o),
(289,138,cs),
(434,138,ls),
(438,138,o),
(443,140,o),
(445,143,cs),
(558,297,ls),
(559,299,o),
(560,302,o),
(560,304,cs),
(560,629,ls),
(560,631,o),
(559,633,o),
(557,636,cs),
(428,795,ls),
(426,798,o),
(422,800,o),
(418,800,cs),
(47,800,ls),
(39,800,o),
(32,793,o),
(32,785,cs),
(30,15,ls),
(30,7,o),
(37,0,o),
(45,0,cs)
);
},
{
closed = 1;
nodes = (
(284,338,o),
(272,350,o),
(272,372,cs),
(272,542,ls),
(272,564,o),
(284,576,o),
(304,576,cs),
(324,576,o),
(336,564,o),
(336,542,cs),
(336,372,ls),
(336,350,o),
(324,338,o),
(304,338,cs)
);
}
);
width = 585;
},
{
anchors = (
{
name = bottom;
pos = (287,0);
},
{
name = top;
pos = (267,800);
}
);
associatedMasterId = m002;
guides = (
{
angle = 90;
pos = (304,0);
showMeasurement = 1;
}
);
layerId = "276DDBC6-3D6A-40DD-968F-A5DB4C57FCB7";
name = "Jun 3 22, 17:46";
shapes = (
{
closed = 1;
nodes = (
(259,0,ls),
(267,0,o),
(274,7,o),
(274,15,cs),
(274,123,ls),
(274,131,o),
(281,138,o),
(289,138,cs),
(442,138,ls),
(446,138,o),
(451,140,o),
(453,143,cs),
(566,297,ls),
(567,299,o),
(568,302,o),
(568,304,cs),
(568,629,ls),
(568,631,o),
(567,633,o),
(565,636,cs),
(436,795,ls),
(434,798,o),
(430,800,o),
(426,800,cs),
(45,800,ls),
(37,800,o),
(30,793,o),
(30,785,cs),
(30,15,ls),
(30,7,o),
(37,0,o),
(45,0,cs)
);
},
{
closed = 1;
nodes = (
(284,338,o),
(272,350,o),
(272,372,cs),
(272,542,ls),
(272,564,o),
(284,576,o),
(304,576,cs),
(324,576,o),
(336,564,o),
(336,542,cs),
(336,372,ls),
(336,350,o),
(324,338,o),
(304,338,cs)
);
}
);
width = 593;
},
{
anchors = (
{
name = bottom;
pos = (287,0);
},
{
name = top;
pos = (267,800);
}
);
associatedMasterId = m002;
guides = (
{
angle = 90;
pos = (304,0);
showMeasurement = 1;
}
);
layerId = "19F01398-0F8C-4DC3-9F9C-75EB2E73C8DA";
name = _001;
shapes = (
{
closed = 1;
nodes = (
(259,0,ls),
(267,0,o),
(274,7,o),
(274,15,cs),
(274,123,ls),
(274,131,o),
(281,138,o),
(289,138,cs),
(446,138,ls),
(450,138,o),
(455,140,o),
(457,143,cs),
(570,297,ls),
(571,299,o),
(572,302,o),
(572,304,cs),
(572,629,ls),
(572,631,o),
(571,633,o),
(569,636,cs),
(440,795,ls),
(438,798,o),
(434,800,o),
(430,800,cs),
(45,800,ls),
(37,800,o),
(30,793,o),
(30,785,cs),
(30,15,ls),
(30,7,o),
(37,0,o),
(45,0,cs)
);
},
{
closed = 1;
nodes = (
(284,364,o),
(272,376,o),
(272,398,cs),
(272,540,ls),
(272,562,o),
(284,574,o),
(304,574,cs),
(324,574,o),
(336,562,o),
(336,540,cs),
(336,398,ls),
(336,376,o),
(324,364,o),
(304,364,cs)
);
}
);
width = 597;
},
{
anchors = (
{
name = bottom;
pos = (287,0);
},
{
name = top;
pos = (267,800);
}
);
associatedMasterId = m002;
guides = (
{
angle = 90;
pos = (304,0);
showMeasurement = 1;
}
);
layerId = "C2F267F9-7168-404F-9E2A-AE638CF4B8BF";
name = Round;
shapes = (
{
closed = 1;
nodes = (
(411,794,o),
(417,800,o),
(427,800,cs),
(437,800,o),
(443,794,o),
(443,784,cs),
(443,774,o),
(437,768,o),
(427,768,cs),
(417,768,o),
(411,774,o),
(411,784,cs)
);
},
{
closed = 1;
nodes = (
(540,636,o),
(546,642,o),
(556,642,cs),
(566,642,o),
(572,636,o),
(572,626,cs),
(572,616,o),
(566,610,o),
(556,610,cs),
(546,610,o),
(540,616,o),
(540,626,cs)
);
}
);
width = 597;
},
{
anchors = (
{
name = bottom;
pos = (287,0);
},
{
name = top;
pos = (267,800);
}
);
associatedMasterId = m002;
guides = (
{
angle = 90;
pos = (304,0);
showMeasurement = 1;
}
);
layerId = "2D88E5E1-0E10-4D6F-9649-01DAF275DE06";
name = "Jul 29 22, 20:28";
shapes = (
{
closed = 1;
nodes = (
(258,0,ls),
(268,0,o),
(274,6,o),
(274,16,cs),
(274,122,ls),
(274,132,o),
(280,138,o),
(290,138,cs),
(426,138,ls),
(434,138,o),
(438,140,o),
(442,145,cs),
(568,299,ls),
(571,303,o),
(572,306,o),
(572,312,cs),
(572,626,ls),
(572,632,o),
(571,635,o),
(568,639,cs),
(442,793,ls),
(438,798,o),
(434,800,o),
(426,800,cs),
(46,800,ls),
(36,800,o),
(30,794,o),
(30,784,cs),
(30,16,ls),
(30,6,o),
(36,0,o),
(46,0,cs)
);
},
{
closed = 1;
nodes = (
(284,364,o),
(272,376,o),
(272,398,cs),
(272,540,ls),
(272,562,o),
(284,574,o),
(304,574,cs),
(324,574,o),
(336,562,o),
(336,540,cs),
(336,398,ls),
(336,376,o),
(324,364,o),
(304,364,cs)
);
}
);
width = 597;
},
{
anchors = (
{
name = bottom;
pos = (287,0);
},
{
name = top;
pos = (267,800);
}
);
associatedMasterId = m002;
guides = (
{
angle = 90;
pos = (304,0);
showMeasurement = 1;
}
);
layerId = "EA07C564-6FE9-434A-8949-28CDE00AEC55";
name = "Jul 30 22, 02:16";
shapes = (
{
closed = 1;
nodes = (
(258,0,ls),
(268,0,o),
(274,6,o),
(274,16,cs),
(274,122,ls),
(274,132,o),
(280,138,o),
(290,138,cs),
(426,138,ls),
(434,138,o),
(438,140,o),
(442,145,cs),
(568,279,ls),
(571,283,o),
(572,286,o),
(572,292,cs),
(572,646,ls),
(572,652,o),
(571,655,o),
(568,659,cs),
(442,793,ls),
(438,798,o),
(434,800,o),
(426,800,cs),
(46,800,ls),
(36,800,o),
(30,794,o),
(30,784,cs),
(30,16,ls),
(30,6,o),
(36,0,o),
(46,0,cs)
);
},
{
closed = 1;
nodes = (
(284,364,o),
(272,376,o),
(272,398,cs),
(272,540,ls),
(272,562,o),
(284,574,o),
(304,574,cs),
(324,574,o),
(336,562,o),
(336,540,cs),
(336,398,ls),
(336,376,o),
(324,364,o),
(304,364,cs)
);
}
);
width = 597;
}
);
metricLeft = H;
unicode = 80;
userData = {
KernOnName = P;
};
},
{
color = 8;
glyphname = Thorn;
kernLeft = KO_H;
kernRight = KO_Thorn;
lastChange = "2023-11-26 21:03:08 +0000";
layers = (
{
anchors = (
{
name = bottom;
pos = (282,0);
},
{
name = top;
pos = (282,800);
}
);
layerId = "462F72A0-0500-4E69-A49B-6C2F2580580D";
shapes = (
{
closed = 1;
nodes = (
(256,0,ls),
(266,0,o),
(272,6,o),
(272,16,cs),
(272,193,l),
(232,153,l),
(431,153,ls),
(440,153,o),
(444,154,o),
(449,160,cs),
(536,250,ls),
(540,254,o),
(541,259,o),
(541,266,cs),
(541,517,ls),
(541,524,o),
(540,529,o),
(536,533,cs),
(449,623,ls),
(444,629,o),
(440,630,o),
(431,630,cs),
(232,630,l),
(272,590,l),
(272,784,ls),
(272,794,o),
(266,800,o),
(256,800,cs),
(88,800,ls),
(78,800,o),
(72,794,o),
(72,784,cs),
(72,16,ls),
(72,6,o),
(78,0,o),
(88,0,cs)
);
},
{
closed = 1;
nodes = (
(225,305,o),
(205,326,o),
(205,400,cs),
(205,474,o),
(225,495,o),
(291,495,cs),
(357,495,o),
(377,474,o),
(377,400,cs),
(377,326,o),
(357,305,o),
(291,305,cs)
);
}
);
width = 566;
},
{
anchors = (
{
name = bottom;
pos = (319,-30);
},
{
name = center;
pos = (319,400);
},
{
name = ogonek;
pos = (550,10);
},
{
name = top;
pos = (319,800);
},
{
name = topleft;
pos = (50,800);
},
{
name = topright;
pos = (565,800);
}
);
associatedMasterId = "462F72A0-0500-4E69-A49B-6C2F2580580D";
layerId = "54830B6E-5819-459B-829D-D85F644DE33D";
name = Original;
shapes = (
{
closed = 1;
nodes = (
(523,236,ls),
(528,240,o),
(530,244,o),
(530,250,cs),
(530,519,ls),
(530,525,o),
(528,530,o),
(524,535,cs),
(437,625,ls),
(433,630,o),
(427,631,o),
(421,631,cs),
(275,631,ls),
(270,631,o),
(264,630,o),
(260,625,cs),
(173,535,ls),
(169,530,o),
(167,525,o),
(167,519,cs),
(167,250,ls),
(167,244,o),
(169,240,o),
(173,236,cs),
(260,160,ls),
(264,156,o),
(270,155,o),
(275,155,cs),
(421,155,ls),
(427,155,o),
(433,156,o),
(437,160,cs)
);
},
{
closed = 1;
nodes = (
(30,15,ls),
(30,6,o),
(36,0,o),
(45,0,cs),
(246,0,ls),
(255,0,o),
(261,6,o),
(261,15,cs),
(261,311,l),
(201,407,l),
(261,511,l),
(261,785,ls),
(261,794,o),
(255,800,o),
(246,800,cs),
(45,800,ls),
(36,800,o),
(30,794,o),
(30,785,cs)
);
},
{
closed = 1;
nodes = (
(256,339,o),
(229,366,o),
(229,399,cs),
(229,433,o),
(256,460,o),
(290,460,cs),
(323,460,o),
(350,433,o),
(350,399,cs),
(350,366,o),
(323,339,o),
(290,339,cs)
);
}
);
width = 540;
},
{
anchors = (
{
name = bottom;
pos = (272,0);
},
{
name = top;
pos = (272,800);
}
);
layerId = m002;
shapes = (
{
closed = 1;
nodes = (
(240,0,ls),
(250,0,o),
(256,6,o),
(256,16,cs),
(256,193,l),
(216,153,l),
(415,153,ls),
(424,153,o),
(428,154,o),
(433,160,cs),
(520,250,ls),
(524,254,o),
(525,259,o),
(525,266,cs),
(525,517,ls),
(525,524,o),
(524,529,o),
(520,533,cs),
(433,623,ls),
(428,629,o),
(424,630,o),
(415,630,cs),
(216,630,l),
(256,590,l),
(256,784,ls),
(256,794,o),
(250,800,o),
(240,800,cs),
(41,800,ls),
(31,800,o),
(25,794,o),
(25,784,cs),
(25,16,ls),
(25,6,o),
(31,0,o),
(41,0,cs)
);
},
{
closed = 1;
nodes = (
(250,342,o),
(226,366,o),
(226,400,cs),
(226,434,o),
(250,458,o),
(284,458,cs),
(318,458,o),
(342,434,o),
(342,400,cs),
(342,366,o),
(318,342,o),
(284,342,cs)
);
}
);
width = 550;
},
{
anchors = (
{
name = bottom;
pos = (319,-30);
},
{
name = center;
pos = (319,400);
},
{
name = ogonek;
pos = (550,10);
},
{
name = top;
pos = (319,800);
},
{
name = topleft;
pos = (50,800);
},
{
name = topright;
pos = (565,800);
}
);
associatedMasterId = m002;
layerId = "A230638F-9B9A-4300-908E-8F8B51FEF537";
name = Original;
shapes = (
{
closed = 1;
nodes = (
(523,236,ls),
(528,240,o),
(530,244,o),
(530,250,cs),
(530,519,ls),
(530,525,o),
(528,530,o),
(524,535,cs),
(437,625,ls),
(433,630,o),
(427,631,o),
(421,631,cs),
(275,631,ls),
(270,631,o),
(264,630,o),
(260,625,cs),
(173,535,ls),
(169,530,o),
(167,525,o),
(167,519,cs),
(167,250,ls),
(167,244,o),
(169,240,o),
(173,236,cs),
(260,160,ls),
(264,156,o),
(270,155,o),
(275,155,cs),
(421,155,ls),
(427,155,o),
(433,156,o),
(437,160,cs)
);
},
{
closed = 1;
nodes = (
(30,15,ls),
(30,6,o),
(36,0,o),
(45,0,cs),
(246,0,ls),
(255,0,o),
(261,6,o),
(261,15,cs),
(261,311,l),
(201,407,l),
(261,511,l),
(261,785,ls),
(261,794,o),
(255,800,o),
(246,800,cs),
(45,800,ls),
(36,800,o),
(30,794,o),
(30,785,cs)
);
},
{
closed = 1;
nodes = (
(256,339,o),
(229,366,o),
(229,399,cs),
(229,433,o),
(256,460,o),
(290,460,cs),
(323,460,o),
(350,433,o),
(350,399,cs),
(350,366,o),
(323,339,o),
(290,339,cs)
);
}
);
width = 540;
}
);
metricLeft = "=H";
metricRight = P;
unicode = 222;
},
{
color = 8;
glyphname = Pstroke;
lastChange = "2023-11-26 21:03:08 +0000";
layers = (
{
layerId = "462F72A0-0500-4E69-A49B-6C2F2580580D";
shapes = (
{
closed = 1;
nodes = (
(206,491,l),
(206,511,l),
(451,511,l),
(451,491,l),
(586,491,ls),
(594,491,o),
(600,497,o),
(600,505,cs),
(600,577,ls),
(600,585,o),
(594,591,o),
(586,591,cs),
(451,591,l),
(451,571,l),
(206,571,l),
(206,591,l),
(44,591,ls),
(36,591,o),
(30,585,o),
(30,577,cs),
(30,505,ls),
(30,497,o),
(36,491,o),
(44,491,cs)
);
},
{
alignment = -1;
pos = (2,0);
ref = P;
}
);
width = 601;
},
{
associatedMasterId = "462F72A0-0500-4E69-A49B-6C2F2580580D";
layerId = "275DBF89-B440-4AEE-B7D5-D712BDE00971";
name = Original;
shapes = (
{
alignment = -1;
pos = (-2,0);
ref = P;
}
);
width = 555;
},
{
associatedMasterId = "462F72A0-0500-4E69-A49B-6C2F2580580D";
layerId = "85265DCF-B806-48A5-8EFE-921F39D7086A";
name = V1;
shapes = (
{
closed = 1;
nodes = (
(594,425,ls),
(602,425,o),
(608,431,o),
(608,439,cs),
(608,499,ls),
(608,507,o),
(602,513,o),
(594,513,cs),
(12,513,ls),
(4,513,o),
(-2,507,o),
(-2,499,cs),
(-2,439,ls),
(-2,431,o),
(4,425,o),
(12,425,cs)
);
},
{
alignment = -1;
pos = (2,0);
ref = P;
}
);
width = 601;
},
{
layerId = m002;
shapes = (
{
closed = 1;
nodes = (
(193,449,l),
(193,483,l),
(394,483,l),
(394,449,l),
(581,449,ls),
(589,449,o),
(595,455,o),
(595,463,cs),
(595,535,ls),
(595,543,o),
(589,549,o),
(581,549,cs),
(394,549,l),
(394,515,l),
(193,515,l),
(193,549,l),
(-1,549,ls),
(-9,549,o),
(-15,543,o),
(-15,535,cs),
(-15,463,ls),
(-15,455,o),
(-9,449,o),
(-1,449,cs)
);
},
{
alignment = -1;
pos = (2,0);
ref = P;
}
);
width = 601;
},
{
associatedMasterId = m002;
layerId = "73B6A18F-DA4A-4E14-8016-47FA554A4C98";
name = Original;
shapes = (
{
alignment = -1;
pos = (-2,0);
ref = P;
}
);
width = 555;
},
{
associatedMasterId = m002;
layerId = "B4DE8CF6-4113-4DC2-A7AE-5D259619286D";
name = V1;
shapes = (
{
closed = 1;
nodes = (
(594,425,ls),
(602,425,o),
(608,431,o),
(608,439,cs),
(608,499,ls),
(608,507,o),
(602,513,o),
(594,513,cs),
(12,513,ls),
(4,513,o),
(-2,507,o),
(-2,499,cs),
(-2,439,ls),
(-2,431,o),
(4,425,o),
(12,425,cs)
);
},
{
alignment = -1;
pos = (2,0);
ref = P;
}
);
width = 601;
}
);
unicode = 11363;
},
{
color = 8;
glyphname = Q;
kernLeft = KO_G;
kernRight = KO_Q;
lastChange = "2023-11-26 21:03:08 +0000";
layers = (
{
anchors = (
{
name = bottom;
pos = (347,0);
},
{
name = top;
pos = (347,800);
}
);
layerId = "462F72A0-0500-4E69-A49B-6C2F2580580D";
shapes = (
{
closed = 1;
nodes = (
(468,0,ls),
(478,0,o),
(485,3,o),
(492,10,cs),
(612,130,ls),
(619,137,o),
(622,144,o),
(622,154,cs),
(622,646,ls),
(622,656,o),
(619,663,o),
(612,670,cs),
(492,790,ls),
(485,797,o),
(478,800,o),
(468,800,cs),
(226,800,ls),
(216,800,o),
(209,797,o),
(202,790,cs),
(82,670,ls),
(75,663,o),
(72,656,o),
(72,646,cs),
(72,154,ls),
(72,144,o),
(75,137,o),
(82,130,cs),
(202,10,ls),
(209,3,o),
(216,0,o),
(226,0,cs)
);
},
{
closed = 1;
nodes = (
(437,-100,ls),
(449,-100,o),
(458,-89,o),
(454,-77,cs),
(428,0,l),
(275,0,l),
(275,-85,ls),
(275,-93,o),
(282,-100,o),
(290,-100,cs)
);
},
{
closed = 1;
nodes = (
(287,160,o),
(280,172,o),
(280,194,cs),
(280,606,ls),
(280,628,o),
(287,640,o),
(305,640,cs),
(389,640,ls),
(407,640,o),
(414,628,o),
(414,606,cs),
(414,194,ls),
(414,172,o),
(407,160,o),
(389,160,cs),
(305,160,ls)
);
}
);
width = 694;
},
{
anchors = (
{
name = bottom;
pos = (300,0);
},
{
name = top;
pos = (300,800);
}
);
layerId = m002;
shapes = (
{
closed = 1;
nodes = (
(425,0,ls),
(435,0,o),
(442,3,o),
(449,10,cs),
(569,130,ls),
(576,137,o),
(579,144,o),
(579,154,cs),
(579,646,ls),
(579,656,o),
(576,663,o),
(569,670,cs),
(449,790,ls),
(442,797,o),
(435,800,o),
(425,800,cs),
(179,800,ls),
(169,800,o),
(162,797,o),
(155,790,cs),
(35,670,ls),
(28,663,o),
(25,656,o),
(25,646,cs),
(25,154,ls),
(25,144,o),
(28,137,o),
(35,130,cs),
(155,10,ls),
(162,3,o),
(169,0,o),
(179,0,cs)
);
},
{
closed = 1;
nodes = (
(390,-100,ls),
(402,-100,o),
(411,-89,o),
(407,-77,cs),
(381,0,l),
(218,0,l),
(218,-85,ls),
(218,-93,o),
(225,-100,o),
(233,-100,cs)
);
},
{
closed = 1;
nodes = (
(282,240,o),
(275,252,o),
(275,274,cs),
(275,526,ls),
(275,548,o),
(282,560,o),
(300,560,cs),
(304,560,ls),
(322,560,o),
(329,548,o),
(329,526,cs),
(329,274,ls),
(329,252,o),
(322,240,o),
(304,240,cs),
(300,240,ls)
);
}
);
width = 604;
}
);
metricLeft = H;
metricRight = H;
unicode = 81;
},
{
color = 8;
glyphname = Qhooktail;
lastChange = "2023-11-26 21:03:08 +0000";
layers = (
{
layerId = "462F72A0-0500-4E69-A49B-6C2F2580580D";
shapes = (
{
closed = 1;
nodes = (
(662,-250,ls),
(671,-250,o),
(677,-244,o),
(677,-235,cs),
(677,-126,ls),
(677,-119,o),
(676,-113,o),
(671,-108,cs),
(582,-19,ls),
(577,-14,o),
(575,-7,o),
(575,0,cs),
(575,785,ls),
(575,793,o),
(568,800,o),
(560,800,cs),
(189,800,ls),
(179,800,o),
(172,797,o),
(165,790,cs),
(45,670,ls),
(38,663,o),
(35,656,o),
(35,646,cs),
(35,157,ls),
(35,147,o),
(38,140,o),
(45,133,cs),
(165,13,ls),
(172,6,o),
(179,3,o),
(189,3,cs),
(301,3,ls),
(311,3,o),
(318,6,o),
(325,13,cs),
(385,73,l),
(385,-86,ls),
(385,-96,o),
(388,-103,o),
(395,-110,cs),
(525,-240,ls),
(532,-247,o),
(539,-250,o),
(549,-250,cs)
);
},
{
closed = 1;
nodes = (
(242,163,o),
(235,175,o),
(235,197,cs),
(235,606,ls),
(235,628,o),
(242,640,o),
(260,640,cs),
(375,640,l),
(375,163,l),
(260,163,ls)
);
}
);
width = 600;
},
{
layerId = m002;
shapes = (
{
closed = 1;
nodes = (
(662,-250,ls),
(671,-250,o),
(677,-244,o),
(677,-235,cs),
(677,-126,ls),
(677,-119,o),
(676,-113,o),
(671,-108,cs),
(582,-19,ls),
(577,-14,o),
(575,-7,o),
(575,0,cs),
(575,785,ls),
(575,793,o),
(568,800,o),
(560,800,cs),
(179,800,ls),
(169,800,o),
(162,797,o),
(155,790,cs),
(35,670,ls),
(28,663,o),
(25,656,o),
(25,646,cs),
(25,157,ls),
(25,147,o),
(28,140,o),
(35,133,cs),
(155,13,ls),
(162,6,o),
(169,3,o),
(179,3,cs),
(271,3,ls),
(281,3,o),
(288,6,o),
(295,13,cs),
(355,73,l),
(355,-86,ls),
(355,-96,o),
(358,-103,o),
(365,-110,cs),
(495,-240,ls),
(502,-247,o),
(509,-250,o),
(519,-250,cs)
);
},
{
closed = 1;
nodes = (
(282,243,o),
(275,255,o),
(275,277,cs),
(275,526,ls),
(275,548,o),
(282,560,o),
(300,560,cs),
(325,560,l),
(325,243,l),
(300,243,ls)
);
}
);
width = 682;
}
);
unicode = 586;
},
{
color = 8;
glyphname = R;
kernLeft = KO_H;
kernRight = KO_R;
lastChange = "2023-11-26 21:03:08 +0000";
layers = (
{
anchors = (
{
name = bottom;
pos = (296,-30);
},
{
name = top;
pos = (256,800);
}
);
associatedMasterId = "462F72A0-0500-4E69-A49B-6C2F2580580D";
layerId = "AF638800-35F8-4ACC-B725-7B5D7F0EAF08";
name = "Jun 2 22, 02:58";
shapes = (
{
closed = 1;
nodes = (
(27,800,o),
(21,794,o),
(21,785,cs),
(21,15,ls),
(21,6,o),
(27,0,o),
(36,0,cs),
(254,0,ls),
(263,0,o),
(269,6,o),
(269,15,cs),
(269,233,l),
(283,233,l),
(341,12,ls),
(343,4,o),
(351,0,o),
(359,0,cs),
(569,0,ls),
(578,0,o),
(584,6,o),
(584,15,cs),
(584,216,ls),
(584,223,o),
(581,229,o),
(576,235,cs),
(480,350,l),
(480,384,l),
(564,463,ls),
(571,469,o),
(574,473,o),
(574,481,cs),
(574,649,ls),
(574,656,o),
(572,662,o),
(566,667,cs),
(422,793,ls),
(417,798,o),
(410,800,o),
(403,800,cs),
(36,800,ls)
);
},
{
closed = 1;
nodes = (
(249,460,o),
(231,485,o),
(231,515,cs),
(231,545,o),
(249,570,o),
(279,570,cs),
(309,570,o),
(334,545,o),
(334,515,cs),
(334,485,o),
(309,460,o),
(279,460,cs)
);
}
);
width = 580;
},
{
anchors = (
{
name = bottom;
pos = (301,-30);
},
{
name = top;
pos = (261,800);
}
);
associatedMasterId = "462F72A0-0500-4E69-A49B-6C2F2580580D";
layerId = "B9528265-754A-48A9-9B70-B3AD385321AF";
name = "Jun 2 22, 03:20";
shapes = (
{
closed = 1;
nodes = (
(259,0,ls),
(268,0,o),
(274,6,o),
(274,15,cs),
(274,233,l),
(288,233,l),
(346,12,ls),
(348,4,o),
(356,0,o),
(364,0,cs),
(574,0,ls),
(583,0,o),
(589,6,o),
(589,15,cs),
(589,216,ls),
(589,223,o),
(586,229,o),
(581,235,cs),
(485,350,l),
(485,384,l),
(568,463,ls),
(575,469,o),
(578,473,o),
(578,481,cs),
(578,646,ls),
(578,657,o),
(577,660,o),
(568,668,cs),
(430,792,ls),
(423,798,o),
(417,800,o),
(406,800,cs),
(45,800,ls),
(36,800,o),
(30,794,o),
(30,785,cs),
(30,15,ls),
(30,6,o),
(36,0,o),
(45,0,cs)
);
},
{
closed = 1;
nodes = (
(259,460,o),
(236,483,o),
(236,515,cs),
(236,547,o),
(259,570,o),
(291,570,cs),
(323,570,o),
(346,547,o),
(346,515,cs),
(346,483,o),
(323,460,o),
(291,460,cs)
);
}
);
width = 597;
},
{
anchors = (
{
name = bottom;
pos = (301,-30);
},
{
name = top;
pos = (261,800);
}
);
associatedMasterId = "462F72A0-0500-4E69-A49B-6C2F2580580D";
layerId = "72750E73-5F28-4E8C-A1F6-B2DE7FF6F472";
name = "Jun 3 22, 18:40";
shapes = (
{
closed = 1;
nodes = (
(259,0,ls),
(268,0,o),
(274,6,o),
(274,15,cs),
(274,233,l),
(288,233,l),
(346,12,ls),
(348,4,o),
(356,0,o),
(364,0,cs),
(574,0,ls),
(583,0,o),
(589,6,o),
(589,15,cs),
(589,162,ls),
(589,170,o),
(588,174,o),
(583,182,cs),
(485,350,l),
(485,384,l),
(568,463,ls),
(575,469,o),
(578,473,o),
(578,481,cs),
(578,644,ls),
(578,657,o),
(577,660,o),
(568,668,cs),
(430,792,ls),
(423,798,o),
(417,800,o),
(406,800,cs),
(45,800,ls),
(36,800,o),
(30,794,o),
(30,785,cs),
(30,15,ls),
(30,6,o),
(36,0,o),
(45,0,cs)
);
},
{
closed = 1;
nodes = (
(259,437,o),
(235,461,o),
(235,495,cs),
(235,529,o),
(259,553,o),
(293,553,cs),
(327,553,o),
(351,529,o),
(351,495,cs),
(351,461,o),
(327,437,o),
(293,437,cs)
);
}
);
width = 597;
},
{
anchors = (
{
name = bottom;
pos = (301,-30);
},
{
name = top;
pos = (261,800);
}
);
associatedMasterId = "462F72A0-0500-4E69-A49B-6C2F2580580D";
guides = (
{
angle = 90;
pos = (291,0);
showMeasurement = 1;
}
);
layerId = "6974F1C5-9481-4341-A955-917EF2096B08";
name = "Jun 3 22, 18:54";
shapes = (
{
closed = 1;
nodes = (
(259,0,ls),
(268,0,o),
(274,6,o),
(274,15,cs),
(274,233,l),
(288,233,l),
(346,12,ls),
(348,4,o),
(356,0,o),
(364,0,cs),
(574,0,ls),
(583,0,o),
(589,6,o),
(589,15,cs),
(589,162,ls),
(589,170,o),
(588,174,o),
(583,182,cs),
(485,350,l),
(485,384,l),
(568,463,ls),
(575,469,o),
(578,473,o),
(578,481,cs),
(578,644,ls),
(578,657,o),
(577,660,o),
(568,668,cs),
(430,792,ls),
(423,798,o),
(417,800,o),
(406,800,cs),
(45,800,ls),
(36,800,o),
(30,794,o),
(30,785,cs),
(30,15,ls),
(30,6,o),
(36,0,o),
(45,0,cs)
);
},
{
closed = 1;
nodes = (
(259,460,o),
(236,483,o),
(236,515,cs),
(236,547,o),
(259,570,o),
(291,570,cs),
(323,570,o),
(346,547,o),
(346,515,cs),
(346,483,o),
(323,460,o),
(291,460,cs)
);
}
);
width = 597;
},
{
anchors = (
{
name = bottom;
pos = (301,-30);
},
{
name = top;
pos = (261,800);
}
);
associatedMasterId = "462F72A0-0500-4E69-A49B-6C2F2580580D";
guides = (
{
angle = 90;
pos = (291,0);
showMeasurement = 1;
}
);
layerId = "7525FFA4-9F5B-4C8C-BD27-BDE459A613CD";
name = "Jun 3 22, 20:15";
shapes = (
{
closed = 1;
nodes = (
(259,0,ls),
(268,0,o),
(274,6,o),
(274,15,cs),
(274,233,l),
(288,233,l),
(346,12,ls),
(348,4,o),
(356,0,o),
(364,0,cs),
(574,0,ls),
(583,0,o),
(589,6,o),
(589,15,cs),
(589,162,ls),
(589,170,o),
(588,174,o),
(583,182,cs),
(485,350,l),
(485,384,l),
(568,463,ls),
(575,469,o),
(578,473,o),
(578,481,cs),
(578,644,ls),
(578,657,o),
(577,660,o),
(568,668,cs),
(430,792,ls),
(423,798,o),
(417,800,o),
(406,800,cs),
(45,800,ls),
(36,800,o),
(30,794,o),
(30,785,cs),
(30,15,ls),
(30,6,o),
(36,0,o),
(45,0,cs)
);
},
{
closed = 1;
nodes = (
(259,484,o),
(236,507,o),
(236,539,cs),
(236,571,o),
(259,594,o),
(291,594,cs),
(323,594,o),
(346,571,o),
(346,539,cs),
(346,507,o),
(323,484,o),
(291,484,cs)
);
}
);
width = 597;
},
{
anchors = (
{
name = bottom;
pos = (301,-30);
},
{
name = top;
pos = (261,800);
}
);
associatedMasterId = "462F72A0-0500-4E69-A49B-6C2F2580580D";
guides = (
{
angle = 90;
pos = (291,0);
showMeasurement = 1;
},
{
pos = (0,539);
showMeasurement = 1;
}
);
layerId = "5FD4876D-AC27-4393-9540-2F7274C9B336";
name = _001;
shapes = (
{
closed = 1;
nodes = (
(259,0,ls),
(268,0,o),
(274,6,o),
(274,15,cs),
(274,233,l),
(288,233,l),
(346,12,ls),
(348,4,o),
(356,0,o),
(364,0,cs),
(574,0,ls),
(583,0,o),
(589,7,o),
(589,15,cs),
(589,163,ls),
(589,173,o),
(588,179,o),
(584,186,cs),
(485,362,l),
(485,384,l),
(568,463,ls),
(575,469,o),
(578,473,o),
(578,481,cs),
(578,644,ls),
(578,657,o),
(577,660,o),
(568,668,cs),
(430,792,ls),
(423,798,o),
(417,800,o),
(406,800,cs),
(45,800,ls),
(36,800,o),
(30,794,o),
(30,785,cs),
(30,15,ls),
(30,6,o),
(36,0,o),
(45,0,cs)
);
},
{
closed = 1;
nodes = (
(259,484,o),
(236,507,o),
(236,539,cs),
(236,571,o),
(259,594,o),
(291,594,cs),
(323,594,o),
(346,571,o),
(346,539,cs),
(346,507,o),
(323,484,o),
(291,484,cs)
);
}
);
width = 597;
},
{
anchors = (
{
name = bottom;
pos = (301,-30);
},
{
name = top;
pos = (261,800);
}
);
associatedMasterId = "462F72A0-0500-4E69-A49B-6C2F2580580D";
guides = (
{
angle = 90;
pos = (291,0);
showMeasurement = 1;
},
{
pos = (0,539);
showMeasurement = 1;
}
);
layerId = "AE7AD3BF-9F1D-41B1-A701-24F51E48BB3E";
name = "Jul 29 22, 23:57";
shapes = (
{
closed = 1;
nodes = (
(259,0,ls),
(268,0,o),
(274,6,o),
(274,15,cs),
(274,203,l),
(306,203,l),
(386,12,ls),
(389,4,o),
(396,0,o),
(404,0,cs),
(574,0,ls),
(583,0,o),
(589,7,o),
(589,15,cs),
(589,133,ls),
(589,143,o),
(587,149,o),
(584,156,cs),
(485,362,l),
(485,384,l),
(568,463,ls),
(575,469,o),
(578,473,o),
(578,481,cs),
(578,644,ls),
(578,657,o),
(577,660,o),
(568,668,cs),
(430,792,ls),
(423,798,o),
(417,800,o),
(406,800,cs),
(45,800,ls),
(36,800,o),
(30,794,o),
(30,785,cs),
(30,15,ls),
(30,6,o),
(36,0,o),
(45,0,cs)
);
},
{
closed = 1;
nodes = (
(259,484,o),
(236,507,o),
(236,539,cs),
(236,571,o),
(259,594,o),
(291,594,cs),
(323,594,o),
(346,571,o),
(346,539,cs),
(346,507,o),
(323,484,o),
(291,484,cs)
);
}
);
width = 597;
},
{
anchors = (
{
name = bottom;
pos = (301,-30);
},
{
name = top;
pos = (261,800);
}
);
associatedMasterId = "462F72A0-0500-4E69-A49B-6C2F2580580D";
guides = (
{
angle = 90;
pos = (291,0);
showMeasurement = 1;
},
{
pos = (0,539);
showMeasurement = 1;
}
);
layerId = "A5A068D8-9EFC-43A3-B8A9-8DE79F423F2B";
name = "Jul 30 22, 01:57";
shapes = (
{
closed = 1;
nodes = (
(259,0,ls),
(268,0,o),
(274,6,o),
(274,15,cs),
(274,223,l),
(284,223,l),
(366,12,ls),
(369,4,o),
(376,0,o),
(384,0,cs),
(574,0,ls),
(583,0,o),
(589,7,o),
(589,15,cs),
(589,131,ls),
(589,141,o),
(587,147,o),
(584,154,cs),
(485,352,l),
(485,394,l),
(568,463,ls),
(575,469,o),
(578,473,o),
(578,481,cs),
(578,644,ls),
(578,657,o),
(577,660,o),
(568,668,cs),
(430,792,ls),
(423,798,o),
(417,800,o),
(406,800,cs),
(45,800,ls),
(36,800,o),
(30,794,o),
(30,785,cs),
(30,15,ls),
(30,6,o),
(36,0,o),
(45,0,cs)
);
},
{
closed = 1;
nodes = (
(259,484,o),
(236,507,o),
(236,539,cs),
(236,571,o),
(259,594,o),
(291,594,cs),
(323,594,o),
(346,571,o),
(346,539,cs),
(346,507,o),
(323,484,o),
(291,484,cs)
);
}
);
width = 597;
},
{
anchors = (
{
name = bottom;
pos = (301,-30);
},
{
name = top;
pos = (261,800);
}
);
associatedMasterId = "462F72A0-0500-4E69-A49B-6C2F2580580D";
guides = (
{
angle = 90;
pos = (291,0);
showMeasurement = 1;
},
{
pos = (0,539);
showMeasurement = 1;
}
);
layerId = "F8DB3154-4C69-4439-AE57-65B577DB4CD5";
name = "Jul 30 22, 01:58";
shapes = (
{
closed = 1;
nodes = (
(572,0,o),
(578,7,o),
(578,15,cs),
(578,211,ls),
(578,221,o),
(578,227,o),
(573,234,cs),
(485,362,l),
(485,384,l),
(568,463,ls),
(575,469,o),
(578,473,o),
(578,481,cs),
(578,644,ls),
(578,657,o),
(577,660,o),
(568,668,cs),
(430,792,ls),
(423,798,o),
(417,800,o),
(406,800,cs),
(45,800,ls),
(36,800,o),
(30,794,o),
(30,785,cs),
(30,15,ls),
(30,6,o),
(36,0,o),
(45,0,cs),
(259,0,ls),
(268,0,o),
(274,6,o),
(274,15,cs),
(274,228,l),
(334,228,l),
(334,15,ls),
(334,6,o),
(340,0,o),
(349,0,cs),
(563,0,ls)
);
},
{
closed = 1;
nodes = (
(272,484,o),
(249,507,o),
(249,539,cs),
(249,571,o),
(272,594,o),
(304,594,cs),
(336,594,o),
(359,571,o),
(359,539,cs),
(359,507,o),
(336,484,o),
(304,484,cs)
);
}
);
width = 597;
},
{
anchors = (
{
name = bottom;
pos = (301,-30);
},
{
name = top;
pos = (261,800);
}
);
associatedMasterId = "462F72A0-0500-4E69-A49B-6C2F2580580D";
guides = (
{
angle = 90;
pos = (291,0);
showMeasurement = 1;
},
{
pos = (0,539);
showMeasurement = 1;
}
);
layerId = "3C2E9AA8-F244-4B39-901E-7498C22DE193";
name = "Jul 30 22, 02:08";
shapes = (
{
closed = 1;
nodes = (
(259,0,ls),
(268,0,o),
(274,6,o),
(274,15,cs),
(274,223,l),
(334,223,l),
(334,12,ls),
(334,4,o),
(344,0,o),
(352,0,cs),
(563,0,ls),
(572,0,o),
(578,7,o),
(578,15,cs),
(578,231,ls),
(578,241,o),
(580,247,o),
(573,254,cs),
(485,342,l),
(485,374,l),
(568,453,ls),
(575,459,o),
(578,463,o),
(578,471,cs),
(578,644,ls),
(578,657,o),
(577,660,o),
(568,668,cs),
(430,792,ls),
(423,798,o),
(417,800,o),
(406,800,cs),
(45,800,ls),
(36,800,o),
(30,794,o),
(30,785,cs),
(30,15,ls),
(30,6,o),
(36,0,o),
(45,0,cs)
);
},
{
closed = 1;
nodes = (
(269,484,o),
(246,507,o),
(246,539,cs),
(246,571,o),
(269,594,o),
(301,594,cs),
(333,594,o),
(356,571,o),
(356,539,cs),
(356,507,o),
(333,484,o),
(301,484,cs)
);
}
);
visible = 1;
width = 586;
},
{
anchors = (
{
name = bottom;
pos = (295,0);
},
{
name = top;
pos = (295,800);
}
);
background = {
shapes = (
{
closed = 1;
nodes = (
(257,0,ls),
(266,0,o),
(272,6,o),
(272,15,cs),
(272,293,l),
(317,293,l),
(414,12,ls),
(417,4,o),
(424,0,o),
(432,0,cs),
(580,0,ls),
(589,0,o),
(595,7,o),
(595,15,cs),
(595,85,ls),
(595,95,o),
(593,101,o),
(590,108,cs),
(507,281,l),
(462,343,l),
(479,354,l),
(574,449,ls),
(581,456,o),
(584,459,o),
(584,467,cs),
(584,631,ls),
(584,644,o),
(583,647,o),
(574,655,cs),
(436,792,ls),
(429,798,o),
(423,800,o),
(412,800,cs),
(87,800,ls),
(78,800,o),
(72,794,o),
(72,785,cs),
(72,15,ls),
(72,6,o),
(78,0,o),
(87,0,cs)
);
},
{
closed = 1;
nodes = (
(262,440,o),
(242,462,o),
(242,538,cs),
(242,615,o),
(262,637,o),
(328,637,cs),
(394,637,o),
(414,615,o),
(414,538,cs),
(414,462,o),
(394,440,o),
(328,440,cs)
);
}
);
};
guides = (
{
angle = 90;
pos = (301,628);
showMeasurement = 1;
},
{
pos = (242,538);
showMeasurement = 1;
}
);
layerId = "462F72A0-0500-4E69-A49B-6C2F2580580D";
shapes = (
{
closed = 1;
nodes = (
(247,0,ls),
(256,0,o),
(262,6,o),
(262,15,cs),
(262,293,l),
(307,293,l),
(404,12,ls),
(407,4,o),
(414,0,o),
(422,0,cs),
(580,0,ls),
(589,0,o),
(595,7,o),
(595,15,cs),
(595,85,ls),
(595,95,o),
(593,101,o),
(590,108,cs),
(522,253,l),
(456,341,l),
(512,389,l),
(578,453,ls),
(582,457,o),
(584,461,o),
(584,467,cs),
(584,631,ls),
(584,644,o),
(583,647,o),
(574,655,cs),
(436,792,ls),
(429,798,o),
(423,800,o),
(412,800,cs),
(87,800,ls),
(78,800,o),
(72,794,o),
(72,785,cs),
(72,15,ls),
(72,6,o),
(78,0,o),
(87,0,cs)
);
},
{
closed = 1;
nodes = (
(262,440,o),
(242,462,o),
(242,538,cs),
(242,615,o),
(262,637,o),
(328,637,cs),
(394,637,o),
(414,615,o),
(414,538,cs),
(414,462,o),
(394,440,o),
(328,440,cs)
);
}
);
width = 619;
},
{
anchors = (
{
name = bottom;
pos = (296,-30);
},
{
name = top;
pos = (256,800);
}
);
associatedMasterId = m002;
layerId = "17183051-7E7B-4B83-843E-7195E8250E28";
name = "Jun 2 22, 02:58";
shapes = (
{
closed = 1;
nodes = (
(27,800,o),
(21,794,o),
(21,785,cs),
(21,15,ls),
(21,6,o),
(27,0,o),
(36,0,cs),
(254,0,ls),
(263,0,o),
(269,6,o),
(269,15,cs),
(269,233,l),
(283,233,l),
(341,12,ls),
(343,4,o),
(351,0,o),
(359,0,cs),
(569,0,ls),
(578,0,o),
(584,6,o),
(584,15,cs),
(584,216,ls),
(584,223,o),
(581,229,o),
(576,235,cs),
(480,350,l),
(480,384,l),
(564,463,ls),
(571,469,o),
(574,473,o),
(574,481,cs),
(574,649,ls),
(574,656,o),
(572,662,o),
(566,667,cs),
(422,793,ls),
(417,798,o),
(410,800,o),
(403,800,cs),
(36,800,ls)
);
},
{
closed = 1;
nodes = (
(249,460,o),
(231,485,o),
(231,515,cs),
(231,545,o),
(249,570,o),
(279,570,cs),
(309,570,o),
(334,545,o),
(334,515,cs),
(334,485,o),
(309,460,o),
(279,460,cs)
);
}
);
width = 580;
},
{
anchors = (
{
name = bottom;
pos = (301,-30);
},
{
name = top;
pos = (261,800);
}
);
associatedMasterId = m002;
layerId = "279156ED-9FF0-49CA-8AC2-7A64F494A111";
name = "Jun 2 22, 03:20";
shapes = (
{
closed = 1;
nodes = (
(259,0,ls),
(268,0,o),
(274,6,o),
(274,15,cs),
(274,233,l),
(288,233,l),
(346,12,ls),
(348,4,o),
(356,0,o),
(364,0,cs),
(574,0,ls),
(583,0,o),
(589,6,o),
(589,15,cs),
(589,216,ls),
(589,223,o),
(586,229,o),
(581,235,cs),
(485,350,l),
(485,384,l),
(568,463,ls),
(575,469,o),
(578,473,o),
(578,481,cs),
(578,646,ls),
(578,657,o),
(577,660,o),
(568,668,cs),
(430,792,ls),
(423,798,o),
(417,800,o),
(406,800,cs),
(45,800,ls),
(36,800,o),
(30,794,o),
(30,785,cs),
(30,15,ls),
(30,6,o),
(36,0,o),
(45,0,cs)
);
},
{
closed = 1;
nodes = (
(259,460,o),
(236,483,o),
(236,515,cs),
(236,547,o),
(259,570,o),
(291,570,cs),
(323,570,o),
(346,547,o),
(346,515,cs),
(346,483,o),
(323,460,o),
(291,460,cs)
);
}
);
width = 597;
},
{
anchors = (
{
name = bottom;
pos = (301,-30);
},
{
name = top;
pos = (261,800);
}
);
associatedMasterId = m002;
layerId = "787307C8-1E32-4418-A2CB-B2BFB3FB698A";
name = "Jun 3 22, 18:40";
shapes = (
{
closed = 1;
nodes = (
(259,0,ls),
(268,0,o),
(274,6,o),
(274,15,cs),
(274,233,l),
(288,233,l),
(346,12,ls),
(348,4,o),
(356,0,o),
(364,0,cs),
(574,0,ls),
(583,0,o),
(589,6,o),
(589,15,cs),
(589,162,ls),
(589,170,o),
(588,174,o),
(583,182,cs),
(485,350,l),
(485,384,l),
(568,463,ls),
(575,469,o),
(578,473,o),
(578,481,cs),
(578,644,ls),
(578,657,o),
(577,660,o),
(568,668,cs),
(430,792,ls),
(423,798,o),
(417,800,o),
(406,800,cs),
(45,800,ls),
(36,800,o),
(30,794,o),
(30,785,cs),
(30,15,ls),
(30,6,o),
(36,0,o),
(45,0,cs)
);
},
{
closed = 1;
nodes = (
(259,437,o),
(235,461,o),
(235,495,cs),
(235,529,o),
(259,553,o),
(293,553,cs),
(327,553,o),
(351,529,o),
(351,495,cs),
(351,461,o),
(327,437,o),
(293,437,cs)
);
}
);
width = 597;
},
{
anchors = (
{
name = bottom;
pos = (301,-30);
},
{
name = top;
pos = (261,800);
}
);
associatedMasterId = m002;
guides = (
{
angle = 90;
pos = (291,0);
showMeasurement = 1;
}
);
layerId = "281EE6D8-2178-44EF-B5D7-2253D34EF2C8";
name = "Jun 3 22, 18:54";
shapes = (
{
closed = 1;
nodes = (
(259,0,ls),
(268,0,o),
(274,6,o),
(274,15,cs),
(274,233,l),
(288,233,l),
(346,12,ls),
(348,4,o),
(356,0,o),
(364,0,cs),
(574,0,ls),
(583,0,o),
(589,6,o),
(589,15,cs),
(589,162,ls),
(589,170,o),
(588,174,o),
(583,182,cs),
(485,350,l),
(485,384,l),
(568,463,ls),
(575,469,o),
(578,473,o),
(578,481,cs),
(578,644,ls),
(578,657,o),
(577,660,o),
(568,668,cs),
(430,792,ls),
(423,798,o),
(417,800,o),
(406,800,cs),
(45,800,ls),
(36,800,o),
(30,794,o),
(30,785,cs),
(30,15,ls),
(30,6,o),
(36,0,o),
(45,0,cs)
);
},
{
closed = 1;
nodes = (
(259,460,o),
(236,483,o),
(236,515,cs),
(236,547,o),
(259,570,o),
(291,570,cs),
(323,570,o),
(346,547,o),
(346,515,cs),
(346,483,o),
(323,460,o),
(291,460,cs)
);
}
);
width = 597;
},
{
anchors = (
{
name = bottom;
pos = (301,-30);
},
{
name = top;
pos = (261,800);
}
);
associatedMasterId = m002;
guides = (
{
angle = 90;
pos = (291,0);
showMeasurement = 1;
}
);
layerId = "DD1B9FB4-337E-417B-A735-255F01A1ED0C";
name = "Jun 3 22, 20:15";
shapes = (
{
closed = 1;
nodes = (
(259,0,ls),
(268,0,o),
(274,6,o),
(274,15,cs),
(274,233,l),
(288,233,l),
(346,12,ls),
(348,4,o),
(356,0,o),
(364,0,cs),
(574,0,ls),
(583,0,o),
(589,6,o),
(589,15,cs),
(589,162,ls),
(589,170,o),
(588,174,o),
(583,182,cs),
(485,350,l),
(485,384,l),
(568,463,ls),
(575,469,o),
(578,473,o),
(578,481,cs),
(578,644,ls),
(578,657,o),
(577,660,o),
(568,668,cs),
(430,792,ls),
(423,798,o),
(417,800,o),
(406,800,cs),
(45,800,ls),
(36,800,o),
(30,794,o),
(30,785,cs),
(30,15,ls),
(30,6,o),
(36,0,o),
(45,0,cs)
);
},
{
closed = 1;
nodes = (
(259,484,o),
(236,507,o),
(236,539,cs),
(236,571,o),
(259,594,o),
(291,594,cs),
(323,594,o),
(346,571,o),
(346,539,cs),
(346,507,o),
(323,484,o),
(291,484,cs)
);
}
);
width = 597;
},
{
anchors = (
{
name = bottom;
pos = (301,-30);
},
{
name = top;
pos = (261,800);
}
);
associatedMasterId = m002;
guides = (
{
angle = 90;
pos = (291,0);
showMeasurement = 1;
},
{
pos = (0,539);
showMeasurement = 1;
}
);
layerId = "DF41E132-685F-409C-AC71-98B700855F9F";
name = _001;
shapes = (
{
closed = 1;
nodes = (
(259,0,ls),
(268,0,o),
(274,6,o),
(274,15,cs),
(274,233,l),
(288,233,l),
(346,12,ls),
(348,4,o),
(356,0,o),
(364,0,cs),
(574,0,ls),
(583,0,o),
(589,7,o),
(589,15,cs),
(589,163,ls),
(589,173,o),
(588,179,o),
(584,186,cs),
(485,362,l),
(485,384,l),
(568,463,ls),
(575,469,o),
(578,473,o),
(578,481,cs),
(578,644,ls),
(578,657,o),
(577,660,o),
(568,668,cs),
(430,792,ls),
(423,798,o),
(417,800,o),
(406,800,cs),
(45,800,ls),
(36,800,o),
(30,794,o),
(30,785,cs),
(30,15,ls),
(30,6,o),
(36,0,o),
(45,0,cs)
);
},
{
closed = 1;
nodes = (
(259,484,o),
(236,507,o),
(236,539,cs),
(236,571,o),
(259,594,o),
(291,594,cs),
(323,594,o),
(346,571,o),
(346,539,cs),
(346,507,o),
(323,484,o),
(291,484,cs)
);
}
);
width = 597;
},
{
anchors = (
{
name = bottom;
pos = (301,-30);
},
{
name = top;
pos = (261,800);
}
);
associatedMasterId = m002;
guides = (
{
angle = 90;
pos = (291,0);
showMeasurement = 1;
},
{
pos = (0,539);
showMeasurement = 1;
}
);
layerId = "13A4B51B-8540-4453-9D00-D21DE3242365";
name = "Jul 29 22, 23:57";
shapes = (
{
closed = 1;
nodes = (
(259,0,ls),
(268,0,o),
(274,6,o),
(274,15,cs),
(274,203,l),
(306,203,l),
(386,12,ls),
(389,4,o),
(396,0,o),
(404,0,cs),
(574,0,ls),
(583,0,o),
(589,7,o),
(589,15,cs),
(589,133,ls),
(589,143,o),
(587,149,o),
(584,156,cs),
(485,362,l),
(485,384,l),
(568,463,ls),
(575,469,o),
(578,473,o),
(578,481,cs),
(578,644,ls),
(578,657,o),
(577,660,o),
(568,668,cs),
(430,792,ls),
(423,798,o),
(417,800,o),
(406,800,cs),
(45,800,ls),
(36,800,o),
(30,794,o),
(30,785,cs),
(30,15,ls),
(30,6,o),
(36,0,o),
(45,0,cs)
);
},
{
closed = 1;
nodes = (
(259,484,o),
(236,507,o),
(236,539,cs),
(236,571,o),
(259,594,o),
(291,594,cs),
(323,594,o),
(346,571,o),
(346,539,cs),
(346,507,o),
(323,484,o),
(291,484,cs)
);
}
);
width = 597;
},
{
anchors = (
{
name = bottom;
pos = (301,-30);
},
{
name = top;
pos = (261,800);
}
);
associatedMasterId = m002;
guides = (
{
angle = 90;
pos = (291,0);
showMeasurement = 1;
},
{
pos = (0,539);
showMeasurement = 1;
}
);
layerId = "03F22150-2306-4CAB-97CC-F4CA0C18D67D";
name = "Jul 30 22, 01:57";
shapes = (
{
closed = 1;
nodes = (
(259,0,ls),
(268,0,o),
(274,6,o),
(274,15,cs),
(274,223,l),
(284,223,l),
(366,12,ls),
(369,4,o),
(376,0,o),
(384,0,cs),
(574,0,ls),
(583,0,o),
(589,7,o),
(589,15,cs),
(589,131,ls),
(589,141,o),
(587,147,o),
(584,154,cs),
(485,352,l),
(485,394,l),
(568,463,ls),
(575,469,o),
(578,473,o),
(578,481,cs),
(578,644,ls),
(578,657,o),
(577,660,o),
(568,668,cs),
(430,792,ls),
(423,798,o),
(417,800,o),
(406,800,cs),
(45,800,ls),
(36,800,o),
(30,794,o),
(30,785,cs),
(30,15,ls),
(30,6,o),
(36,0,o),
(45,0,cs)
);
},
{
closed = 1;
nodes = (
(259,484,o),
(236,507,o),
(236,539,cs),
(236,571,o),
(259,594,o),
(291,594,cs),
(323,594,o),
(346,571,o),
(346,539,cs),
(346,507,o),
(323,484,o),
(291,484,cs)
);
}
);
width = 597;
},
{
anchors = (
{
name = bottom;
pos = (301,-30);
},
{
name = top;
pos = (261,800);
}
);
associatedMasterId = m002;
guides = (
{
angle = 90;
pos = (291,0);
showMeasurement = 1;
},
{
pos = (0,539);
showMeasurement = 1;
}
);
layerId = "23E0A0C6-FB2D-4127-A040-35566FDAB560";
name = "Jul 30 22, 01:58";
shapes = (
{
closed = 1;
nodes = (
(572,0,o),
(578,7,o),
(578,15,cs),
(578,211,ls),
(578,221,o),
(578,227,o),
(573,234,cs),
(485,362,l),
(485,384,l),
(568,463,ls),
(575,469,o),
(578,473,o),
(578,481,cs),
(578,644,ls),
(578,657,o),
(577,660,o),
(568,668,cs),
(430,792,ls),
(423,798,o),
(417,800,o),
(406,800,cs),
(45,800,ls),
(36,800,o),
(30,794,o),
(30,785,cs),
(30,15,ls),
(30,6,o),
(36,0,o),
(45,0,cs),
(259,0,ls),
(268,0,o),
(274,6,o),
(274,15,cs),
(274,228,l),
(334,228,l),
(334,15,ls),
(334,6,o),
(340,0,o),
(349,0,cs),
(563,0,ls)
);
},
{
closed = 1;
nodes = (
(272,484,o),
(249,507,o),
(249,539,cs),
(249,571,o),
(272,594,o),
(304,594,cs),
(336,594,o),
(359,571,o),
(359,539,cs),
(359,507,o),
(336,484,o),
(304,484,cs)
);
}
);
width = 597;
},
{
anchors = (
{
name = bottom;
pos = (301,-30);
},
{
name = top;
pos = (261,800);
}
);
associatedMasterId = m002;
guides = (
{
angle = 90;
pos = (291,0);
showMeasurement = 1;
},
{
pos = (0,539);
showMeasurement = 1;
}
);
layerId = "C39DD0B2-623D-4784-8ACE-3F7D99AADE38";
name = "Jul 30 22, 02:08";
shapes = (
{
closed = 1;
nodes = (
(259,0,ls),
(268,0,o),
(274,6,o),
(274,15,cs),
(274,223,l),
(334,223,l),
(334,12,ls),
(334,4,o),
(344,0,o),
(352,0,cs),
(563,0,ls),
(572,0,o),
(578,7,o),
(578,15,cs),
(578,231,ls),
(578,241,o),
(580,247,o),
(573,254,cs),
(485,342,l),
(485,374,l),
(568,453,ls),
(575,459,o),
(578,463,o),
(578,471,cs),
(578,644,ls),
(578,657,o),
(577,660,o),
(568,668,cs),
(430,792,ls),
(423,798,o),
(417,800,o),
(406,800,cs),
(45,800,ls),
(36,800,o),
(30,794,o),
(30,785,cs),
(30,15,ls),
(30,6,o),
(36,0,o),
(45,0,cs)
);
},
{
closed = 1;
nodes = (
(269,484,o),
(246,507,o),
(246,539,cs),
(246,571,o),
(269,594,o),
(301,594,cs),
(333,594,o),
(356,571,o),
(356,539,cs),
(356,507,o),
(333,484,o),
(301,484,cs)
);
}
);
width = 586;
},
{
anchors = (
{
name = bottom;
pos = (302,-30);
},
{
name = top;
pos = (262,800);
}
);
guides = (
{
angle = 90;
pos = (292,0);
showMeasurement = 1;
},
{
pos = (1,539);
showMeasurement = 1;
}
);
layerId = m002;
shapes = (
{
closed = 1;
nodes = (
(260,0,ls),
(269,0,o),
(275,6,o),
(275,15,cs),
(275,223,l),
(285,223,l),
(367,12,ls),
(370,4,o),
(377,0,o),
(385,0,cs),
(575,0,ls),
(584,0,o),
(590,7,o),
(590,15,cs),
(590,131,ls),
(590,141,o),
(589,147,o),
(585,154,cs),
(510,298,l),
(473,354,l),
(486,366,l),
(569,449,ls),
(576,456,o),
(579,459,o),
(579,467,cs),
(579,631,ls),
(579,644,o),
(578,647,o),
(569,655,cs),
(431,792,ls),
(424,798,o),
(418,800,o),
(407,800,cs),
(40,800,ls),
(31,800,o),
(25,794,o),
(25,785,cs),
(25,15,ls),
(25,6,o),
(31,0,o),
(40,0,cs)
);
},
{
closed = 1;
nodes = (
(270,474,o),
(247,497,o),
(247,529,cs),
(247,561,o),
(270,584,o),
(302,584,cs),
(334,584,o),
(357,561,o),
(357,529,cs),
(357,497,o),
(334,474,o),
(302,474,cs)
);
}
);
width = 615;
}
);
metricLeft = H;
unicode = 82;
userData = {
KernOnName = R;
};
},
{
color = 8;
glyphname = Rstroke;
kernRight = KO_R;
lastChange = "2023-11-26 21:03:08 +0000";
layers = (
{
layerId = "462F72A0-0500-4E69-A49B-6C2F2580580D";
shapes = (
{
alignment = -1;
pos = (60,0);
ref = R;
},
{
closed = 1;
nodes = (
(273,293,ls),
(282,293,o),
(288,299,o),
(288,308,cs),
(288,421,ls),
(288,430,o),
(282,436,o),
(273,436,cs),
(77,436,ls),
(68,436,o),
(62,430,o),
(62,421,cs),
(62,308,ls),
(62,299,o),
(68,293,o),
(77,293,cs)
);
}
);
width = 679;
},
{
layerId = m002;
shapes = (
{
alignment = -1;
pos = (53,0);
ref = R;
},
{
closed = 1;
nodes = (
(346,223,ls),
(355,223,o),
(361,229,o),
(361,238,cs),
(361,441,ls),
(361,450,o),
(355,456,o),
(346,456,cs),
(30,456,ls),
(21,456,o),
(15,450,o),
(15,441,cs),
(15,238,ls),
(15,229,o),
(21,223,o),
(30,223,cs)
);
}
);
width = 668;
}
);
metricLeft = "=R-10";
metricRight = "=R";
unicode = 588;
},
{
color = 8;
glyphname = Rtail;
kernRight = KO_R;
lastChange = "2023-11-26 21:03:08 +0000";
layers = (
{
anchors = (
{
name = bottom;
pos = (305,-30);
},
{
name = top;
pos = (265,800);
}
);
layerId = "462F72A0-0500-4E69-A49B-6C2F2580580D";
shapes = (
{
closed = 1;
nodes = (
(251,-156,ls),
(263,-156,o),
(272,-151,o),
(272,-136,cs),
(272,293,l),
(317,293,l),
(414,12,ls),
(417,4,o),
(424,0,o),
(432,0,cs),
(580,0,ls),
(589,0,o),
(595,7,o),
(595,15,cs),
(595,85,ls),
(595,95,o),
(593,101,o),
(590,108,cs),
(522,253,l),
(456,341,l),
(512,389,l),
(578,453,ls),
(582,457,o),
(584,461,o),
(584,467,cs),
(584,631,ls),
(584,644,o),
(583,647,o),
(574,655,cs),
(436,792,ls),
(429,798,o),
(423,800,o),
(412,800,cs),
(87,800,ls),
(78,800,o),
(72,794,o),
(72,785,cs),
(72,-57,ls),
(72,-71,o),
(77,-82,o),
(89,-93,cs),
(141,-142,ls),
(151,-152,o),
(165,-156,o),
(180,-156,cs)
);
},
{
closed = 1;
nodes = (
(262,440,o),
(242,462,o),
(242,538,cs),
(242,615,o),
(262,637,o),
(328,637,cs),
(394,637,o),
(414,615,o),
(414,538,cs),
(414,462,o),
(394,440,o),
(328,440,cs)
);
}
);
width = 619;
},
{
anchors = (
{
name = bottom;
pos = (296,-30);
},
{
name = top;
pos = (256,800);
}
);
layerId = m002;
shapes = (
{
closed = 1;
nodes = (
(231,-176,ls),
(249,-176,o),
(261,-164,o),
(261,-146,cs),
(264,223,l),
(279,223,l),
(361,12,ls),
(364,4,o),
(371,0,o),
(379,0,cs),
(569,0,ls),
(578,0,o),
(584,7,o),
(584,15,cs),
(584,131,ls),
(584,141,o),
(582,147,o),
(579,154,cs),
(502,322,l),
(474,374,l),
(480,384,l),
(563,463,ls),
(570,469,o),
(573,473,o),
(573,481,cs),
(573,644,ls),
(573,657,o),
(572,660,o),
(563,668,cs),
(425,792,ls),
(418,798,o),
(412,800,o),
(401,800,cs),
(40,800,ls),
(31,800,o),
(25,794,o),
(25,785,cs),
(25,-57,ls),
(25,-71,o),
(30,-82,o),
(42,-93,cs),
(114,-162,ls),
(124,-172,o),
(138,-176,o),
(153,-176,cs)
);
},
{
closed = 1;
nodes = (
(264,484,o),
(241,507,o),
(241,539,cs),
(241,571,o),
(264,594,o),
(296,594,cs),
(328,594,o),
(351,571,o),
(351,539,cs),
(351,507,o),
(328,484,o),
(296,484,cs)
);
}
);
width = 609;
}
);
metricLeft = R;
metricRight = R;
unicode = 11364;
},
{
color = 8;
glyphname = S;
kernLeft = KO_S;
kernRight = KO_S;
lastChange = "2023-11-26 21:03:08 +0000";
layers = (
{
anchors = (
{
name = bottom;
pos = (189,-20);
},
{
name = top;
pos = (249,800);
}
);
associatedMasterId = "462F72A0-0500-4E69-A49B-6C2F2580580D";
layerId = "4D4C5C5F-6D4A-4BF8-A92D-809A2AF0B29C";
name = Original;
shapes = (
{
closed = 1;
nodes = (
(188,800,o),
(183,799,o),
(177,794,cs),
(18,661,ls),
(12,656,o),
(9,651,o),
(9,643,cs),
(9,395,ls),
(9,387,o),
(12,381,o),
(19,377,cs),
(134,321,l),
(134,284,l),
(17,180,ls),
(11,175,o),
(9,169,o),
(9,162,cs),
(9,15,ls),
(9,6,o),
(15,0,o),
(24,0,cs),
(233,0,ls),
(240,0,o),
(247,2,o),
(252,7,cs),
(420,161,ls),
(426,167,o),
(428,172,o),
(428,179,cs),
(428,378,ls),
(428,386,o),
(425,394,o),
(419,397,cs),
(272,471,l),
(272,502,l),
(419,610,ls),
(425,614,o),
(428,620,o),
(428,628,cs),
(428,785,ls),
(428,794,o),
(422,800,o),
(413,800,cs),
(195,800,ls)
);
}
);
width = 437;
},
{
anchors = (
{
name = bottom;
pos = (202,-20);
},
{
name = top;
pos = (262,800);
}
);
associatedMasterId = "462F72A0-0500-4E69-A49B-6C2F2580580D";
layerId = "B31CD8A6-4595-4B81-BB19-1834881F1983";
name = "Jun 4 22, 20:00";
shapes = (
{
closed = 1;
nodes = (
(246,0,ls),
(253,0,o),
(260,2,o),
(265,7,cs),
(433,161,ls),
(439,167,o),
(441,172,o),
(441,179,cs),
(441,358,ls),
(441,366,o),
(438,373,o),
(432,377,cs),
(285,471,l),
(285,502,l),
(432,610,ls),
(438,614,o),
(441,620,o),
(441,628,cs),
(441,785,ls),
(441,794,o),
(435,800,o),
(426,800,cs),
(194,800,ls),
(183,800,o),
(177,798,o),
(170,792,cs),
(32,668,ls),
(23,660,o),
(22,657,o),
(22,644,cs),
(22,415,ls),
(22,407,o),
(25,401,o),
(32,397,cs),
(147,321,l),
(147,284,l),
(30,180,ls),
(24,175,o),
(22,169,o),
(22,162,cs),
(22,15,ls),
(22,6,o),
(28,0,o),
(37,0,cs)
);
}
);
width = 462;
},
{
anchors = (
{
name = bottom;
pos = (208,0);
},
{
name = top;
pos = (246,800);
}
);
guides = (
{
angle = 90;
pos = (423,442);
}
);
layerId = "462F72A0-0500-4E69-A49B-6C2F2580580D";
shapes = (
{
closed = 1;
nodes = (
(208,0,ls),
(215,0,o),
(222,5,o),
(227,7,cs),
(415,101,ls),
(422,104,o),
(423,112,o),
(423,119,cs),
(423,380,ls),
(423,388,o),
(420,396,o),
(414,399,cs),
(257,489,l),
(257,600,l),
(414,665,ls),
(420,668,o),
(423,675,o),
(423,683,cs),
(423,785,ls),
(423,794,o),
(417,800,o),
(408,800,cs),
(246,800,ls),
(235,800,o),
(230,797,o),
(222,792,cs),
(64,685,ls),
(54,678,o),
(54,674,o),
(54,661,cs),
(54,441,ls),
(54,433,o),
(57,427,o),
(64,423,cs),
(219,327,l),
(219,220,l),
(62,148,ls),
(54,144,o),
(54,138,o),
(54,128,cs),
(54,15,ls),
(54,6,o),
(60,0,o),
(69,0,cs)
);
}
);
width = 477;
},
{
anchors = (
{
name = bottom;
pos = (202,-20);
},
{
name = top;
pos = (262,800);
}
);
associatedMasterId = "462F72A0-0500-4E69-A49B-6C2F2580580D";
layerId = "A6690135-2FFD-45E1-9F9B-368866090FD2";
name = "Jul 30 22, 01:47";
shapes = (
{
closed = 1;
nodes = (
(246,0,ls),
(253,0,o),
(260,2,o),
(265,7,cs),
(433,161,ls),
(439,167,o),
(441,172,o),
(441,179,cs),
(441,378,ls),
(441,386,o),
(438,394,o),
(432,397,cs),
(275,481,l),
(275,492,l),
(432,610,ls),
(438,615,o),
(441,620,o),
(441,628,cs),
(441,785,ls),
(441,794,o),
(435,800,o),
(426,800,cs),
(194,800,ls),
(183,800,o),
(177,798,o),
(170,792,cs),
(32,668,ls),
(23,660,o),
(22,657,o),
(22,644,cs),
(22,395,ls),
(22,387,o),
(25,381,o),
(32,377,cs),
(157,311,l),
(157,294,l),
(30,180,ls),
(24,174,o),
(22,170,o),
(22,160,cs),
(22,15,ls),
(22,6,o),
(28,0,o),
(37,0,cs)
);
}
);
width = 462;
},
{
anchors = (
{
name = bottom;
pos = (189,-20);
},
{
name = top;
pos = (249,800);
}
);
associatedMasterId = m002;
layerId = "D26F7D6E-51C4-43DD-9EA5-2A36D6E6EE95";
name = Original;
shapes = (
{
closed = 1;
nodes = (
(188,800,o),
(183,799,o),
(177,794,cs),
(18,661,ls),
(12,656,o),
(9,651,o),
(9,643,cs),
(9,395,ls),
(9,387,o),
(12,381,o),
(19,377,cs),
(134,321,l),
(134,284,l),
(17,180,ls),
(11,175,o),
(9,169,o),
(9,162,cs),
(9,15,ls),
(9,6,o),
(15,0,o),
(24,0,cs),
(233,0,ls),
(240,0,o),
(247,2,o),
(252,7,cs),
(420,161,ls),
(426,167,o),
(428,172,o),
(428,179,cs),
(428,378,ls),
(428,386,o),
(425,394,o),
(419,397,cs),
(272,471,l),
(272,502,l),
(419,610,ls),
(425,614,o),
(428,620,o),
(428,628,cs),
(428,785,ls),
(428,794,o),
(422,800,o),
(413,800,cs),
(195,800,ls)
);
}
);
width = 437;
},
{
anchors = (
{
name = bottom;
pos = (202,-20);
},
{
name = top;
pos = (262,800);
}
);
associatedMasterId = m002;
layerId = "13EC1B00-60E8-4002-8620-4E62AEFB7F11";
name = "Jun 4 22, 20:00";
shapes = (
{
closed = 1;
nodes = (
(246,0,ls),
(253,0,o),
(260,2,o),
(265,7,cs),
(433,161,ls),
(439,167,o),
(441,172,o),
(441,179,cs),
(441,358,ls),
(441,366,o),
(438,373,o),
(432,377,cs),
(285,471,l),
(285,502,l),
(432,610,ls),
(438,614,o),
(441,620,o),
(441,628,cs),
(441,785,ls),
(441,794,o),
(435,800,o),
(426,800,cs),
(194,800,ls),
(183,800,o),
(177,798,o),
(170,792,cs),
(32,668,ls),
(23,660,o),
(22,657,o),
(22,644,cs),
(22,415,ls),
(22,407,o),
(25,401,o),
(32,397,cs),
(147,321,l),
(147,284,l),
(30,180,ls),
(24,175,o),
(22,169,o),
(22,162,cs),
(22,15,ls),
(22,6,o),
(28,0,o),
(37,0,cs)
);
}
);
width = 462;
},
{
anchors = (
{
name = bottom;
pos = (235,0);
},
{
name = top;
pos = (235,800);
}
);
guides = (
{
angle = 90;
pos = (444,442);
}
);
layerId = m002;
shapes = (
{
closed = 1;
nodes = (
(229,0,ls),
(236,0,o),
(243,4,o),
(248,7,cs),
(436,101,ls),
(443,105,o),
(444,112,o),
(444,119,cs),
(444,380,ls),
(444,388,o),
(441,396,o),
(435,399,cs),
(278,489,l),
(278,520,l),
(435,589,ls),
(441,592,o),
(444,599,o),
(444,607,cs),
(444,785,ls),
(444,794,o),
(438,800,o),
(429,800,cs),
(217,800,ls),
(206,800,o),
(200,797,o),
(193,792,cs),
(35,685,ls),
(25,678,o),
(25,674,o),
(25,661,cs),
(25,391,ls),
(25,383,o),
(28,377,o),
(35,373,cs),
(160,307,l),
(160,277,l),
(33,204,ls),
(25,199,o),
(25,194,o),
(25,184,cs),
(25,15,ls),
(25,6,o),
(31,0,o),
(40,0,cs)
);
}
);
width = 469;
},
{
anchors = (
{
name = bottom;
pos = (202,-20);
},
{
name = top;
pos = (262,800);
}
);
associatedMasterId = m002;
layerId = "B529FF67-749C-4CE6-8A87-9806234A300F";
name = "Jul 30 22, 01:47";
shapes = (
{
closed = 1;
nodes = (
(246,0,ls),
(253,0,o),
(260,2,o),
(265,7,cs),
(433,161,ls),
(439,167,o),
(441,172,o),
(441,179,cs),
(441,378,ls),
(441,386,o),
(438,394,o),
(432,397,cs),
(275,481,l),
(275,492,l),
(432,610,ls),
(438,615,o),
(441,620,o),
(441,628,cs),
(441,785,ls),
(441,794,o),
(435,800,o),
(426,800,cs),
(194,800,ls),
(183,800,o),
(177,798,o),
(170,792,cs),
(32,668,ls),
(23,660,o),
(22,657,o),
(22,644,cs),
(22,395,ls),
(22,387,o),
(25,381,o),
(32,377,cs),
(157,311,l),
(157,294,l),
(30,180,ls),
(24,174,o),
(22,170,o),
(22,160,cs),
(22,15,ls),
(22,6,o),
(28,0,o),
(37,0,cs)
);
}
);
width = 462;
}
);
unicode = 83;
userData = {
KernOnName = S;
};
},
{
color = 8;
glyphname = Germandbls;
kernLeft = KO_H;
kernRight = KO_B;
lastChange = "2023-11-26 21:03:08 +0000";
layers = (
{
layerId = "462F72A0-0500-4E69-A49B-6C2F2580580D";
shapes = (
{
closed = 1;
nodes = (
(257,0,ls),
(265,0,o),
(272,7,o),
(272,15,cs),
(272,598,l),
(383,598,l),
(332,387,ls),
(329,376,o),
(338,368,o),
(348,368,cs),
(412,368,l),
(412,342,l),
(340,167,l),
(340,15,ls),
(340,7,o),
(347,0,o),
(355,0,cs),
(493,0,ls),
(497,0,o),
(502,2,o),
(504,6,cs),
(610,208,l),
(610,481,ls),
(610,489,o),
(603,496,o),
(595,496,cs),
(538,496,l),
(538,514,l),
(586,724,ls),
(587,729,o),
(586,736,o),
(581,740,cs),
(520,794,ls),
(515,798,o),
(508,800,o),
(498,800,cs),
(87,800,ls),
(79,800,o),
(72,793,o),
(72,785,cs),
(72,15,ls),
(72,7,o),
(79,0,o),
(87,0,cs)
);
}
);
width = 685;
},
{
layerId = m002;
shapes = (
{
closed = 1;
nodes = (
(239,0,ls),
(247,0,o),
(254,7,o),
(254,15,cs),
(254,598,l),
(316,598,l),
(265,357,ls),
(263,346,o),
(271,338,o),
(281,338,cs),
(345,338,l),
(345,322,l),
(273,167,l),
(273,15,ls),
(273,7,o),
(280,0,o),
(288,0,cs),
(446,0,ls),
(450,0,o),
(455,2,o),
(457,6,cs),
(563,188,l),
(563,511,ls),
(563,519,o),
(556,526,o),
(548,526,cs),
(491,526,l),
(491,534,l),
(539,724,ls),
(540,730,o),
(538,736,o),
(530,743,cs),
(473,794,ls),
(469,798,o),
(461,800,o),
(451,800,cs),
(40,800,ls),
(32,800,o),
(25,793,o),
(25,785,cs),
(25,15,ls),
(25,7,o),
(32,0,o),
(40,0,cs)
);
}
);
width = 588;
}
);
metricLeft = "=H";
metricRight = "=B";
unicode = 7838;
},
{
color = 8;
glyphname = Sobliquestroke;
lastChange = "2023-11-26 21:03:08 +0000";
layers = (
{
layerId = "462F72A0-0500-4E69-A49B-6C2F2580580D";
shapes = (
{
closed = 1;
nodes = (
(470,506,l),
(470,556,l),
(54,277,l),
(54,227,l)
);
},
{
pos = (28,0);
ref = S;
}
);
width = 524;
},
{
layerId = m002;
shapes = (
{
closed = 1;
nodes = (
(442,473,l),
(442,523,l),
(26,310,l),
(26,260,l)
);
},
{
ref = S;
}
);
width = 469;
}
);
metricLeft = S;
metricRight = S;
unicode = 42920;
},
{
color = 8;
glyphname = T;
kernLeft = KO_T;
kernRight = KO_T;
lastChange = "2023-11-26 21:03:08 +0000";
layers = (
{
anchors = (
{
name = bottom;
pos = (289,-30);
},
{
name = bottomhook;
pos = (392,15);
},
{
name = center;
pos = (289,400);
},
{
name = top;
pos = (289,800);
}
);
layerId = "462F72A0-0500-4E69-A49B-6C2F2580580D";
shapes = (
{
closed = 1;
nodes = (
(377,0,ls),
(386,0,o),
(392,6,o),
(392,15,cs),
(392,640,l),
(497,640,ls),
(506,640,o),
(512,646,o),
(512,655,cs),
(512,785,ls),
(512,794,o),
(506,800,o),
(497,800,cs),
(87,800,ls),
(78,800,o),
(72,794,o),
(72,785,cs),
(72,655,ls),
(72,646,o),
(78,640,o),
(87,640,cs),
(192,640,l),
(192,15,ls),
(192,6,o),
(198,0,o),
(207,0,cs)
);
}
);
width = 584;
},
{
anchors = (
{
name = bottom;
pos = (232,0);
},
{
name = bottomhook;
pos = (360,15);
},
{
name = center;
pos = (232,400);
},
{
name = top;
pos = (232,800);
}
);
layerId = m002;
shapes = (
{
closed = 1;
nodes = (
(345,0,ls),
(354,0,o),
(360,6,o),
(360,15,cs),
(360,560,l),
(430,560,ls),
(439,560,o),
(445,566,o),
(445,575,cs),
(445,785,ls),
(445,794,o),
(439,800,o),
(430,800,cs),
(40,800,ls),
(31,800,o),
(25,794,o),
(25,785,cs),
(25,575,ls),
(25,566,o),
(31,560,o),
(40,560,cs),
(110,560,l),
(110,15,ls),
(110,6,o),
(116,0,o),
(125,0,cs)
);
}
);
width = 470;
}
);
metricLeft = H;
metricRight = H;
unicode = 84;
userData = {
KernOnName = T;
};
},
{
color = 8;
glyphname = Tbar;
kernRight = KO_T;
lastChange = "2023-11-26 21:03:08 +0000";
layers = (
{
layerId = "462F72A0-0500-4E69-A49B-6C2F2580580D";
shapes = (
{
closed = 1;
nodes = (
(444,344,ls),
(453,344,o),
(459,350,o),
(459,359,cs),
(459,450,ls),
(459,459,o),
(453,465,o),
(444,465,cs),
(131,465,ls),
(122,465,o),
(116,459,o),
(116,450,cs),
(116,359,ls),
(116,350,o),
(122,344,o),
(131,344,cs)
);
},
{
alignment = -1;
ref = T;
}
);
width = 584;
},
{
layerId = m002;
shapes = (
{
closed = 1;
nodes = (
(394,344,ls),
(403,344,o),
(409,350,o),
(409,359,cs),
(409,450,ls),
(409,459,o),
(403,465,o),
(394,465,cs),
(81,465,ls),
(72,465,o),
(66,459,o),
(66,450,cs),
(66,359,ls),
(66,350,o),
(72,344,o),
(81,344,cs)
);
},
{
alignment = -1;
ref = T;
}
);
width = 470;
}
);
metricLeft = "=T";
metricRight = "=T";
unicode = 358;
},
{
color = 3;
glyphname = Thook;
lastChange = "2024-01-07 18:16:20 +0000";
layers = (
{
layerId = "462F72A0-0500-4E69-A49B-6C2F2580580D";
shapes = (
{
closed = 1;
nodes = (
(170,530,ls),
(188,530,o),
(201,542,o),
(201,560,cs),
(201,640,l),
(336,640,ls),
(354,640,o),
(366,652,o),
(366,671,cs),
(366,737,ls),
(366,771,o),
(338,800,o),
(289,800,cs),
(177,800,ls),
(163,800,o),
(153,795,o),
(141,783,cs),
(82,724,ls),
(72,714,o),
(68,700,o),
(68,685,cs),
(68,560,ls),
(68,542,o),
(80,530,o),
(98,530,cs)
);
},
{
pos = (158,0);
ref = T;
}
);
width = 742;
},
{
layerId = m002;
shapes = (
{
closed = 1;
nodes = (
(157,460,ls),
(175,460,o),
(188,472,o),
(188,490,cs),
(188,560,l),
(323,560,ls),
(341,560,o),
(353,572,o),
(353,591,cs),
(353,737,ls),
(353,771,o),
(325,800,o),
(276,800,cs),
(134,800,ls),
(120,800,o),
(110,795,o),
(98,783,cs),
(39,724,ls),
(29,714,o),
(25,700,o),
(25,685,cs),
(25,490,ls),
(25,472,o),
(37,460,o),
(55,460,cs)
);
},
{
pos = (145,0);
ref = T;
}
);
width = 615;
}
);
metricLeft = O;
metricRight = "=T";
unicode = 428;
},
{
color = 8;
glyphname = U;
kernLeft = KO_U;
kernRight = KO_H;
lastChange = "2023-11-26 21:03:08 +0000";
layers = (
{
anchors = (
{
name = bottom;
pos = (336,0);
},
{
name = ogonek;
pos = (591,10);
},
{
name = part;
pos = (334,400);
},
{
name = top;
pos = (327,800);
},
{
name = topright;
pos = (492,800);
}
);
background = {
shapes = (
{
pos = (-3,0);
ref = H;
}
);
};
layerId = "462F72A0-0500-4E69-A49B-6C2F2580580D";
shapes = (
{
closed = 1;
nodes = (
(567,0,ls),
(576,0,o),
(582,6,o),
(582,15,cs),
(582,785,ls),
(582,794,o),
(576,800,o),
(567,800,cs),
(397,800,ls),
(388,800,o),
(382,794,o),
(382,785,cs),
(382,160,l),
(284,160,ls),
(274,160,o),
(272,163,o),
(272,172,cs),
(272,785,ls),
(272,794,o),
(266,800,o),
(257,800,cs),
(87,800,ls),
(78,800,o),
(72,794,o),
(72,785,cs),
(72,154,ls),
(72,144,o),
(75,137,o),
(82,130,cs),
(202,10,ls),
(209,3,o),
(216,0,o),
(226,0,cs)
);
}
);
width = 654;
},
{
anchors = (
{
name = bottom;
pos = (330,0);
},
{
name = ogonek;
pos = (560,0);
},
{
name = part;
pos = (300,400);
},
{
name = top;
pos = (300,800);
},
{
name = topright;
pos = (493,800);
}
);
layerId = m002;
shapes = (
{
closed = 1;
nodes = (
(560,0,ls),
(569,0,o),
(575,6,o),
(575,15,cs),
(575,785,ls),
(575,794,o),
(569,800,o),
(560,800,cs),
(340,800,ls),
(331,800,o),
(325,794,o),
(325,785,cs),
(325,240,l),
(300,240,ls),
(284,240,o),
(275,249,o),
(275,265,cs),
(275,785,ls),
(275,794,o),
(269,800,o),
(260,800,cs),
(40,800,ls),
(31,800,o),
(25,794,o),
(25,785,cs),
(25,154,ls),
(25,144,o),
(28,137,o),
(35,130,cs),
(155,10,ls),
(162,3,o),
(169,0,o),
(179,0,cs)
);
}
);
width = 600;
}
);
metricLeft = H;
metricRight = H;
unicode = 85;
},
{
color = 8;
glyphname = "Upsilon-latin";
lastChange = "2023-11-26 21:03:08 +0000";
layers = (
{
anchors = (
{
name = bottom;
pos = (373,0);
},
{
name = top;
pos = (373,800);
}
);
layerId = "462F72A0-0500-4E69-A49B-6C2F2580580D";
shapes = (
{
closed = 1;
nodes = (
(464,0,ls),
(471,0,o),
(477,2,o),
(483,7,cs),
(632,142,ls),
(638,147,o),
(640,153,o),
(640,160,cs),
(640,528,ls),
(640,535,o),
(640,543,o),
(633,547,cs),
(579,581,l),
(579,641,l),
(658,641,ls),
(667,641,o),
(673,647,o),
(673,656,cs),
(673,785,ls),
(673,794,o),
(667,800,o),
(658,800,cs),
(457,800,ls),
(448,800,o),
(442,794,o),
(442,785,cs),
(442,222,ls),
(442,186,o),
(419,168,o),
(373,168,cs),
(329,168,o),
(304,186,o),
(304,222,cs),
(304,785,ls),
(304,794,o),
(298,800,o),
(289,800,cs),
(87,800,ls),
(78,800,o),
(72,794,o),
(72,785,cs),
(72,656,ls),
(72,647,o),
(78,641,o),
(87,641,cs),
(165,641,l),
(165,581,l),
(111,547,ls),
(104,543,o),
(104,535,o),
(104,528,cs),
(104,160,ls),
(104,153,o),
(106,147,o),
(112,142,cs),
(261,7,ls),
(267,2,o),
(273,0,o),
(280,0,cs)
);
}
);
width = 745;
},
{
anchors = (
{
name = bottom;
pos = (326,0);
},
{
name = top;
pos = (326,800);
}
);
layerId = m002;
shapes = (
{
closed = 1;
nodes = (
(417,0,ls),
(424,0,o),
(430,2,o),
(436,7,cs),
(585,142,ls),
(591,147,o),
(593,153,o),
(593,160,cs),
(593,548,ls),
(593,555,o),
(591,561,o),
(586,567,cs),
(553,601,l),
(553,614,l),
(611,614,ls),
(620,614,o),
(626,620,o),
(626,629,cs),
(626,785,ls),
(626,794,o),
(620,800,o),
(611,800,cs),
(361,800,ls),
(352,800,o),
(346,794,o),
(346,785,cs),
(346,252,ls),
(346,236,o),
(339,228,o),
(326,228,cs),
(313,228,o),
(305,236,o),
(305,252,cs),
(305,785,ls),
(305,794,o),
(299,800,o),
(290,800,cs),
(40,800,ls),
(31,800,o),
(25,794,o),
(25,785,cs),
(25,629,ls),
(25,620,o),
(31,614,o),
(40,614,cs),
(97,614,l),
(97,601,l),
(64,567,ls),
(59,561,o),
(57,555,o),
(57,548,cs),
(57,160,ls),
(57,153,o),
(59,147,o),
(65,142,cs),
(214,7,ls),
(220,2,o),
(226,0,o),
(233,0,cs)
);
}
);
width = 651;
}
);
metricLeft = U;
metricRight = U;
unicode = 433;
},
{
color = 8;
glyphname = V;
kernLeft = KO_U;
kernRight = KO_V;
lastChange = "2023-11-26 21:03:08 +0000";
layers = (
{
anchors = (
{
name = bottom;
pos = (339,0);
},
{
name = top;
pos = (339,800);
}
);
background = {
shapes = (
{
pos = (12,0);
ref = O;
}
);
};
layerId = "462F72A0-0500-4E69-A49B-6C2F2580580D";
shapes = (
{
closed = 1;
nodes = (
(452,0,ls),
(462,0,o),
(469,3,o),
(476,10,cs),
(596,130,ls),
(603,137,o),
(606,144,o),
(606,154,cs),
(606,785,ls),
(606,794,o),
(600,800,o),
(591,800,cs),
(421,800,ls),
(412,800,o),
(406,794,o),
(406,785,cs),
(406,161,l),
(272,161,l),
(272,785,ls),
(272,794,o),
(266,800,o),
(257,800,cs),
(87,800,ls),
(78,800,o),
(72,794,o),
(72,785,cs),
(72,154,ls),
(72,144,o),
(75,137,o),
(82,130,cs),
(202,10,ls),
(209,3,o),
(216,0,o),
(226,0,cs)
);
}
);
width = 678;
},
{
anchors = (
{
name = bottom;
pos = (293,-30);
},
{
name = top;
pos = (293,800);
}
);
associatedMasterId = "462F72A0-0500-4E69-A49B-6C2F2580580D";
layerId = "A9F91B0C-65E3-4D8B-AE9A-A8C4AFAAD86C";
name = "Jul 29 22, 17:18";
shapes = (
{
closed = 1;
nodes = (
(330,800,ls),
(321,800,o),
(315,794,o),
(315,785,cs),
(315,263,l),
(270,263,l),
(270,785,ls),
(270,794,o),
(264,800,o),
(255,800,cs),
(41,800,ls),
(32,800,o),
(26,794,o),
(26,785,cs),
(26,229,ls),
(26,222,o),
(28,217,o),
(32,211,cs),
(174,9,ls),
(178,3,o),
(185,0,o),
(193,0,cs),
(393,0,ls),
(401,0,o),
(408,3,o),
(412,9,cs),
(553,211,ls),
(557,217,o),
(559,222,o),
(559,229,cs),
(559,785,ls),
(559,794,o),
(553,800,o),
(544,800,cs)
);
}
);
width = 585;
},
{
anchors = (
{
name = bottom;
pos = (293,-30);
},
{
name = top;
pos = (293,800);
}
);
layerId = m002;
shapes = (
{
closed = 1;
nodes = (
(421,0,ls),
(431,0,o),
(438,3,o),
(445,10,cs),
(565,130,ls),
(572,137,o),
(575,144,o),
(575,154,cs),
(575,785,ls),
(575,794,o),
(569,800,o),
(560,800,cs),
(340,800,ls),
(331,800,o),
(325,794,o),
(325,785,cs),
(325,290,l),
(275,290,l),
(275,785,ls),
(275,794,o),
(269,800,o),
(260,800,cs),
(40,800,ls),
(31,800,o),
(25,794,o),
(25,785,cs),
(25,154,ls),
(25,144,o),
(28,137,o),
(35,130,cs),
(155,10,ls),
(162,3,o),
(169,0,o),
(179,0,cs)
);
}
);
width = 600;
},
{
anchors = (
{
name = bottom;
pos = (293,-30);
},
{
name = top;
pos = (293,800);
}
);
associatedMasterId = m002;
layerId = "2856BCB3-1E44-4D63-BBF2-20D69638348B";
name = "Jul 29 22, 17:18";
shapes = (
{
closed = 1;
nodes = (
(330,800,ls),
(321,800,o),
(315,794,o),
(315,785,cs),
(315,263,l),
(270,263,l),
(270,785,ls),
(270,794,o),
(264,800,o),
(255,800,cs),
(41,800,ls),
(32,800,o),
(26,794,o),
(26,785,cs),
(26,229,ls),
(26,222,o),
(28,217,o),
(32,211,cs),
(174,9,ls),
(178,3,o),
(185,0,o),
(193,0,cs),
(393,0,ls),
(401,0,o),
(408,3,o),
(412,9,cs),
(553,211,ls),
(557,217,o),
(559,222,o),
(559,229,cs),
(559,785,ls),
(559,794,o),
(553,800,o),
(544,800,cs)
);
}
);
width = 585;
}
);
metricLeft = H;
metricRight = H;
unicode = 86;
},
